<?xml version="1.0" standalone="no"?>
<!DOCTYPE svg PUBLIC "-//W3C//DTD SVG 20010904//EN"
 "http://www.w3.org/TR/2001/REC-SVG-20010904/DTD/svg10.dtd">
<svg version="1.0" xmlns="http://www.w3.org/2000/svg"
 width="2613.000000pt" height="1000.000000pt" viewBox="0 0 2613.000000 1000.000000"
 preserveAspectRatio="xMidYMid meet">
<metadata>
Created by potrace 1.16, written by Peter Selinger 2001-2019
</metadata>
<g transform="translate(0.000000,1000.000000) scale(0.100000,-0.100000)"
fill="#000000" stroke="none">
<path d="M14629 8259 c-7 -14 -10 -60 -7 -126 3 -90 1 -103 -12 -97 -52 20
-259 74 -286 74 -52 0 -56 -13 -49 -167 7 -161 28 -242 86 -349 41 -74 132
-173 205 -221 21 -15 58 -39 81 -55 23 -16 61 -37 84 -47 l41 -19 -28 -18
c-26 -18 -56 -19 -454 -19 l-425 0 -129 -28 c-148 -32 -300 -79 -366 -112 -60
-30 -195 -132 -241 -181 -34 -37 -145 -180 -181 -234 -21 -32 -32 -22 -78 73
-32 66 -38 72 -65 72 -30 0 -49 -24 -71 -90 -6 -18 -8 -17 -20 12 -24 57 -73
64 -94 13 -35 -85 -29 -217 16 -318 39 -89 111 -151 194 -167 64 -12 70 -16
70 -41 0 -45 -31 -84 -181 -233 -43 -43 -162 -197 -205 -266 -10 -16 -36 -53
-57 -82 -61 -81 -90 -178 -91 -295 0 -83 3 -102 21 -125 26 -36 70 -41 105
-14 39 31 87 108 104 169 9 29 30 69 46 88 39 44 154 99 339 163 327 112 527
203 649 297 91 69 103 87 108 153 l4 58 102 6 c115 6 245 39 446 117 210 81
356 118 700 181 224 40 238 42 314 31 43 -6 84 -16 90 -21 6 -5 47 -27 91 -49
86 -43 153 -57 191 -40 32 15 57 71 49 111 -15 71 -90 163 -163 201 -54 28
-176 56 -242 56 l-65 0 40 32 c22 18 63 54 92 81 l51 48 84 -11 c98 -14 149
-2 182 43 33 44 30 154 -7 232 -29 62 -81 144 -130 208 -67 86 -219 172 -325
183 l-62 7 0 41 c0 69 -20 207 -36 244 -21 52 -141 227 -197 288 -64 70 -129
116 -200 143 -74 27 -103 27 -118 0z m147 -118 c85 -63 198 -203 261 -323 21
-40 27 -70 33 -156 5 -66 4 -124 -3 -150 -9 -39 -7 -46 11 -64 18 -19 25 -20
66 -9 71 18 116 13 182 -18 139 -65 294 -284 294 -413 0 -50 -11 -53 -108 -38
-98 15 -118 8 -228 -86 -45 -38 -109 -84 -142 -102 -63 -33 -174 -62 -241 -62
-44 0 -61 -14 -61 -50 0 -38 18 -50 77 -50 29 0 62 -5 73 -12 15 -10 26 -9 54
4 24 12 77 19 174 24 127 6 144 5 208 -16 38 -12 87 -34 108 -49 36 -24 96
-102 96 -124 0 -16 -53 4 -141 53 -86 49 -160 70 -244 70 -57 0 -563 -94 -725
-135 -74 -19 -171 -48 -215 -66 -44 -17 -144 -54 -223 -81 -128 -44 -155 -49
-257 -55 -107 -6 -116 -8 -140 -33 -19 -20 -29 -44 -34 -85 -7 -52 -13 -62
-52 -96 -24 -21 -94 -65 -155 -98 -99 -53 -179 -85 -559 -226 -183 -68 -305
-140 -347 -203 -10 -15 -28 -57 -40 -94 -24 -73 -42 -81 -32 -15 10 74 36 141
73 191 19 28 51 73 71 102 83 124 140 196 240 304 59 63 114 129 124 147 20
40 21 125 1 163 -11 22 -28 33 -67 45 -28 8 -59 15 -67 15 -57 0 -135 104
-148 197 l-6 47 28 -22 c47 -37 76 -27 90 31 l8 29 27 -31 c34 -36 110 -74
142 -69 17 2 24 11 28 38 16 95 216 318 365 405 64 38 233 92 390 125 182 37
443 49 697 30 209 -15 259 -8 347 51 61 40 75 60 66 88 -5 17 -9 19 -177 126
-141 89 -205 157 -265 280 -45 93 -46 99 -52 215 l-6 120 35 -6 c51 -10 161
-44 195 -61 16 -9 37 -26 47 -38 32 -41 98 -37 98 6 0 11 -6 30 -14 42 -8 13
-16 63 -19 120 -6 111 -3 114 59 68z"/>
<path d="M14776 8031 c-3 -5 15 -35 40 -67 66 -84 136 -234 143 -309 5 -51 9
-60 26 -60 66 0 -30 273 -136 389 -51 56 -63 64 -73 47z"/>
<path d="M14485 7871 c-7 -13 10 -120 31 -191 32 -110 101 -193 206 -246 29
-15 77 -42 106 -60 61 -40 62 -40 62 -15 0 25 -41 59 -132 109 -85 47 -149
107 -177 166 -19 41 -51 151 -51 175 0 26 211 -106 303 -189 32 -29 69 -74 83
-101 25 -50 54 -65 54 -29 0 27 -32 87 -67 126 -52 58 -176 145 -317 221 -85
46 -92 48 -101 34z"/>
<path d="M15120 7280 c-30 -30 -27 -83 7 -110 66 -52 147 37 97 108 -20 29
-76 30 -104 2z"/>
<path d="M7570 7669 c-30 -4 -92 -16 -138 -25 -52 -10 -102 -14 -135 -11 -56
7 -68 3 -84 -28 -13 -25 -1 -60 26 -74 27 -15 114 -13 186 3 33 8 110 21 170
30 61 9 120 19 132 21 32 7 48 41 34 71 -10 22 -16 24 -73 23 -35 -1 -88 -5
-118 -10z"/>
<path d="M8217 7573 c-26 -30 -22 -69 10 -90 23 -15 61 -19 248 -25 121 -3
266 -9 322 -13 94 -6 103 -5 122 14 26 26 27 55 2 80 -15 15 -41 20 -157 26
-77 4 -209 9 -294 10 -85 1 -173 6 -195 10 -33 5 -43 3 -58 -12z"/>
<path d="M6320 7534 c-41 -13 -87 -24 -101 -24 -32 0 -59 -28 -59 -62 0 -29
14 -44 51 -53 27 -7 202 45 235 69 22 17 21 66 -2 83 -23 17 -34 16 -124 -13z"/>
<path d="M17384 7504 c-16 -23 -16 -29 -3 -52 9 -17 29 -30 54 -38 58 -16 643
-28 661 -13 16 13 18 57 5 78 -14 21 -82 29 -321 35 -124 4 -260 9 -302 12
-75 5 -77 5 -94 -22z"/>
<path d="M9072 7454 c-34 -24 -29 -66 16 -116 26 -29 69 -57 147 -95 120 -58
609 -225 663 -226 53 -2 81 54 50 95 -7 9 -119 50 -253 91 -132 42 -292 91
-355 111 -63 20 -120 39 -126 43 -6 5 -24 29 -42 54 -41 61 -62 70 -100 43z"/>
<path d="M5635 7391 c-104 -37 -230 -87 -280 -112 -82 -40 -90 -47 -93 -75 -4
-36 19 -64 51 -64 12 0 78 27 147 59 69 32 188 83 265 112 77 29 148 59 158
67 20 17 22 53 5 70 -21 21 -59 13 -253 -57z"/>
<path d="M18234 7385 c-20 -31 -12 -56 34 -107 44 -49 144 -100 317 -163 192
-70 464 -155 496 -155 29 0 59 31 59 60 0 40 -31 53 -389 165 -200 62 -368
119 -372 127 -4 7 -21 32 -38 56 -38 51 -80 58 -107 17z"/>
<path d="M4555 6952 c-300 -153 -315 -163 -315 -207 0 -27 29 -55 57 -55 10 0
77 36 146 80 70 44 189 113 265 153 109 57 138 77 140 95 4 29 -14 52 -42 52
-11 -1 -124 -53 -251 -118z"/>
<path d="M10292 6924 c-41 -29 -29 -62 51 -141 84 -84 172 -139 415 -260 167
-84 175 -86 200 -72 21 12 27 22 27 49 0 35 0 35 -156 115 -251 129 -306 162
-377 229 -72 67 -110 96 -127 96 -6 0 -21 -7 -33 -16z"/>
<path d="M19456 6858 c-9 -12 -16 -30 -16 -39 0 -28 159 -171 245 -220 136
-79 404 -209 428 -209 34 0 61 33 53 65 -5 20 -28 36 -109 76 -238 118 -359
192 -445 272 -92 85 -127 97 -156 55z"/>
<path d="M3519 6194 c-224 -274 -289 -362 -289 -392 0 -29 27 -52 60 -52 24 0
38 11 76 63 27 34 133 166 236 294 103 127 193 243 199 257 17 36 -10 76 -51
76 -26 0 -51 -27 -231 -246z"/>
<path d="M11530 6230 c-48 -48 -11 -118 139 -262 180 -173 245 -228 273 -228
32 0 48 18 48 55 0 26 -20 48 -146 165 -156 144 -214 207 -214 234 0 22 -36
56 -60 56 -11 0 -29 -9 -40 -20z"/>
<path d="M20707 6172 c-25 -27 -21 -72 11 -123 44 -68 366 -369 395 -369 25 0
57 31 57 56 0 19 -24 48 -97 117 -185 173 -260 251 -267 282 -4 16 -12 36 -18
42 -15 19 -62 16 -81 -5z"/>
<path d="M3051 5324 c-42 -53 -27 -92 68 -180 l66 -62 -82 -85 c-94 -96 -104
-127 -57 -174 40 -40 75 -27 165 63 l77 77 74 -77 c62 -64 78 -76 106 -76 36
0 81 36 83 67 3 42 -6 61 -50 111 -25 29 -54 64 -65 77 l-18 23 76 72 c63 60
76 78 76 104 0 37 -7 49 -38 65 -31 16 -88 -11 -163 -78 l-56 -50 -29 30 c-16
17 -55 51 -87 75 -71 53 -114 59 -146 18z"/>
<path d="M7885 5336 c-16 -7 -52 -33 -79 -58 l-50 -45 -41 44 c-34 35 -48 43
-78 43 -26 0 -40 -6 -51 -22 -22 -31 -20 -63 9 -133 l24 -59 -22 -26 c-12 -14
-38 -43 -58 -65 -46 -50 -54 -76 -35 -113 33 -64 99 -58 171 17 21 22 42 41
46 41 4 0 37 -36 74 -81 37 -44 77 -85 90 -91 51 -23 115 20 115 77 0 24 -18
54 -75 126 l-74 94 74 73 c88 86 99 124 49 170 -29 25 -46 27 -89 8z"/>
<path d="M12317 4986 c-32 -19 -82 -55 -111 -81 l-54 -46 -30 30 c-16 17 -41
33 -56 37 -40 10 -86 -14 -103 -53 -12 -30 -12 -38 2 -67 9 -19 27 -44 41 -57
13 -12 24 -26 24 -31 0 -4 -29 -45 -65 -90 -53 -67 -65 -89 -65 -118 0 -46 33
-80 79 -80 34 0 56 17 118 95 l33 39 36 -42 c30 -36 41 -42 75 -42 25 0 46 7
59 20 41 41 36 91 -16 161 -13 18 -24 40 -24 49 0 20 152 162 186 173 39 14
49 83 17 120 -26 28 -82 22 -146 -17z"/>
<path d="M21600 4875 c-14 -7 -45 -39 -70 -70 -35 -44 -49 -54 -65 -49 -11 3
-45 8 -75 11 -46 4 -60 1 -89 -19 -19 -12 -39 -36 -44 -52 -14 -42 7 -104 44
-124 16 -10 28 -20 26 -24 -1 -4 -30 -39 -65 -77 -79 -88 -91 -119 -65 -163
21 -37 58 -54 95 -45 27 7 96 75 169 165 23 28 46 52 50 52 4 0 38 -38 74 -85
37 -47 76 -92 88 -100 33 -23 73 -18 109 14 64 57 44 109 -104 283 l-49 57 46
61 c31 44 45 72 45 94 0 58 -70 100 -120 71z"/>
<path d="M17449 4822 c-14 -9 -43 -31 -65 -48 -37 -29 -41 -30 -72 -17 -52 22
-136 21 -160 -1 -42 -37 -33 -117 16 -146 9 -5 26 -16 36 -25 19 -15 19 -15
-1 -37 -11 -13 -44 -58 -73 -100 -51 -74 -53 -80 -44 -115 7 -29 18 -43 45
-57 55 -30 85 -12 163 95 l64 90 19 -28 c11 -15 36 -56 56 -90 27 -44 46 -64
69 -72 65 -23 128 22 128 92 0 29 -36 98 -129 243 -13 19 -9 26 33 78 52 65
59 103 24 136 -26 24 -73 25 -109 2z"/>
<path d="M11668 3025 c-15 -8 -31 -29 -36 -47 -6 -18 -16 -136 -22 -263 -10
-186 -16 -234 -29 -249 -17 -21 -129 -96 -142 -96 -4 0 -23 28 -41 62 -39 74
-113 149 -176 180 -72 35 -180 33 -245 -5 -57 -34 -114 -109 -183 -241 -27
-53 -51 -96 -54 -95 -3 0 -30 34 -59 76 -46 64 -55 83 -52 113 8 116 -131 241
-268 240 -144 -1 -252 -173 -254 -404 -1 -160 52 -270 143 -297 78 -23 130 13
224 156 31 47 58 85 60 85 3 0 29 -35 59 -77 83 -117 122 -147 181 -136 44 9
86 61 161 202 38 72 84 151 102 176 30 40 37 45 72 45 49 0 112 -46 148 -107
l25 -42 -59 -26 c-102 -45 -140 -102 -123 -181 23 -102 118 -154 226 -124 89
25 134 97 134 216 l1 59 57 40 c31 22 60 42 64 43 5 2 8 -27 8 -65 0 -208 57
-323 161 -323 62 0 146 72 156 133 5 31 1 40 -25 67 -17 17 -41 30 -55 30 -22
0 -25 5 -31 61 -3 34 -6 86 -6 115 0 59 -10 53 125 75 103 16 131 26 144 55
16 35 14 47 -10 78 -24 31 -47 32 -168 11 -47 -8 -86 -13 -88 -12 -1 2 1 85 6
185 4 101 5 201 1 224 -13 70 -69 97 -132 63z m-1255 -518 c18 -8 38 -21 46
-31 12 -14 11 -19 -6 -39 -11 -12 -50 -68 -85 -124 -36 -56 -68 -99 -72 -96
-10 10 -7 97 5 155 12 57 32 102 57 131 18 20 15 20 55 4z"/>
<path d="M15272 2984 c-67 -46 -125 -279 -136 -546 -5 -97 -9 -116 -46 -205
-22 -54 -51 -112 -64 -128 l-23 -29 -75 154 c-105 217 -157 265 -263 246 -41
-8 -96 -59 -126 -117 -11 -23 -22 -39 -25 -36 -2 2 -9 44 -15 93 -12 98 -26
130 -66 145 -32 12 -79 -4 -94 -32 -15 -29 -15 -403 0 -473 17 -77 53 -116
108 -116 74 0 117 43 203 208 24 45 46 82 49 82 3 0 31 -48 61 -106 99 -191
139 -234 221 -234 76 0 120 52 163 190 10 30 20 61 22 69 2 7 18 -14 34 -47
37 -72 113 -146 166 -161 49 -14 118 -14 167 0 34 9 44 7 110 -26 85 -42 171
-59 244 -50 64 8 189 48 255 81 58 29 68 30 68 4 0 -11 13 -34 29 -52 24 -27
36 -33 71 -33 34 0 47 6 70 32 23 25 29 44 35 104 10 100 47 224 102 341 45
95 45 96 81 96 45 0 92 47 92 92 0 33 -47 93 -91 116 -59 30 -146 4 -189 -57
-24 -33 -40 -26 -40 19 0 34 -46 72 -87 72 -43 0 -77 -23 -94 -63 -16 -36 -20
-369 -6 -444 6 -36 5 -43 -9 -43 -9 0 -63 -16 -122 -36 -127 -44 -202 -53
-255 -31 l-37 16 32 43 c64 84 118 231 118 323 0 160 -181 195 -318 62 -80
-77 -140 -237 -128 -339 4 -39 2 -48 -10 -48 -29 0 -73 61 -94 127 -30 98 -25
344 11 508 l11 50 267 3 c286 4 304 7 317 56 8 34 -3 64 -33 83 -33 22 -324
31 -443 14 -80 -12 -81 -12 -111 13 -35 30 -74 33 -107 10z"/>
<path d="M9807 2872 c-84 -57 -139 -222 -154 -458 l-6 -101 -114 -12 c-163
-16 -209 -28 -249 -63 -36 -32 -44 -70 -24 -109 17 -30 73 -26 98 8 19 27 23
27 152 33 72 3 134 3 136 1 2 -2 4 -47 4 -100 0 -52 7 -210 16 -350 15 -243
15 -434 -1 -474 -7 -17 -10 -16 -37 10 -16 15 -46 50 -66 76 -20 27 -50 55
-65 64 -58 30 -127 -15 -127 -82 0 -61 180 -275 245 -291 47 -12 122 2 164 29
47 31 87 107 101 193 15 90 12 281 -10 584 -11 151 -20 290 -20 308 l0 32 90
0 c83 0 93 2 115 25 30 30 31 54 4 89 -20 25 -25 26 -116 26 l-96 0 5 133 c6
144 29 264 58 299 18 23 19 23 68 6 67 -24 89 -23 108 7 26 39 6 71 -64 103
-76 35 -175 41 -215 14z"/>
<path d="M12816 2795 c-37 -28 -46 -107 -71 -605 -14 -267 -25 -534 -25 -594
l0 -108 34 -34 c38 -38 70 -43 117 -18 55 28 63 65 61 284 l-2 195 82 0 c72 0
91 4 142 30 78 39 141 102 174 173 l26 57 7 -48 c28 -186 189 -278 324 -186
39 27 89 98 111 159 17 49 23 167 11 214 l-8 28 93 -4 c51 -2 99 -7 106 -11 9
-6 12 -53 12 -179 0 -99 5 -187 11 -209 17 -56 51 -84 104 -84 54 0 88 29 109
93 22 62 20 86 -8 119 -20 24 -25 46 -35 155 -12 141 -20 171 -58 210 -36 38
-73 43 -235 28 l-139 -12 -44 45 c-81 82 -153 97 -251 52 -62 -29 -74 -47 -97
-160 l-14 -70 -7 41 c-11 65 -59 155 -107 202 -63 62 -135 94 -224 100 l-73 4
-4 56 c-4 42 -10 60 -28 74 -26 21 -68 23 -94 3z m260 -350 c57 -33 95 -110
97 -194 2 -71 -15 -99 -88 -149 -43 -29 -53 -32 -94 -26 -25 4 -47 7 -48 8 -1
1 1 88 4 194 l6 192 40 0 c25 0 57 -10 83 -25z m573 -144 c18 -57 1 -140 -38
-183 -32 -36 -46 -32 -61 20 -10 37 -14 204 -5 214 3 2 24 2 47 -1 40 -6 44
-9 57 -50z"/>
<path d="M14030 2780 c-11 -11 -20 -31 -20 -44 0 -33 56 -152 75 -160 50 -19
105 11 105 58 0 29 -32 103 -60 139 -26 33 -71 36 -100 7z"/>
</g>
</svg>
