<?xml version="1.0" standalone="no"?>
<!DOCTYPE svg PUBLIC "-//W3C//DTD SVG 20010904//EN"
 "http://www.w3.org/TR/2001/REC-SVG-20010904/DTD/svg10.dtd">
<svg version="1.0" xmlns="http://www.w3.org/2000/svg"
 width="614.569831pt" height="400.000000pt" viewBox="0 0 614.569831 400.000000"
 preserveAspectRatio="xMidYMid meet">
<metadata>
Created by potrace 1.14, written by Peter Selinger 2001-2017
</metadata>
<g transform="translate(-25.056346,432.518110) scale(0.046367,-0.046367)"
fill="#444444" stroke="none">
<path d="M6760 9320 c-120 -5 -125 -6 -128 -28 -2 -12 3 -24 10 -27 7 -3 130
-1 273 3 254 7 260 8 263 28 3 20 -3 21 -89 27 -94 7 -112 7 -329 -3z"/>
<path d="M7642 9258 c3 -21 14 -25 158 -49 85 -14 200 -36 254 -48 99 -22 125
-19 113 11 -6 16 -128 46 -338 83 -181 32 -191 32 -187 3z"/>
<path d="M5515 9156 c-218 -55 -243 -63 -250 -85 -8 -25 3 -49 26 -56 10 -3
55 5 99 19 44 14 136 39 203 56 162 40 169 44 165 78 -3 23 -8 27 -38 29 -19
1 -111 -17 -205 -41z"/>
<path d="M9046 8865 c-7 -20 -2 -24 154 -103 74 -38 166 -88 204 -111 69 -43
96 -47 96 -13 0 21 -134 101 -319 191 -113 55 -126 59 -135 36z"/>
<path d="M4394 8760 c-204 -104 -229 -129 -188 -188 24 -34 58 -27 173 37 58
32 134 72 167 89 60 30 74 46 74 81 0 25 -32 51 -62 51 -15 0 -88 -32 -164
-70z"/>
<path d="M9832 8408 c-22 -22 -12 -37 69 -99 45 -34 126 -100 181 -146 99 -84
130 -97 136 -57 3 20 -75 90 -268 240 -85 67 -104 76 -118 62z"/>
<path d="M3556 8199 c-162 -175 -227 -310 -180 -377 18 -26 54 -30 54 -6 0 28
111 182 198 275 45 49 82 97 82 107 0 34 -29 62 -64 62 -28 0 -43 -10 -90 -61z"/>
<path d="M10487 7834 c-19 -19 0 -51 76 -131 45 -49 112 -121 148 -161 53 -58
72 -73 90 -70 54 7 35 39 -119 204 -135 145 -175 178 -195 158z"/>
<path d="M3223 7280 c-31 -12 -33 -69 -3 -77 29 -8 50 -89 50 -194 0 -48 -4
-90 -9 -93 -16 -10 -51 40 -101 147 -48 101 -52 107 -80 107 -36 0 -50 -27
-50 -95 0 -64 -19 -141 -41 -167 -19 -23 -19 -23 -34 -4 -11 15 -15 47 -15
123 0 57 4 103 9 103 29 0 11 94 -21 111 -22 12 -52 -2 -63 -28 -4 -10 -9 -80
-12 -155 l-6 -137 -30 47 c-46 74 -150 204 -195 244 -41 37 -105 59 -123 41
-10 -10 -24 -56 -69 -236 -32 -131 -46 -224 -36 -260 6 -26 35 -40 57 -26 7 4
19 4 25 -2 7 -6 41 -2 95 11 46 11 127 23 179 26 105 7 126 14 135 44 6 19 8
19 28 5 12 -8 39 -15 61 -15 31 0 45 7 72 36 19 19 40 56 47 81 l13 45 33 -51
c44 -68 75 -91 122 -91 76 0 104 62 97 219 -5 106 -32 206 -61 229 -20 16 -51
21 -74 12z m-593 -207 c25 -31 68 -90 97 -132 58 -85 57 -89 -27 -91 -25 0
-83 -9 -130 -19 -47 -11 -87 -17 -89 -16 -5 6 40 217 54 253 8 17 19 32 24 32
6 0 11 7 11 15 0 25 13 16 60 -42z"/>
<path d="M11252 6918 c-20 -20 -14 -35 46 -126 32 -48 78 -120 101 -159 36
-63 46 -73 69 -73 33 0 52 16 52 43 0 25 -42 94 -137 225 -75 104 -100 121
-131 90z"/>
<path d="M1190 6399 c-90 -14 -233 -63 -300 -104 -61 -37 -138 -114 -163 -161
-8 -16 -23 -56 -32 -88 -9 -32 -35 -87 -57 -122 -115 -183 -129 -398 -37 -560
40 -70 136 -159 210 -194 89 -42 154 -53 288 -48 97 3 130 9 203 35 84 29 88
30 94 11 3 -10 18 -21 34 -24 34 -7 37 -11 215 -389 76 -159 177 -370 226
-467 49 -98 89 -182 89 -187 0 -5 -28 -27 -62 -49 -60 -37 -64 -38 -95 -26
-44 19 -176 18 -270 -2 -72 -15 -81 -14 -137 2 -37 11 -96 18 -151 18 -86 1
-93 -1 -164 -38 -121 -65 -239 -199 -299 -339 -24 -55 -27 -75 -27 -177 0
-110 1 -118 31 -175 80 -153 241 -235 460 -235 214 0 413 88 583 258 29 29 57
50 61 45 4 -4 58 -78 120 -163 62 -85 140 -188 174 -229 34 -40 71 -86 84
-102 l23 -28 -22 -43 c-12 -24 -90 -194 -174 -380 -84 -185 -180 -385 -214
-445 -33 -59 -61 -118 -61 -130 l0 -22 -43 18 c-111 48 -284 57 -472 27 -55
-9 -116 -19 -135 -22 -90 -14 -194 -104 -270 -232 -158 -269 -133 -668 53
-828 93 -79 207 -110 375 -101 399 20 722 337 722 706 0 95 -21 177 -66 259
l-34 63 37 -6 c21 -4 52 -11 68 -15 17 -5 145 -34 285 -65 369 -82 671 -156
865 -214 94 -28 226 -63 295 -77 69 -15 133 -33 142 -42 12 -10 30 -13 56 -10
l39 6 21 -72 c53 -180 214 -331 407 -381 77 -20 213 -20 289 0 94 25 213 93
282 160 155 152 187 379 82 577 -18 34 -27 62 -22 67 52 47 163 127 362 260
130 87 309 212 397 276 199 146 411 287 670 445 211 129 282 178 430 299 49
40 115 91 146 112 l57 38 79 -40 c107 -55 199 -69 311 -47 246 49 448 241 518
493 22 80 30 278 14 358 -23 120 -87 213 -167 243 -55 21 -196 14 -303 -15
-41 -11 -75 -19 -75 -18 -3 24 -47 83 -73 99 -80 49 -174 19 -280 -89 -58 -59
-65 -63 -80 -50 -9 8 -59 36 -110 61 -51 25 -112 61 -135 80 -23 19 -110 74
-192 122 -168 97 -236 145 -410 284 -349 280 -562 419 -1010 660 -115 62 -244
137 -285 166 -41 30 -82 54 -90 54 -23 0 -40 -20 -40 -46 0 -40 87 -98 394
-264 428 -230 623 -358 974 -638 194 -154 251 -194 412 -287 74 -42 161 -97
193 -121 32 -25 96 -63 143 -87 68 -34 84 -46 80 -60 -2 -11 0 -29 5 -41 8
-16 4 -35 -16 -80 -37 -83 -55 -169 -55 -263 l0 -82 -37 -11 c-21 -5 -137 -31
-258 -56 -655 -135 -1207 -290 -1517 -424 -50 -22 -92 -39 -93 -37 -1 1 -7 28
-13 60 -23 117 -72 179 -181 230 -58 28 -77 31 -156 32 -49 0 -108 -4 -129 -8
-35 -8 -38 -7 -27 7 19 22 9 59 -19 73 -14 7 -59 13 -101 13 -67 0 -85 -4
-146 -35 -114 -57 -238 -192 -297 -323 -10 -23 -22 -42 -26 -42 -4 0 -20 17
-36 38 -16 20 -86 106 -157 190 -70 84 -127 157 -125 162 2 4 134 140 294 302
l290 293 47 -51 c28 -31 74 -66 119 -90 66 -35 82 -38 166 -42 78 -4 103 -1
155 18 125 45 253 151 332 274 19 31 38 56 41 56 15 0 426 -118 574 -165 203
-65 331 -96 640 -160 322 -66 465 -101 530 -131 63 -28 87 -28 104 -1 40 63
-119 118 -674 232 -286 59 -372 81 -603 154 -103 33 -268 81 -367 108 l-178
48 6 30 c4 17 7 75 6 130 -1 120 -23 189 -86 259 -70 81 -100 91 -264 91 -117
0 -145 3 -160 16 -11 9 -39 27 -64 40 -92 48 -255 20 -341 -58 -89 -81 -137
-268 -111 -434 6 -41 10 -74 9 -74 -1 -1 -182 -34 -402 -75 -220 -40 -408 -75
-418 -78 -14 -4 2 37 69 169 89 179 154 298 206 381 l30 48 59 -42 c33 -23 83
-64 111 -92 49 -48 172 -207 197 -254 18 -34 58 -46 87 -27 32 21 30 38 -9 82
-19 21 -56 70 -83 108 -60 86 -192 220 -256 260 -27 17 -48 34 -48 39 0 12 55
79 155 191 45 50 100 116 122 145 58 78 191 212 236 238 20 12 43 19 51 16 22
-8 56 14 56 37 0 18 4 19 53 12 197 -30 395 27 563 161 330 263 258 690 -132
782 -152 36 -333 -20 -572 -175 l-92 -60 1 -43 c1 -25 -8 -71 -22 -108 l-24
-65 -35 17 c-39 20 -72 23 -98 9 -9 -5 -100 -15 -202 -21 -102 -6 -367 -29
-590 -52 -408 -41 -757 -55 -836 -35 -24 6 -36 4 -48 -9 -30 -29 -15 -56 49
-92 79 -45 119 -51 137 -23 11 18 22 21 83 21 89 0 339 21 715 59 298 30 536
48 711 54 l97 3 4 -96 c5 -115 27 -170 92 -233 46 -45 49 -57 13 -57 -11 0
-46 -25 -79 -55 -35 -32 -131 -98 -231 -157 -205 -120 -326 -195 -424 -260
-40 -26 -78 -48 -86 -48 -25 0 -329 126 -442 182 -105 53 -171 93 -613 362
-186 114 -192 119 -179 140 70 108 123 252 133 362 21 227 -112 402 -353 465
-92 24 -276 33 -373 18z m306 -94 c261 -50 377 -220 315 -464 -35 -139 -93
-245 -203 -372 -36 -42 -54 -56 -69 -52 -25 7 -49 -13 -49 -41 0 -37 -143
-118 -266 -151 -78 -21 -235 -22 -305 -1 -123 36 -226 128 -269 243 -32 85
-25 219 17 320 61 145 207 304 338 368 75 37 180 58 242 48 28 -5 39 -2 49 12
18 25 18 31 -6 55 -16 16 -33 20 -92 20 -82 0 -85 6 -7 19 85 14 220 12 305
-4z m3020 -124 c115 -54 174 -131 189 -247 9 -65 -15 -162 -57 -226 -104 -163
-360 -290 -555 -274 -133 11 -221 61 -257 148 -27 64 -21 185 14 289 36 109
55 136 145 204 100 77 144 95 237 95 90 0 108 5 108 32 0 19 4 20 58 14 31 -4
85 -19 118 -35z m-2791 -741 c3 -5 14 -10 24 -10 9 0 95 -48 191 -106 550
-336 617 -372 847 -463 l143 -57 -103 -74 c-56 -41 -170 -130 -254 -197 -84
-68 -157 -123 -162 -123 -16 0 -272 293 -545 625 l-255 310 47 51 c50 55 57
60 67 44z m80 -470 c231 -283 356 -429 458 -536 37 -39 67 -76 67 -82 0 -8
-211 -157 -277 -196 -13 -7 -145 247 -295 569 -151 322 -230 475 -256 496 -22
17 -24 22 -12 29 8 5 24 15 34 23 23 17 -6 48 281 -303z m1693 62 c-18 -21
-64 -74 -103 -118 -38 -44 -84 -97 -100 -118 l-31 -38 -73 33 -72 32 78 51
c122 78 317 196 326 196 5 0 -6 -17 -25 -38z m-375 -308 c45 -20 84 -37 86
-39 2 -2 -18 -39 -44 -82 -27 -43 -106 -192 -177 -331 -100 -195 -135 -253
-151 -257 -61 -13 -62 -12 -152 90 -49 55 -115 128 -148 163 -32 34 -57 66
-55 71 9 27 525 421 550 421 5 0 46 -16 91 -36z m1082 -38 l30 -13 -40 -11
c-22 -6 -61 -16 -87 -23 -55 -13 -83 -39 -73 -68 10 -32 38 -34 137 -7 51 15
113 26 139 26 25 0 51 6 57 13 9 8 49 12 126 12 107 0 114 -1 148 -27 21 -16
49 -53 65 -85 25 -53 28 -68 28 -166 0 -106 0 -107 -29 -130 -24 -19 -28 -28
-22 -51 8 -32 -27 -87 -100 -160 -124 -124 -253 -173 -377 -141 -70 18 -153
70 -192 121 l-27 35 36 39 c37 42 44 68 24 88 -19 19 -50 14 -79 -14 -26 -25
-28 -25 -38 -7 -5 11 -19 53 -31 94 -47 171 -5 383 87 441 73 44 162 58 218
34z m-1665 -553 c73 -81 128 -148 124 -150 -5 -1 -110 -21 -234 -43 -124 -23
-232 -43 -240 -45 -11 -4 -29 21 -62 83 l-47 88 157 107 c86 59 160 107 164
107 3 0 66 -66 138 -147z m1313 -58 c9 -20 17 -42 17 -50 0 -8 -133 -148 -296
-311 l-296 -297 -37 44 c-20 24 -104 123 -187 220 -83 97 -154 181 -158 187
-5 9 18 71 27 72 1 0 202 38 447 84 245 46 450 85 456 85 6 1 18 -15 27 -34z
m3272 0 c14 -13 25 -28 25 -33 0 -5 -27 -19 -60 -31 -64 -23 -86 -55 -60 -86
17 -21 30 -19 128 16 205 72 381 99 439 66 67 -37 103 -142 103 -295 0 -200
-53 -338 -179 -463 -224 -224 -534 -222 -685 4 -102 156 -116 370 -33 550 66
145 208 295 280 297 10 0 29 -11 42 -25z m-5045 -196 c0 -4 -18 -9 -39 -13
-22 -3 -46 -9 -55 -12 -10 -4 -16 -1 -16 8 0 7 -11 29 -24 48 l-23 34 40 39
40 38 38 -68 c21 -37 39 -71 39 -74z m-852 58 c-31 -12 -62 -27 -69 -34 -15
-15 -4 -59 16 -67 9 -3 70 12 136 34 209 70 356 97 438 79 131 -28 193 -183
141 -352 -18 -59 -22 -64 -44 -60 -17 4 -33 -3 -50 -20 -29 -30 -33 -49 -11
-70 12 -13 8 -21 -38 -64 -63 -60 -161 -127 -230 -158 -173 -79 -397 -75 -541
9 -160 94 -184 314 -55 503 98 143 211 221 319 222 l45 0 -57 -22z m1425 -330
c-70 -142 -133 -257 -139 -257 -7 0 -36 37 -65 83 -97 150 -229 371 -225 375
2 2 118 25 258 51 l253 48 23 -22 23 -22 -128 -256z m-463 76 c35 -60 87 -145
116 -190 30 -46 50 -83 46 -83 -12 0 -197 74 -274 109 -37 17 -76 31 -86 31
-18 0 -19 3 -6 58 8 31 14 80 14 109 l0 52 43 9 c83 19 80 21 147 -95z m736
12 c39 -44 119 -138 178 -208 l107 -128 -97 -104 c-53 -58 -100 -105 -103
-105 -8 0 -394 159 -399 164 -2 2 50 110 115 240 65 129 120 232 123 228 3 -4
38 -43 76 -87z m-852 -272 c44 -20 146 -60 224 -89 127 -46 176 -74 169 -95
-12 -36 -132 -279 -137 -279 -11 0 -178 212 -275 348 -48 67 -91 125 -96 128
-5 3 -9 9 -9 15 0 18 44 8 124 -28z m4651 -148 c18 -38 41 -81 52 -94 l20 -25
-71 -51 c-39 -28 -118 -89 -176 -136 -131 -106 -153 -121 -380 -259 -241 -146
-453 -287 -670 -445 -96 -70 -281 -198 -410 -285 -130 -87 -264 -181 -298
-209 -33 -28 -63 -51 -65 -51 -2 0 -22 14 -43 31 -22 18 -68 46 -104 63 -61
29 -72 31 -175 30 -85 0 -135 -6 -218 -27 -60 -15 -132 -27 -161 -27 -44 0
-64 -7 -129 -46 -42 -25 -77 -52 -77 -60 0 -19 -42 -94 -53 -94 -24 0 -94 89
-148 190 -77 142 -131 226 -287 448 -67 96 -122 176 -122 178 0 15 335 144
375 144 17 0 37 4 45 9 11 8 20 -1 41 -38 72 -125 210 -193 392 -192 50 0 119
7 152 16 217 57 431 235 493 410 9 28 24 60 33 73 38 53 455 208 839 310 408
109 984 235 1011 221 10 -5 28 -2 50 10 34 19 34 19 43 -3 5 -11 23 -52 41
-91z m-3358 -105 c134 -159 214 -262 209 -268 -3 -2 -31 6 -63 18 -65 26 -406
180 -412 186 -7 6 162 175 171 172 4 -2 47 -50 95 -108z m838 93 c12 -4 -11
-16 -71 -38 -49 -18 -115 -44 -147 -58 -55 -25 -58 -28 -55 -59 4 -48 30 -47
161 6 187 76 305 93 404 60 131 -44 183 -144 153 -297 -20 -103 -64 -183 -144
-262 -217 -212 -513 -263 -699 -121 -37 28 -81 103 -90 152 -5 26 -2 32 26 47
24 13 44 16 78 11 41 -6 48 -4 58 14 18 34 2 53 -76 89 -43 20 -73 40 -73 49
0 35 43 134 86 197 53 77 147 167 208 197 41 20 144 28 181 13z m-1440 -109
c88 -37 163 -69 167 -73 3 -3 -24 -39 -61 -79 l-67 -74 -55 74 c-97 128 -159
218 -151 218 4 0 79 -30 167 -66z m-126 -154 l102 -140 -77 -90 -77 -91 -25
23 c-13 13 -56 58 -94 101 l-71 78 63 134 c35 74 66 132 70 130 4 -2 53 -68
109 -145z m616 -63 c116 -52 245 -108 288 -123 l78 -29 -3 -59 -3 -59 -150
-57 c-82 -31 -187 -73 -233 -92 l-82 -36 -47 61 c-26 34 -92 118 -145 185 -63
80 -95 129 -90 137 16 29 158 173 167 170 6 -1 105 -45 220 -98z m-832 -455
c-59 -70 -169 -197 -243 -282 -74 -85 -151 -174 -169 -197 -19 -24 -36 -42
-38 -40 -1 2 10 28 26 58 16 30 95 198 174 374 79 176 153 337 163 359 l19 39
87 -93 88 -92 -107 -126z m488 163 c52 -66 109 -139 127 -162 l33 -42 -81 -41
-82 -41 -105 98 c-58 54 -116 112 -129 129 l-24 31 73 85 c53 63 75 83 83 74
6 -6 53 -65 105 -131z m-203 -218 l113 -113 -88 -49 c-147 -81 -448 -261 -590
-351 -74 -48 -137 -84 -140 -80 -9 9 59 93 252 316 98 113 212 247 254 297 42
51 78 93 81 93 3 0 56 -51 118 -113z m654 -397 c73 -106 228 -368 228 -385 0
-20 -36 16 -176 177 -87 100 -223 248 -301 328 l-142 147 76 36 76 36 76 -107
c42 -59 116 -163 163 -232z m-79 -195 c173 -199 240 -267 340 -348 87 -71 102
-88 70 -82 -10 2 -76 16 -147 30 -72 15 -231 56 -355 91 -209 61 -557 146
-918 225 -84 19 -153 36 -153 39 0 11 354 226 640 389 l125 71 138 -138 c76
-75 193 -200 260 -277z m-1660 -25 c139 -20 243 -95 300 -218 74 -158 35 -391
-92 -549 -82 -101 -237 -198 -379 -234 -104 -26 -238 -26 -328 2 -56 17 -77
31 -124 78 -67 66 -94 128 -110 255 -28 205 39 417 173 553 86 89 135 100 204
47 17 -13 38 -24 46 -24 23 0 40 27 35 55 -5 21 -1 25 26 30 95 15 167 17 249
5z m2929 -82 c152 -71 248 -236 236 -408 -16 -214 -233 -393 -478 -392 -236 0
-434 157 -481 380 -13 65 -7 91 17 68 8 -9 23 -16 31 -16 24 0 53 30 53 55 0
22 -49 107 -69 119 -13 8 17 72 45 97 11 9 56 28 101 43 81 27 82 27 158 11
89 -18 115 -11 115 35 0 25 4 29 33 33 84 12 182 2 239 -25z"/>
<path d="M11692 6107 c-12 -13 -22 -29 -22 -37 0 -8 20 -66 45 -129 175 -453
281 -769 264 -786 -3 -2 -42 59 -88 135 -83 138 -209 315 -268 378 -36 37 -73
43 -73 12 0 -23 180 -293 319 -479 95 -128 153 -230 165 -291 13 -62 27 -88
57 -101 26 -10 34 -9 57 8 24 18 28 28 34 104 8 113 10 570 1 692 -5 85 -8 97
-25 97 -10 0 -18 -1 -18 -2 0 -2 -14 -72 -30 -157 -17 -85 -30 -157 -30 -160
-1 -3 -27 62 -60 144 -134 343 -231 571 -247 583 -26 19 -57 14 -81 -11z"/>
<path d="M13524 4285 c-21 -32 -33 -88 -34 -150 0 -43 -4 -54 -30 -77 -38 -33
-38 -53 1 -89 28 -26 31 -34 26 -71 -6 -46 -35 -91 -62 -97 -30 -5 -53 38 -81
157 -26 109 -42 142 -67 142 -28 -1 -39 -22 -62 -116 -26 -105 -71 -208 -86
-199 -19 12 -39 112 -45 227 -6 101 -10 120 -26 129 -24 13 -55 -4 -63 -33
-13 -45 -47 -128 -54 -128 -3 0 -16 16 -28 34 -29 44 -98 92 -155 106 -62 16
-113 -5 -133 -54 -8 -20 -15 -44 -15 -54 0 -17 -12 -21 -75 -31 -120 -18 -110
-25 -107 83 4 118 -9 173 -43 182 -14 3 -32 1 -39 -6 -21 -17 -36 -99 -36
-199 0 -67 -4 -92 -15 -101 -20 -16 -19 -49 1 -72 16 -16 16 -21 0 -61 -9 -24
-28 -55 -41 -67 -25 -24 -26 -24 -45 -4 -10 10 -33 69 -50 129 -37 129 -51
155 -85 155 -31 0 -35 -8 -51 -102 -20 -114 -77 -219 -105 -191 -5 5 -21 70
-34 144 -30 160 -40 187 -72 195 -19 5 -32 -1 -56 -24 -52 -49 -71 -55 -93
-30 -25 28 -92 58 -130 58 -16 0 -40 -9 -51 -20 -36 -33 -63 -122 -62 -203 1
-106 25 -157 92 -197 44 -26 109 -24 152 4 53 35 87 147 67 219 -10 35 -9 38
19 52 32 17 28 25 49 -90 21 -112 39 -163 66 -184 59 -46 137 -13 188 79 l30
56 30 -60 c55 -108 133 -124 209 -45 l37 40 34 -35 c38 -41 62 -45 100 -15 42
33 30 83 -20 84 -22 0 -30 7 -40 35 -7 19 -13 47 -13 61 -1 26 1 27 86 38 48
6 89 9 91 6 2 -2 8 -59 13 -127 8 -101 30 -229 55 -321 8 -27 40 -40 65 -26
21 11 22 16 15 133 l-6 121 65 29 c83 37 140 86 165 142 19 45 40 51 40 14 0
-32 37 -121 61 -146 15 -16 34 -24 57 -24 44 0 101 56 127 125 l18 46 19 -43
c48 -107 141 -139 212 -73 l25 23 22 -24 c12 -13 33 -24 45 -24 32 0 84 47 84
76 0 30 -32 49 -60 34 -16 -9 -20 -6 -28 22 -5 20 -5 59 2 99 l10 66 84 19
c100 22 125 45 94 84 -19 23 -33 23 -149 -6 -23 -6 -23 -5 -23 83 0 56 -4 93
-12 101 -20 20 -56 14 -74 -13z m-653 -367 c10 -26 9 -32 -12 -54 -36 -39
-119 -97 -127 -90 -3 4 -8 38 -10 76 -4 62 -2 70 19 87 12 10 32 27 43 39 l21
20 27 -24 c14 -13 32 -37 39 -54z m-1280 -16 c38 -7 44 -11 52 -42 11 -44 3
-97 -19 -121 -22 -24 -66 -24 -87 -1 -20 22 -33 91 -29 145 3 32 6 37 22 32
10 -3 37 -9 61 -13z"/>
<path d="M10840 4105 c-7 -8 -23 -15 -36 -15 -29 0 -58 -41 -49 -70 4 -12 -5
-50 -24 -98 -31 -81 -66 -280 -56 -319 7 -31 29 -35 136 -23 52 5 138 10 192
10 134 0 181 27 162 93 -12 37 -94 165 -172 264 -44 57 -73 103 -73 117 0 14
-3 31 -6 40 -8 20 -57 21 -74 1z m77 -203 c21 -26 64 -85 95 -132 l57 -85 -62
-6 c-34 -4 -101 -7 -149 -8 l-88 -1 0 28 c0 44 27 156 50 210 26 61 43 60 97
-6z"/>
<path d="M9470 3995 c-21 -25 -6 -48 58 -93 35 -24 62 -46 60 -48 -13 -13
-1165 -93 -1448 -100 -135 -4 -251 -11 -257 -17 -28 -21 -14 -57 34 -87 55
-35 60 -36 87 -11 18 17 42 20 191 26 184 7 736 44 1120 75 131 10 240 18 242
17 4 -5 -92 -102 -126 -127 -29 -22 -33 -30 -28 -52 16 -64 85 -31 202 97 49
52 96 95 106 95 20 0 49 36 44 54 -2 6 -6 23 -9 38 -5 22 -20 34 -69 58 -34
16 -80 43 -102 60 -44 32 -86 38 -105 15z"/>
</g>
</svg>
