<?xml version="1.0" standalone="no"?>
<!DOCTYPE svg PUBLIC "-//W3C//DTD SVG 20010904//EN"
 "http://www.w3.org/TR/2001/REC-SVG-20010904/DTD/svg10.dtd">
<svg version="1.0" xmlns="http://www.w3.org/2000/svg"
 width="481.256280pt" height="400.000000pt" viewBox="0 0 481.256280 400.000000"
 preserveAspectRatio="xMidYMid meet">
<metadata>
Created by potrace 1.14, written by Peter Selinger 2001-2017
</metadata>
<g transform="translate(-17.794063,420.403859) scale(0.047451,-0.047451)"
fill="#444444" stroke="none">
<path d="M1888 7942 l-1487 -917 -1 -305 0 -305 1491 -895 c820 -492 1500
-899 1511 -904 13 -7 26 -6 40 3 12 7 412 246 891 532 701 418 872 516 881
505 6 -7 269 -165 584 -351 315 -186 571 -339 570 -340 -2 -1 -201 -114 -443
-250 -242 -136 -476 -269 -520 -295 -44 -26 -246 -138 -450 -250 -203 -111
-383 -211 -399 -223 -17 -11 -284 -164 -595 -339 -540 -304 -567 -319 -592
-306 -63 31 -2899 1653 -2899 1658 1 3 222 141 493 308 647 398 617 378 617
401 0 10 -7 22 -16 25 -10 4 -226 -124 -602 -357 l-587 -362 0 -298 c0 -165 2
-302 5 -306 5 -8 2985 -1800 3005 -1808 6 -2 405 231 886 518 480 287 879 522
884 522 14 0 1299 -761 1302 -771 2 -7 -640 -371 -1372 -777 -238 -132 -439
-245 -446 -251 -45 -37 -1144 -645 -1158 -641 -12 3 -2904 1649 -2918 1661 -1
0 246 153 547 339 302 187 554 345 561 353 15 18 4 44 -18 44 -10 0 -279 -162
-598 -359 l-580 -358 -3 -300 c-2 -276 -1 -301 15 -315 29 -25 2990 -1798
3003 -1798 6 0 700 410 1541 912 l1529 912 -2 299 -3 299 -660 389 c-363 215
-664 394 -668 398 -4 4 271 174 612 377 l621 369 0 302 0 301 -44 25 c-135 76
-1156 682 -1156 686 0 4 258 159 572 346 314 187 591 352 615 367 l43 28 -2
296 -3 296 -1548 914 c-851 503 -1551 914 -1555 914 -4 0 -676 -413 -1494
-918z m3006 -41 c823 -486 1493 -888 1489 -892 -4 -4 -215 -124 -468 -267
-253 -142 -512 -288 -575 -324 -63 -36 -232 -131 -375 -210 -143 -80 -537
-301 -875 -493 -338 -191 -629 -354 -646 -363 l-32 -15 -1460 834 c-804 458
-1459 836 -1456 838 17 18 2881 1780 2890 1778 6 -1 684 -400 1508 -886z
m1536 -1185 l0 -244 -1481 -883 c-815 -486 -1486 -885 -1490 -887 -5 -2 -9
128 -9 290 l0 293 665 375 c365 206 875 492 1132 635 258 143 479 268 493 277
26 17 682 388 687 388 2 0 3 -110 3 -244z m-4445 -634 l1400 -800 3 -291 c1
-160 0 -291 -4 -291 -3 0 -662 394 -1465 876 l-1459 875 0 250 0 251 63 -35
c34 -20 692 -395 1462 -835z m4408 -1663 c-11 -9 -2963 -1769 -2968 -1769 -3
0 -5 132 -5 293 l0 292 632 355 c347 195 657 370 687 388 31 19 256 144 501
279 245 136 456 254 470 264 14 10 174 101 355 203 l330 186 3 -242 c1 -133
-1 -245 -5 -249z m-4485 -354 l1452 -829 0 -294 0 -294 -22 14 c-13 8 -670
403 -1460 877 l-1438 862 0 250 c0 138 3 248 8 246 4 -2 661 -377 1460 -832z
m4580 -1781 c-15 -13 -2933 -1753 -2955 -1761 -11 -4 -13 42 -11 288 l3 292
640 361 c352 199 672 380 710 402 39 23 252 142 475 264 223 122 421 234 442
247 20 13 186 109 370 212 l333 188 3 -240 c2 -185 -1 -244 -10 -253z m-4468
-362 l1435 -820 3 -295 2 -295 -1462 878 -1463 878 -3 252 -2 251 27 -15 c16
-8 674 -383 1463 -834z"/>
<path d="M8799 7170 c-39 -23 -78 -172 -79 -296 0 -67 -25 -83 -33 -22 -9 68
-61 121 -128 133 -36 7 -37 6 -52 -37 -14 -42 -15 -42 -25 -18 -24 60 -81 87
-157 75 -40 -5 -47 -11 -62 -43 -9 -20 -19 -77 -22 -127 -5 -75 -9 -90 -23
-93 -11 -2 -22 6 -29 22 -10 20 -8 32 5 61 24 49 14 106 -26 145 -28 29 -51
35 -108 30 -119 -10 -225 -191 -160 -273 44 -55 125 -56 196 -2 19 14 34 22
34 17 0 -23 54 -62 85 -62 l33 0 4 -100 c4 -107 17 -137 52 -124 17 6 18 17
11 124 -3 64 -4 133 0 152 6 32 11 37 43 43 21 4 55 15 78 25 l41 18 -5 -170
c-5 -180 -1 -199 40 -177 16 8 18 24 18 119 0 65 4 111 10 115 6 4 43 15 83
25 40 10 81 21 92 24 16 5 24 -2 40 -36 36 -77 106 -78 154 -2 l29 45 28 -36
c39 -51 60 -60 90 -40 33 21 30 60 -4 59 -16 0 -33 13 -58 48 -49 66 -71 65
-115 -9 -19 -31 -40 -59 -46 -61 -7 -2 -20 12 -29 31 -16 34 -16 34 20 81 42
56 65 126 72 221 6 86 -8 119 -51 122 -17 2 -37 -1 -46 -7z m31 -165 c-7 -33
-20 -76 -31 -95 -17 -32 -18 -33 -18 -10 0 44 26 176 40 201 l14 24 3 -30 c2
-16 -2 -56 -8 -90z m-420 -75 c23 -23 26 -53 8 -68 -13 -10 -90 -34 -94 -29
-2 2 0 28 3 60 6 55 7 57 34 57 16 0 38 -9 49 -20z m-276 -12 c9 -14 6 -21
-10 -33 -12 -8 -25 -27 -29 -42 -10 -44 -34 -73 -69 -88 -98 -41 -116 68 -25
150 35 31 46 36 81 33 26 -2 45 -10 52 -20z m481 -39 c31 -60 11 -99 -50 -99
-27 0 -27 1 -20 53 13 91 39 108 70 46z"/>
<path d="M9750 7114 c-6 -14 -10 -56 -10 -94 0 -63 -2 -71 -30 -98 -32 -33
-35 -46 -20 -86 6 -16 17 -26 30 -26 15 0 20 -7 20 -27 0 -27 -3 -28 -51 -30
-47 -2 -55 1 -99 39 -46 40 -47 41 -37 79 18 75 -15 118 -75 97 -55 -19 -127
-128 -128 -193 -1 -48 -13 -58 -68 -59 -84 -2 -115 50 -76 127 18 36 53 77 65
77 5 0 15 -13 24 -30 30 -57 75 -23 50 38 -27 63 -94 67 -148 9 -42 -45 -67
-104 -67 -161 0 -43 4 -53 35 -81 38 -36 93 -51 147 -40 77 16 125 39 165 77
l42 41 45 -41 c38 -35 53 -42 85 -42 55 0 89 15 94 42 3 18 5 16 6 -8 1 -37
21 -57 45 -48 15 6 17 18 10 105 -8 118 0 124 71 56 34 -33 45 -51 45 -74 0
-35 24 -50 47 -31 21 17 11 78 -18 119 -25 36 -104 89 -132 89 -16 0 -18 5
-13 28 8 31 7 152 0 164 -11 18 -45 7 -54 -18z m-255 -226 c-9 -31 -53 -105
-66 -113 -19 -12 -20 2 -5 39 30 72 88 132 71 74z"/>
<path d="M9903 7113 c-32 -13 0 -133 36 -133 30 0 35 16 21 68 -18 66 -28 77
-57 65z"/>
<path d="M8987 7043 c-22 -21 17 -83 51 -83 29 0 33 23 11 59 -17 29 -47 40
-62 24z"/>
<path d="M10338 6995 c-15 -8 -38 -33 -51 -55 l-23 -40 -23 30 c-23 31 -49 38
-69 18 -9 -9 -15 -9 -24 0 -19 19 -63 14 -86 -11 -30 -32 -46 -114 -32 -166
11 -43 50 -81 82 -81 31 0 76 52 83 96 12 74 22 84 29 29 13 -99 21 -128 39
-139 31 -19 45 13 36 80 -9 64 3 103 47 162 25 32 27 33 46 15 29 -26 47 -66
59 -128 8 -45 7 -59 -6 -79 -13 -19 -14 -29 -5 -45 18 -34 49 -26 67 17 32 76
-14 237 -83 291 -31 25 -49 26 -86 6z m-217 -160 c22 -7 24 -22 9 -61 -9 -24
-13 -25 -25 -13 -15 16 -19 37 -15 89 2 24 4 28 7 13 2 -12 13 -25 24 -28z"/>
<path d="M7323 6843 c-26 -10 -11 -43 45 -97 l57 -56 -406 0 c-366 0 -407 -2
-413 -16 -16 -43 -4 -44 418 -44 l401 -1 -45 -39 c-37 -32 -43 -42 -34 -56 6
-10 15 -19 21 -21 17 -6 228 170 231 193 2 17 -16 30 -120 78 -143 67 -139 66
-155 59z"/>
<path d="M7676 4920 c-73 -87 -58 -279 26 -329 49 -30 82 -35 122 -16 51 24
78 86 79 178 1 126 -58 215 -124 190 -17 -7 -31 -7 -35 -2 -11 18 -43 8 -68
-21z m162 -148 c6 -109 -25 -164 -80 -143 -56 21 -81 97 -63 188 7 35 8 36 14
13 5 -18 14 -25 31 -25 22 0 25 5 28 37 2 25 9 38 20 40 29 6 47 -32 50 -110z"/>
<path d="M7989 4912 c-75 -69 -63 -145 36 -227 25 -20 45 -40 45 -45 0 -5 -17
-12 -37 -16 -69 -12 -95 -41 -56 -62 20 -12 112 8 148 32 43 28 33 56 -50 130
-82 74 -90 94 -54 140 25 31 64 34 79 6 21 -40 68 -15 53 28 -13 37 -36 52
-80 52 -37 0 -50 -6 -84 -38z"/>
<path d="M7139 4874 c-14 -17 -2 -33 61 -76 24 -16 8 -17 -313 -17 -374 -1
-410 -7 -361 -56 14 -14 55 -15 383 -10 l366 6 -51 -31 c-61 -36 -78 -54 -70
-75 10 -26 37 -16 156 54 156 92 156 96 -9 167 -69 30 -130 54 -137 54 -6 0
-18 -7 -25 -16z"/>
<path d="M8610 2914 c-6 -14 -10 -66 -10 -115 0 -74 -3 -89 -15 -89 -55 0
-119 -85 -131 -173 -7 -47 -19 -57 -71 -57 -18 0 -23 6 -23 25 0 42 -22 74
-66 95 -41 20 -43 24 -46 68 -3 42 -5 47 -28 47 -35 0 -52 -38 -45 -102 7 -55
-13 -113 -38 -113 -23 0 -57 74 -57 124 0 52 -25 86 -64 86 -58 0 -142 -98
-153 -179 -3 -23 -9 -41 -14 -41 -5 0 -31 29 -59 64 -28 35 -58 67 -67 70 -24
10 -58 -18 -91 -75 l-30 -53 -7 47 c-4 26 -4 62 0 79 8 39 8 115 0 176 -7 46
-26 62 -50 42 -12 -10 -15 -41 -15 -151 0 -151 12 -227 40 -261 28 -35 44 -21
131 112 8 12 13 10 32 -15 42 -56 86 -93 121 -99 48 -9 108 10 154 50 l38 32
28 -34 c21 -26 34 -34 60 -34 38 0 79 37 97 88 11 31 11 31 40 17 24 -13 29
-22 29 -55 0 -59 21 -74 94 -66 184 20 188 21 212 51 l23 29 10 -27 c14 -36
31 -41 76 -23 29 12 36 20 33 38 -2 17 -10 23 -28 23 -31 0 -42 24 -30 66 8
27 6 42 -11 77 -19 39 -21 54 -15 146 4 56 4 109 0 119 -10 26 -43 21 -54 -9z
m-590 -288 c0 -26 -90 -128 -97 -110 -6 18 14 59 47 98 37 42 50 45 50 12z
m570 -3 c0 -16 -5 -45 -11 -65 -9 -33 -14 -38 -40 -38 -27 0 -29 2 -23 28 8
34 22 62 42 85 22 24 32 21 32 -10z"/>
<path d="M9786 2700 l-43 -40 -28 30 c-44 46 -71 40 -100 -22 -23 -49 -25 -51
-25 -22 0 39 -21 67 -46 62 -15 -3 -20 -15 -26 -68 -12 -112 -17 -130 -37
-130 -26 0 -40 21 -56 80 -15 59 -37 87 -78 105 -41 17 -72 8 -106 -31 -31
-35 -48 -104 -37 -148 9 -37 55 -86 80 -86 28 0 59 28 75 69 l13 31 21 -28
c47 -60 87 -73 129 -42 29 22 29 22 35 2 6 -25 31 -36 48 -22 7 6 19 34 25 63
6 29 19 74 27 100 l15 49 20 -21 c10 -12 24 -19 30 -15 7 4 8 -7 3 -35 -16
-96 37 -150 154 -159 87 -6 134 14 162 70 26 51 22 83 -10 83 -18 0 -26 -8
-35 -35 -17 -52 -79 -74 -155 -53 -22 6 -21 7 20 27 59 29 82 64 83 125 1 39
-4 55 -23 75 -38 40 -81 35 -135 -14z m98 -37 c11 -29 -13 -80 -44 -93 -15 -6
-35 -10 -43 -8 -13 3 -14 8 -2 43 22 61 75 96 89 58z m-558 -64 c-4 -23 -13
-57 -22 -77 -15 -35 -16 -36 -30 -18 -29 40 -3 136 37 136 20 0 21 -4 15 -41z"/>
<path d="M9114 2715 c-4 -9 -1 -49 6 -90 15 -87 7 -153 -16 -134 -8 6 -30 38
-49 70 -36 59 -66 79 -89 60 -7 -6 -23 -33 -36 -61 -13 -27 -27 -50 -32 -50
-16 0 -28 51 -22 90 8 50 -11 110 -36 110 -30 0 -43 -36 -38 -105 8 -95 50
-165 100 -165 24 0 34 9 60 50 l31 49 30 -42 c57 -81 111 -101 143 -52 22 34
28 144 12 220 -11 50 -17 61 -36 63 -13 2 -25 -3 -28 -13z"/>
<path d="M7070 2641 c-8 -16 -5 -24 20 -43 17 -13 43 -33 58 -46 l27 -23 -276
5 c-226 5 -279 3 -288 -8 -6 -7 -9 -20 -6 -28 7 -18 111 -43 128 -31 7 4 98 7
203 5 l190 -4 -34 -36 c-18 -20 -40 -49 -48 -64 -12 -23 -12 -29 1 -42 21 -20
34 -13 73 40 18 25 56 61 83 81 50 36 69 59 69 87 0 16 -155 126 -177 126 -7
0 -17 -9 -23 -19z"/>
</g>
</svg>
