<?xml version="1.0" standalone="no"?>
<!DOCTYPE svg PUBLIC "-//W3C//DTD SVG 20010904//EN"
 "http://www.w3.org/TR/2001/REC-SVG-20010904/DTD/svg10.dtd">
<svg version="1.0" xmlns="http://www.w3.org/2000/svg"
 width="768.592111pt" height="400.000000pt" viewBox="0 0 768.592111 400.000000"
 preserveAspectRatio="xMidYMid meet">
<metadata>
Created by potrace 1.14, written by Peter Selinger 2001-2017
</metadata>
<g transform="translate(-24.580909,447.396729) scale(0.048872,-0.048872)"
fill="#444444" stroke="none">
<path d="M11007 9149 c-20 -12 -23 -29 -3 -29 17 0 40 26 29 33 -5 3 -16 1
-26 -4z"/>
<path d="M6379 7682 c-55 -49 -41 -107 49 -212 l30 -35 -35 -37 c-42 -43 -37
-63 15 -55 53 9 72 32 73 91 1 28 6 -17 11 -101 9 -166 18 -206 46 -201 19 4
19 15 4 146 l-8 73 32 15 c97 46 91 174 -7 174 -51 0 -77 -14 -90 -47 l-10
-26 -37 43 c-79 92 -86 113 -49 148 45 43 76 23 77 -47 0 -17 3 -22 10 -15 14
14 -3 93 -22 105 -25 16 -58 9 -89 -19z m232 -182 c10 -6 19 -19 19 -30 0 -20
-55 -89 -63 -80 -2 3 -7 31 -11 63 -6 53 -5 57 15 57 11 0 29 -5 40 -10z"/>
<path d="M1124 7630 c-47 -19 -104 -112 -104 -170 1 -39 40 -98 84 -127 44
-29 46 -32 27 -42 -28 -15 -39 -14 -68 9 -32 25 -43 25 -43 1 0 -21 53 -71 75
-71 27 0 125 50 125 65 0 8 -29 33 -64 55 -98 62 -116 121 -64 208 33 54 78
66 78 21 0 -10 5 -19 10 -19 16 0 12 47 -6 64 -17 18 -20 18 -50 6z"/>
<path d="M4097 7599 c-16 -9 -47 -59 -47 -75 0 -3 8 0 17 7 15 12 16 12 11 -8
-3 -12 0 -30 7 -39 11 -16 14 -16 39 9 31 31 37 100 10 111 -19 7 -15 8 -37
-5z"/>
<path d="M7076 7588 c-3 -13 -6 -55 -6 -94 0 -64 -2 -73 -29 -98 l-28 -27 -6
39 c-4 22 -17 48 -32 62 -18 17 -25 34 -25 62 0 43 -20 59 -46 37 -28 -23 -36
-59 -19 -85 13 -21 13 -28 2 -56 -8 -18 -21 -39 -29 -46 -18 -14 -22 -4 -34
87 -7 51 -30 91 -54 91 -43 0 -95 -135 -72 -185 17 -36 40 -42 65 -17 l21 22
27 -33 c27 -31 28 -31 55 -17 15 8 39 37 52 63 14 26 28 45 31 41 3 -3 8 -31
11 -62 4 -50 8 -57 28 -60 15 -2 32 7 51 27 28 29 29 30 34 10 5 -17 11 -20
30 -15 14 3 41 -1 61 -9 39 -17 102 -20 110 -6 12 18 -7 41 -33 41 -75 1 -86
21 -50 92 14 27 17 44 10 51 -16 16 -39 1 -60 -40 l-19 -38 -6 35 c-3 19 -5
44 -4 55 4 55 -3 95 -16 95 -7 0 -16 -10 -20 -22z"/>
<path d="M7597 7591 c-90 -59 -121 -208 -56 -267 22 -20 89 -25 122 -10 14 7
17 3 17 -22 0 -17 7 -38 16 -46 32 -32 37 -19 31 77 -7 110 -13 127 -39 127
-16 0 -19 5 -14 23 3 12 9 42 13 66 5 36 3 46 -12 57 -25 19 -45 17 -78 -5z
m73 -43 c0 -13 -6 -45 -13 -73 l-13 -50 -47 -3 c-48 -3 -48 -3 -41 25 10 40
23 64 52 96 32 34 62 36 62 5z m-42 -174 c37 -16 37 -16 13 -27 -25 -12 -70 6
-79 31 -5 17 21 15 66 -4z"/>
<path d="M8321 7593 c-5 -10 -12 -51 -16 -91 -5 -56 -11 -75 -26 -83 -15 -7
-19 -6 -19 4 0 8 -18 31 -40 51 -22 20 -40 40 -40 44 0 5 -6 17 -14 27 -13 18
-15 16 -36 -28 -17 -35 -21 -60 -18 -104 3 -57 2 -58 -25 -61 -28 -3 -30 0
-41 51 -8 34 -33 35 -42 2 -3 -13 -12 -29 -20 -36 -11 -9 -14 -7 -14 8 0 28
36 71 63 75 14 2 22 10 22 23 0 18 -8 20 -65 23 -51 1 -71 -2 -91 -17 l-26
-20 -22 25 c-11 13 -27 24 -35 24 -19 0 -46 -39 -46 -67 0 -35 18 -37 22 -1 2
17 8 33 14 35 19 6 35 -48 25 -84 -11 -37 -5 -69 15 -77 23 -9 45 23 42 61 -2
29 4 41 31 65 41 37 48 31 21 -15 -40 -67 -11 -123 51 -100 25 10 35 9 54 -3
14 -9 33 -12 49 -8 26 6 26 6 26 -58 0 -72 16 -105 45 -94 16 6 17 16 12 81
l-5 74 34 10 c19 5 48 24 66 42 l33 32 10 -41 c15 -60 29 -71 58 -44 27 26 37
28 37 8 0 -8 11 -27 24 -42 23 -27 24 -27 49 -11 14 9 28 26 32 37 3 11 13 20
20 20 8 0 23 16 33 36 l18 36 29 -39 c37 -50 54 -63 81 -63 31 0 41 20 18 33
-22 12 -70 62 -91 94 -12 18 -12 25 -1 42 7 12 18 21 25 21 16 0 17 26 1 36
-6 4 -23 -6 -39 -24 l-28 -31 -16 25 c-8 13 -22 24 -30 24 -20 0 -19 -6 6 -47
21 -33 21 -36 4 -71 -15 -33 -71 -90 -79 -81 -1 2 -9 22 -17 43 -19 51 -41 66
-67 43 -39 -36 -43 15 -7 87 27 54 31 86 13 104 -18 18 -56 15 -67 -5z m45
-64 l-14 -34 -1 36 c-1 39 7 55 21 41 5 -5 3 -24 -6 -43z m-139 -132 c-2 -6
-13 -14 -25 -18 -20 -8 -22 -5 -22 33 l0 41 25 -23 c14 -13 24 -28 22 -33z"/>
<path d="M1890 7585 c-8 -10 -15 -50 -17 -103 -5 -111 -9 -127 -35 -152 -31
-29 -40 -25 -33 14 10 48 -2 76 -38 91 -28 12 -31 17 -29 50 4 40 -11 65 -39
65 -41 0 -65 -82 -33 -115 19 -19 13 -52 -16 -86 -17 -21 -21 -22 -30 -9 -5 8
-10 37 -10 63 0 40 -4 50 -19 54 -11 3 -22 11 -25 19 -9 23 -46 16 -76 -14
-47 -48 -65 -145 -32 -175 26 -24 52 -21 84 10 l28 27 16 -22 c34 -49 96 -18
126 64 8 22 18 34 28 32 15 -3 16 -17 8 -98 -3 -33 -1 -35 29 -38 18 -2 43 4
58 14 24 16 26 16 39 -1 8 -12 20 -16 34 -12 12 3 24 1 27 -3 10 -17 89 -21
130 -8 29 9 41 19 43 36 4 25 -23 41 -41 23 -13 -13 -93 -15 -101 -3 -3 5 9
34 25 66 52 99 18 130 -39 36 l-34 -55 7 75 c13 130 12 164 -6 168 -9 1 -22
-4 -29 -13z m-333 -166 c-6 -43 -41 -99 -63 -99 -27 0 -8 91 27 128 27 30 42
18 36 -29z"/>
<path d="M2629 7557 c-30 -20 -34 -29 -37 -70 -3 -47 -2 -50 55 -105 l58 -57
-22 -22 c-49 -48 -14 -72 72 -51 55 14 68 37 40 68 -16 18 -15 21 26 70 l44
50 8 -72 c10 -90 31 -136 65 -145 35 -8 53 6 82 65 16 33 31 51 44 51 18 1 18
-15 1 -61 -3 -7 1 -22 9 -33 18 -25 77 -25 128 -1 28 14 41 15 57 7 42 -23
118 -6 151 34 12 15 9 16 -38 9 -28 -3 -63 -4 -77 0 -21 5 -24 10 -16 25 16
29 30 100 24 122 -4 15 -12 19 -31 17 -38 -5 -63 -46 -64 -106 0 -58 -10 -70
-64 -79 -34 -6 -37 -4 -29 13 5 10 9 32 9 49 1 24 -4 30 -31 38 -31 9 -32 11
-30 66 2 49 0 56 -18 59 -26 4 -64 -36 -67 -70 -1 -15 4 -37 11 -51 11 -21 10
-30 -8 -66 -12 -22 -25 -41 -30 -41 -16 0 -31 79 -31 167 l0 90 108 7 c265 17
289 36 44 36 -178 0 -192 -3 -192 -47 0 -15 -24 -48 -67 -94 l-68 -71 -47 37
c-79 60 -94 115 -38 145 38 20 50 13 50 -31 0 -24 4 -38 10 -34 6 3 10 24 10
46 0 33 -4 41 -26 49 -35 13 -36 13 -75 -13z"/>
<path d="M10433 7485 c-28 -20 -47 -77 -39 -120 4 -18 18 -50 32 -71 21 -31
24 -42 15 -56 -19 -31 -13 -48 17 -48 66 0 97 27 67 60 -14 15 -13 18 3 33 10
10 20 17 23 17 2 0 4 -63 4 -140 0 -117 3 -142 17 -156 9 -9 24 -14 32 -11 14
5 15 16 9 64 -4 32 -8 80 -8 107 0 47 1 50 32 58 61 16 81 83 43 145 -21 35
-58 50 -85 36 -9 -5 -33 -31 -53 -58 -20 -27 -42 -50 -48 -52 -19 -6 -54 61
-54 104 0 43 21 80 38 69 7 -4 12 -18 12 -32 0 -13 5 -24 10 -24 11 0 14 49 4
74 -8 20 -43 21 -71 1z m211 -127 c23 -33 20 -71 -9 -98 l-25 -23 0 34 c0 19
-4 51 -9 72 -8 32 -7 37 9 37 11 0 26 -10 34 -22z"/>
<path d="M11595 7471 c-67 -28 -79 -105 -28 -169 l32 -40 -24 -16 c-23 -15
-35 -46 -17 -46 36 1 108 29 110 43 2 9 -17 41 -42 71 -47 55 -53 73 -36 107
16 29 27 23 22 -11 -7 -45 15 -36 23 10 9 56 1 67 -40 51z"/>
<path d="M11812 7473 c-31 -12 -121 -177 -122 -223 0 -62 69 -97 131 -66 42
21 42 21 35 -9 -5 -20 -3 -25 13 -25 32 0 47 27 33 62 -9 24 -8 35 3 52 34 51
30 161 -6 197 -18 18 -58 24 -87 12z m72 -49 c10 -27 7 -73 -8 -109 -8 -19
-18 -35 -21 -35 -9 0 -45 82 -45 103 0 9 6 16 12 15 7 -2 14 7 16 20 4 26 37
30 46 6z m-72 -186 c-2 -5 -19 -8 -38 -8 -31 0 -34 3 -34 29 0 15 5 42 11 59
l11 32 27 -53 c15 -28 25 -55 23 -59z"/>
<path d="M14816 7448 c-4 -18 -7 -62 -9 -97 -2 -55 -5 -66 -27 -82 -14 -9 -34
-20 -45 -23 -19 -5 -21 -2 -17 29 4 29 0 36 -21 46 -22 10 -25 16 -20 45 4 26
2 35 -11 40 -29 11 -56 -24 -54 -70 1 -41 -24 -106 -42 -106 -5 0 -14 19 -20
43 -30 114 -46 130 -99 103 -41 -22 -73 -70 -79 -122 -4 -40 -3 -44 24 -54 31
-12 78 2 93 27 6 12 13 7 29 -21 33 -56 80 -44 120 29 11 20 11 20 12 -1 0
-37 25 -49 73 -35 23 7 50 20 60 29 16 14 19 14 27 2 6 -8 10 -21 10 -27 0
-16 46 -17 55 -2 5 7 14 4 26 -7 10 -9 41 -19 69 -22 40 -4 51 -1 56 12 9 24
-8 38 -53 45 -35 6 -38 9 -35 36 2 17 12 49 23 72 38 79 -6 88 -54 11 l-32
-53 -5 90 c-5 83 -7 90 -27 93 -18 3 -23 -3 -27 -30z m-338 -135 c-5 -21 -17
-46 -26 -55 -19 -23 -46 -24 -38 -2 3 9 6 19 6 24 0 12 50 70 60 70 5 0 4 -17
-2 -37z"/>
<path d="M15934 7454 c-11 -16 -14 -28 -7 -32 5 -4 15 -17 22 -29 22 -43 51
-23 51 36 0 52 -39 67 -66 25z"/>
<path d="M1251 7461 c-9 -6 -12 -18 -7 -37 4 -16 7 -88 6 -160 -1 -105 2 -138
15 -163 20 -39 52 -39 47 -1 -2 14 -5 55 -9 92 l-5 67 33 14 c41 17 75 53 83
87 8 32 -25 87 -60 100 -31 12 -84 13 -103 1z m87 -47 c31 -21 28 -55 -8 -89
l-30 -29 0 67 c0 37 3 67 8 67 4 0 18 -7 30 -16z"/>
<path d="M3487 7443 c-90 -95 -63 -227 31 -148 l29 24 22 -29 c29 -40 65 -40
89 -1 l18 29 17 -30 c23 -40 54 -35 86 14 l24 37 21 -42 c18 -35 26 -42 51
-42 24 0 34 7 50 37 23 44 31 47 39 13 3 -13 15 -29 26 -35 15 -8 23 -6 40 12
11 12 20 27 20 32 0 6 9 -3 20 -21 10 -17 29 -37 41 -44 20 -10 25 -9 41 11
30 37 21 79 -10 48 -16 -16 -27 -4 -49 57 -25 66 -51 68 -74 6 l-16 -45 -18
53 c-14 43 -21 52 -38 49 -16 -2 -28 -19 -46 -65 -13 -34 -27 -60 -31 -58 -4
2 -15 33 -24 69 -26 93 -47 96 -81 12 -11 -27 -25 -51 -31 -53 -6 -2 -18 24
-27 57 -19 65 -42 80 -52 33 -16 -73 -28 -113 -37 -113 -13 0 -28 47 -28 89 0
69 -55 93 -103 44z m42 -45 c-10 -39 -43 -87 -53 -77 -10 10 13 71 35 96 28
29 31 26 18 -19z"/>
<path d="M14069 7449 c-31 -31 -22 -96 21 -156 29 -40 31 -47 17 -55 -10 -5
-17 -18 -17 -28 0 -16 7 -20 38 -20 21 0 47 6 57 14 17 12 18 17 7 41 -7 14
-9 31 -6 37 15 24 24 -24 24 -138 0 -127 11 -164 44 -151 13 5 16 22 16 100
l0 93 34 12 c63 23 73 112 16 153 -14 10 -47 19 -73 21 -48 3 -49 3 -62 -35
-17 -50 -21 -53 -43 -33 -55 49 -68 141 -19 134 15 -2 24 -12 28 -33 l7 -30 1
36 c0 19 -4 40 -11 47 -19 19 -56 14 -79 -9z m221 -127 c28 -22 30 -70 4 -89
-26 -19 -34 -16 -34 15 0 15 -4 42 -9 60 -11 38 3 43 39 14z"/>
<path d="M16090 7450 c-6 -11 -13 -62 -17 -114 -9 -139 18 -183 92 -152 59 25
80 82 53 141 -13 30 -53 43 -80 26 -17 -10 -18 -7 -18 54 0 66 -10 82 -30 45z
m90 -175 c0 -24 -23 -55 -41 -55 -12 0 -12 3 7 50 17 42 34 45 34 5z"/>
<path d="M4509 7445 c-32 -17 -59 -56 -75 -110 l-12 -40 -18 34 c-61 109 -83
120 -124 58 l-25 -39 -8 34 c-5 18 -15 40 -23 48 -14 13 -17 13 -30 -4 -16
-22 -19 -116 -4 -116 6 0 10 -9 10 -19 0 -32 11 -51 30 -51 21 0 41 21 73 78
l25 44 23 -44 c14 -23 38 -49 54 -57 26 -12 35 -12 72 1 24 9 43 14 43 11 0
-2 -11 -19 -25 -37 -73 -96 -104 -242 -71 -331 22 -56 78 -107 114 -103 31 4
60 42 72 94 5 21 10 131 10 244 1 162 4 209 15 224 15 20 11 41 -6 31 -5 -4
-9 5 -9 19 0 43 -59 60 -111 31z m61 -34 c0 -15 -44 -74 -67 -89 -21 -13 -23
-13 -23 6 0 25 56 92 76 92 8 0 14 -4 14 -9z m-20 -512 c-12 -45 -24 -46 -54
-5 -17 22 -21 42 -21 109 0 76 3 88 40 162 l40 80 3 -153 c1 -88 -2 -170 -8
-193z"/>
<path d="M11120 7434 c-6 -14 -10 -51 -10 -82 0 -62 -29 -120 -71 -143 -19
-10 -21 -9 -15 18 5 21 1 36 -14 55 -13 17 -20 41 -20 67 0 55 -24 65 -57 26
-24 -27 -25 -37 -8 -90 4 -14 -1 -30 -16 -49 -21 -27 -23 -27 -36 -10 -7 10
-13 39 -13 64 0 51 -21 80 -57 80 -55 0 -120 -149 -81 -188 18 -18 53 -14 73
8 l19 21 23 -26 c13 -14 34 -25 47 -25 22 0 63 37 84 75 9 17 11 12 9 -25 -2
-42 0 -45 26 -48 21 -3 37 6 67 35 34 34 39 37 44 20 3 -13 12 -18 29 -15 13
1 32 -3 41 -11 12 -10 27 -12 58 -5 53 12 60 31 14 40 -20 3 -38 9 -41 13 -2
4 6 30 19 57 37 80 11 102 -44 37 l-32 -38 6 83 c6 78 5 82 -14 82 -13 0 -24
-10 -30 -26z m-320 -158 c-6 -18 -20 -42 -30 -51 -18 -17 -20 -17 -20 -1 0 20
26 84 43 104 10 13 12 13 15 -2 2 -9 -2 -31 -8 -50z"/>
<path d="M12020 7439 c-6 -11 -14 -59 -16 -107 -6 -100 11 -150 57 -166 37
-13 93 1 129 30 54 46 29 81 -31 45 -19 -12 -44 -21 -55 -21 -39 0 -47 23 -42
125 5 88 -1 115 -24 115 -4 0 -12 -9 -18 -21z"/>
<path d="M15831 7424 c-24 -30 -38 -77 -47 -151 -5 -37 -11 -53 -21 -53 -8 0
-13 -6 -10 -12 2 -7 13 -13 25 -13 12 0 27 -6 34 -13 18 -18 52 -15 82 9 21
16 30 18 41 9 20 -17 69 -9 73 13 3 12 -3 17 -22 17 -21 0 -27 7 -36 40 -17
63 -36 62 -61 -5 -11 -29 -21 -41 -38 -43 -20 -3 -22 -1 -16 15 25 59 35 99
37 149 3 66 -10 78 -41 38z"/>
<path d="M15392 7411 l-17 -29 -24 20 c-31 24 -62 20 -79 -12 -17 -32 -9 -143
13 -176 25 -38 67 -26 46 13 -5 10 -12 44 -16 76 -12 98 24 64 55 -51 9 -36
15 -43 33 -40 20 3 22 8 19 63 -2 33 1 71 6 85 l9 24 13 -24 c33 -62 -1 -266
-55 -324 -20 -22 -23 -31 -15 -47 14 -26 26 -24 55 7 56 61 96 238 76 336 -22
102 -81 142 -119 79z"/>
<path d="M15546 7358 c-19 -154 -19 -175 6 -192 26 -19 58 -20 111 -5 31 8 38
14 35 32 -3 20 -8 22 -55 19 l-53 -4 0 65 c0 82 -9 127 -26 127 -8 0 -15 -17
-18 -42z"/>
<path d="M7773 7153 c-20 -7 -19 -983 1 -983 20 0 25 84 33 494 5 288 8 354
18 336 23 -43 24 -2 2 75 -22 77 -30 88 -54 78z"/>
<path d="M3286 6965 c-3 -8 -1 -50 4 -92 16 -125 95 -269 179 -328 119 -82
347 -123 861 -155 187 -12 256 -27 352 -77 99 -52 228 -185 228 -236 0 -2 -40
-7 -90 -10 -178 -13 -329 -58 -383 -115 -105 -109 -148 -406 -162 -1097 -9
-453 -1 -485 155 -562 145 -73 276 -97 597 -109 l172 -7 -18 -26 c-49 -71 -87
-245 -101 -459 -19 -307 30 -497 162 -624 62 -59 123 -98 153 -98 24 0 18 17
-17 49 -18 16 -60 55 -94 85 -70 65 -106 129 -136 249 -19 74 -20 101 -15 287
7 279 46 458 112 520 l23 22 804 -11 c1648 -23 2338 -47 2373 -81 32 -33 115
-185 144 -264 16 -47 38 -122 47 -167 30 -149 6 -378 -53 -518 l-18 -41 -117
70 c-64 39 -120 70 -126 70 -5 0 -242 -141 -526 -314 l-518 -314 -4 -109 -4
-108 203 -124 204 -124 -209 -126 -208 -126 1 -110 0 -110 525 -318 524 -319
63 36 c34 19 276 161 537 314 l475 280 2 108 3 109 -200 119 c-110 65 -203
122 -205 126 -3 4 89 62 204 129 l209 122 4 102 c2 56 2 105 1 109 -2 4 -178
112 -391 239 -213 128 -392 236 -399 241 -9 7 -7 20 8 55 49 114 63 200 63
373 0 151 -2 173 -27 254 -33 106 -80 210 -131 290 l-37 58 83 -6 c373 -27
914 -45 1621 -53 l628 -6 37 -66 c53 -95 101 -229 129 -361 21 -96 26 -153 30
-342 4 -159 2 -228 -5 -228 -6 0 -68 34 -137 76 -73 44 -133 74 -143 71 -9 -2
-246 -144 -527 -315 l-510 -310 -3 -109 -3 -108 196 -119 c108 -65 197 -122
200 -125 2 -4 -88 -62 -201 -130 l-204 -124 0 -113 c0 -85 3 -113 14 -117 7
-3 243 -146 524 -317 l511 -311 541 317 540 317 0 106 -1 106 -209 124 -209
125 112 66 c62 36 158 92 215 125 l103 60 -3 110 -3 110 -378 225 -377 225 -3
245 c-3 206 -7 262 -26 353 -27 131 -70 257 -121 356 l-39 73 432 -6 c238 -4
538 -11 667 -16 129 -5 444 -16 700 -25 256 -9 480 -18 499 -21 l34 -5 -31
-32 c-85 -88 -142 -232 -142 -356 0 -122 41 -239 124 -356 20 -27 32 -53 28
-57 -4 -4 -232 -144 -507 -311 l-500 -303 -3 -110 -2 -109 157 -95 c86 -52
177 -108 201 -123 l45 -28 -207 -126 -207 -125 3 -111 3 -111 522 -318 521
-318 541 317 541 318 0 105 0 105 -209 126 -210 125 215 125 214 124 -3 110
-2 109 -526 316 c-505 303 -528 317 -568 372 -179 243 -175 467 11 691 l40 47
401 0 c560 1 585 5 619 106 21 64 56 436 68 729 5 127 16 313 24 415 12 150
22 446 17 496 0 7 -9 14 -19 16 -15 4 -20 18 -25 62 -11 108 -69 175 -170 196
-71 14 -279 29 -409 30 -60 0 -108 2 -108 5 0 3 13 33 28 68 45 97 139 173
246 197 25 5 220 14 433 20 389 10 496 20 575 53 53 22 101 61 132 106 31 45
102 205 136 304 20 63 21 70 6 85 -14 14 -22 15 -63 4 -69 -19 -77 -32 -19
-32 56 0 56 10 -6 -145 -54 -136 -84 -189 -134 -235 -80 -74 -177 -88 -669
-100 -281 -6 -373 -12 -420 -25 -134 -36 -253 -152 -271 -263 l-6 -39 -452 -9
c-673 -13 -1538 -11 -1742 5 l-171 14 17 56 c27 87 43 257 44 473 1 125 5 196
11 195 13 -2 10 11 -22 101 -24 67 -43 87 -58 62 -3 -6 2 -47 12 -93 30 -137
19 -486 -23 -711 -8 -44 -15 -80 -17 -81 -3 -1 -470 12 -832 25 -176 6 -500
15 -720 20 -220 5 -512 14 -650 21 -158 7 -410 9 -685 6 -239 -3 -552 -2 -695
3 -471 17 -1114 30 -1505 32 -332 1 -410 -2 -570 -20 -207 -23 -513 -42 -576
-35 -39 5 -42 8 -47 39 -12 70 -148 198 -273 255 -86 39 -197 57 -439 69 -326
17 -578 60 -694 119 -97 50 -191 207 -196 331 -2 38 -7 74 -10 80 -9 15 -32
12 -39 -5z m3889 -892 c314 -9 770 -15 1090 -14 303 1 645 -3 760 -9 116 -6
395 -15 620 -20 226 -6 547 -14 715 -20 168 -5 445 -14 615 -19 171 -6 364
-15 430 -22 134 -13 941 -17 1955 -9 783 6 847 0 905 -88 20 -31 28 -59 35
-130 5 -50 16 -110 24 -132 15 -44 10 -219 -14 -480 -5 -63 -14 -221 -20 -350
-11 -286 -46 -661 -65 -705 -25 -60 -18 -60 -505 -63 -322 -2 -596 3 -990 18
-962 37 -1033 39 -1770 50 -1108 16 -1747 30 -1966 40 -315 16 -1101 59 -1184
65 -75 6 -767 17 -2150 35 -399 5 -778 14 -843 20 -271 25 -457 105 -487 211
-13 45 -13 569 0 779 29 466 66 634 155 707 83 69 208 88 735 113 118 6 285
19 370 30 140 17 199 19 600 14 245 -3 688 -12 985 -21z m1257 -2924 c57 -34
110 -69 118 -78 9 -10 25 -20 37 -23 18 -5 727 -425 761 -451 9 -7 -44 -41
-190 -122 -112 -62 -342 -189 -512 -284 -170 -94 -313 -171 -319 -171 -12 0
-1006 573 -1006 580 -1 6 991 609 1001 610 4 0 53 -28 110 -61z m2445 -66 c70
-42 132 -83 136 -90 4 -7 14 -13 22 -13 16 0 729 -426 733 -438 4 -13 -1017
-574 -1033 -568 -25 9 -969 558 -983 570 -10 10 90 75 480 313 271 166 498
301 505 302 7 1 70 -34 140 -76z m2876 -255 l508 -306 -158 -88 c-87 -48 -216
-120 -288 -159 -71 -40 -233 -129 -358 -198 -125 -70 -231 -127 -234 -127 -3
0 -232 131 -508 292 l-503 292 476 289 c263 159 486 295 497 303 11 7 29 12
40 10 11 -1 249 -140 528 -308z m-5943 -546 l495 -288 3 -97 c1 -53 -1 -97 -5
-96 -4 0 -231 136 -503 302 l-495 303 -3 82 c-2 45 1 82 5 82 4 0 231 -130
503 -288z m1570 200 l0 -79 -514 -301 c-283 -166 -517 -302 -521 -302 -3 0 -4
43 -3 96 l3 97 215 119 c118 66 292 162 385 213 94 51 226 125 295 164 69 39
128 71 133 71 4 0 7 -35 7 -78z m850 -250 l495 -288 3 -97 c1 -53 -1 -97 -5
-97 -4 1 -231 137 -503 304 l-495 302 -3 82 c-2 45 1 82 5 82 4 0 231 -130
503 -288z m1558 122 c-12 -12 -1016 -604 -1024 -604 -2 0 -4 44 -4 98 l1 97
236 130 c444 244 568 312 683 377 l115 65 3 -75 c2 -52 -1 -79 -10 -88z m1339
-383 l83 -46 0 -97 c0 -54 -2 -98 -5 -98 -2 0 -229 136 -502 303 l-498 304 -3
86 -3 86 423 -246 c233 -135 460 -266 505 -292z m1141 438 l-3 -80 -460 -270
c-253 -149 -484 -284 -512 -300 l-53 -30 0 98 0 98 268 148 c147 81 375 208
507 282 132 73 244 134 248 134 4 1 7 -35 5 -80z m-6227 -485 c151 -92 279
-167 284 -167 6 0 147 81 315 179 167 98 307 178 311 177 5 -2 391 -232 396
-237 2 -2 -170 -98 -467 -262 -102 -55 -271 -149 -376 -208 l-192 -106 -488
283 c-269 156 -497 288 -507 293 -14 8 19 32 178 128 107 66 195 123 195 128
0 4 17 -3 39 -16 21 -14 162 -100 312 -192z m2443 -64 c147 -89 256 -150 266
-147 10 2 149 82 309 176 161 94 296 172 301 174 5 1 98 -52 208 -117 l201
-120 -142 -79 c-78 -43 -214 -118 -302 -167 -88 -48 -258 -142 -377 -208
l-217 -121 -458 266 c-252 146 -480 278 -506 293 l-48 27 193 118 c106 64 194
121 196 126 2 4 31 -9 65 -30 34 -21 174 -107 311 -191z m2600 -92 c71 -43
133 -78 138 -78 5 0 145 80 311 177 165 97 306 176 312 176 14 0 394 -226 395
-234 0 -6 -111 -69 -485 -274 -71 -39 -223 -124 -337 -187 l-207 -116 -498
289 c-274 158 -498 293 -498 298 0 6 79 58 175 116 96 59 181 112 189 120 11
11 42 -4 195 -97 99 -61 239 -146 310 -190z m-5266 -214 l482 -279 0 -98 c0
-54 -3 -96 -7 -94 -5 2 -232 140 -505 307 l-498 303 0 84 0 85 23 -14 c12 -8
239 -140 505 -294z m1542 213 l0 -82 -452 -265 c-248 -146 -480 -282 -515
-302 l-63 -37 0 98 0 99 358 197 c462 255 622 345 647 361 11 7 21 13 23 13 1
1 2 -36 2 -82z m878 -262 l482 -280 0 -98 0 -99 -36 21 c-158 94 -961 586
-970 595 -7 7 -9 40 -6 88 4 77 4 77 26 65 13 -6 239 -138 504 -292z m1540
130 c-4 -2 -1021 -597 -1030 -602 -5 -2 -8 40 -8 94 l0 98 268 148 c147 81
380 210 517 286 l250 139 3 -80 c2 -44 2 -81 0 -83z m919 -137 l503 -292 0
-99 0 -98 -31 18 c-16 10 -245 149 -507 309 l-477 291 -3 81 c-2 45 0 82 4 82
4 0 234 -131 511 -292z m1551 117 c-7 -7 -227 -137 -488 -290 -261 -152 -490
-286 -507 -297 l-33 -20 0 99 0 99 223 124 c122 68 310 172 417 231 107 59
240 132 295 163 l100 56 3 -77 c2 -53 -1 -80 -10 -88z"/>
<path d="M11122 5542 c-27 -18 -52 -82 -52 -136 0 -50 -2 -55 -27 -64 l-28 -9
-30 96 c-28 87 -33 96 -57 99 -35 4 -50 -19 -83 -127 -15 -47 -30 -93 -35
-101 -4 -9 -5 -34 -1 -55 8 -51 30 -52 56 -3 18 35 24 38 62 38 39 0 42 -2 53
-35 8 -23 18 -35 30 -35 24 0 33 30 20 65 -9 23 -7 30 7 41 28 21 32 17 39
-36 7 -54 22 -74 48 -64 12 5 16 20 16 65 0 55 2 59 29 74 37 18 61 52 61 83
0 36 -27 80 -60 97 -34 17 -31 17 -48 7z m48 -71 c15 -30 12 -56 -10 -76 -20
-18 -20 -17 -20 38 0 58 11 72 30 38z m-226 -105 c16 -51 10 -61 -32 -54 -18
3 -18 5 -4 56 8 29 16 51 18 49 2 -2 10 -25 18 -51z"/>
<path d="M10380 5519 c-7 -12 -15 -49 -18 -82 -4 -53 -9 -64 -42 -93 -20 -18
-45 -52 -55 -74 -19 -43 -46 -57 -90 -46 -33 8 -32 17 10 59 58 58 42 133 -20
93 -31 -21 -65 -86 -65 -126 0 -55 27 -70 130 -68 80 1 94 4 116 24 20 19 26
21 29 9 3 -8 7 -22 10 -30 7 -22 33 -29 50 -15 20 16 19 39 -2 63 -15 16 -17
34 -15 101 8 200 8 200 -10 204 -9 2 -22 -6 -28 -19z m-39 -242 c-29 -29 -36
-16 -9 18 14 18 23 24 26 16 2 -7 -5 -22 -17 -34z"/>
<path d="M11281 5505 c-30 -35 -41 -75 -21 -75 6 0 10 8 10 18 0 18 29 52 43
52 4 0 6 -59 5 -130 l-1 -130 -37 -10 c-42 -11 -78 -44 -60 -55 6 -4 17 -2 25
5 8 6 55 15 105 20 51 5 95 11 98 15 10 10 -20 25 -49 25 -24 0 -27 4 -33 53
-9 77 -7 217 3 217 22 0 33 -32 28 -75 -4 -25 -3 -45 2 -45 13 0 31 57 31 96
0 40 -21 54 -78 54 -33 0 -45 -6 -71 -35z"/>
<path d="M8687 5503 c-4 -3 -7 -22 -7 -42 0 -34 -4 -38 -61 -69 -61 -33 -62
-33 -76 -12 -16 22 -48 27 -60 8 -4 -7 -13 -38 -19 -68 l-11 -55 -17 56 c-23
77 -36 94 -69 85 -51 -13 -108 -153 -77 -191 27 -32 109 -4 110 38 1 6 8 0 16
-15 8 -16 23 -28 34 -28 16 0 20 7 20 38 0 43 17 109 30 117 19 12 31 -34 19
-74 -14 -45 -6 -86 17 -95 28 -11 44 13 44 67 0 46 3 53 42 89 23 21 45 38 49
38 5 0 10 -39 11 -87 3 -82 4 -88 24 -88 12 -1 29 -6 37 -13 9 -8 44 -17 78
-22 68 -10 105 1 95 27 -3 8 -6 17 -6 19 0 2 -20 4 -44 4 -25 0 -56 4 -70 10
l-26 10 21 52 c12 29 22 66 23 83 2 45 -27 44 -58 -2 l-26 -38 0 67 c0 36 -3
73 -6 82 -6 16 -26 21 -37 9z m-311 -175 c-8 -47 -32 -92 -45 -83 -18 10 24
125 46 125 3 0 3 -19 -1 -42z"/>
<path d="M7975 5481 c-27 -11 -51 -40 -65 -75 -16 -42 3 -89 53 -130 36 -30
40 -37 31 -58 -16 -34 -7 -48 31 -48 76 0 105 30 66 69 -19 19 -19 20 5 42 17
16 24 18 25 8 0 -8 4 -6 10 6 5 13 8 -37 6 -140 -2 -157 -2 -160 19 -163 21
-3 22 2 26 99 3 71 8 104 17 107 58 19 87 101 57 161 -30 58 -101 63 -127 9
-7 -13 -29 -38 -50 -56 l-39 -34 -35 22 c-40 24 -65 56 -65 81 0 29 50 80 74
77 17 -2 22 -11 24 -46 4 -52 22 -46 22 8 0 59 -32 82 -85 61z m235 -123 c26
-28 26 -79 0 -109 l-19 -24 -1 53 c0 38 -5 57 -19 71 -14 14 -16 21 -8 25 21
8 26 6 47 -16z"/>
<path d="M9944 5483 c-33 -23 -69 -151 -66 -236 3 -83 44 -149 74 -119 8 8 6
23 -6 52 -9 22 -16 57 -16 76 0 34 1 36 28 29 39 -10 60 -32 64 -69 2 -23 8
-31 23 -31 17 0 20 6 19 39 -2 49 -37 83 -95 92 -40 7 -41 7 -34 43 11 62 26
102 38 98 7 -2 11 -16 10 -31 -1 -14 3 -26 8 -26 6 0 9 19 7 43 -2 33 -7 43
-23 45 -11 1 -25 -1 -31 -5z"/>
<path d="M9229 5413 c-7 -21 -13 -75 -13 -121 -1 -80 0 -85 27 -108 35 -30 45
-30 90 1 36 24 37 24 47 5 12 -23 52 -26 69 -7 6 8 14 29 18 48 l6 33 18 -42
c14 -33 23 -42 42 -42 24 0 40 22 65 90 8 22 10 21 33 -20 35 -62 55 -72 83
-38 l23 26 22 -21 c36 -36 45 -10 23 69 -16 60 -22 69 -42 69 -19 0 -25 -9
-39 -54 l-16 -54 -27 50 c-52 94 -72 93 -106 -7 l-19 -55 -11 64 c-18 103 -43
109 -62 13 -6 -31 -16 -68 -21 -82 l-11 -25 -14 25 c-8 15 -14 49 -13 85 2 83
1 85 -20 85 -26 0 -30 -9 -32 -66 -2 -56 -20 -99 -49 -114 -33 -18 -43 19 -35
132 6 84 4 98 -8 98 -9 0 -21 -16 -28 -37z"/>
<path d="M10017 5383 c-16 -15 -5 -30 22 -30 26 0 29 3 20 19 -10 18 -30 24
-42 11z"/>
<path d="M5470 4608 c-29 -48 -27 -103 5 -124 36 -24 73 -11 91 32 13 30 13
40 0 77 -12 36 -18 42 -45 45 -25 3 -34 -2 -51 -30z"/>
<path d="M7933 4613 c-36 -5 -63 -35 -63 -69 0 -15 11 -27 36 -39 60 -28 114
-1 114 59 0 35 -16 57 -39 54 -9 0 -31 -3 -48 -5z"/>
<path d="M13410 4470 c-23 -23 -28 -88 -8 -108 17 -17 73 -15 88 3 16 20 5 80
-21 106 -24 24 -34 24 -59 -1z"/>
<path d="M10622 4438 c-7 -7 -12 -30 -12 -53 0 -48 13 -65 51 -65 36 0 59 24
59 60 0 52 -66 90 -98 58z"/>
<path d="M5420 2965 l-515 -313 -3 -109 -3 -109 196 -119 c108 -65 198 -122
200 -125 2 -3 -88 -61 -201 -129 l-204 -124 0 -111 1 -111 412 -250 c226 -137
462 -281 524 -318 l112 -69 540 318 541 317 0 106 -1 106 -209 124 -209 125
117 69 c64 37 161 94 214 125 l98 57 0 107 0 107 -534 320 c-294 177 -540 321
-548 321 -7 -1 -245 -142 -528 -315z m1047 -20 c279 -168 509 -309 511 -313 1
-4 -102 -66 -230 -137 -128 -70 -358 -198 -511 -283 -271 -151 -279 -155 -307
-141 -78 38 -979 565 -977 572 3 9 978 605 994 606 6 1 240 -136 520 -304z
m-1027 -623 l495 -288 3 -97 c1 -53 -1 -97 -5 -97 -4 1 -231 137 -503 303
l-495 302 -3 83 c-2 45 1 82 5 82 4 -1 231 -130 503 -288z m1560 197 l-5 -82
-509 -298 c-279 -165 -510 -299 -512 -299 -2 0 -4 44 -4 98 l0 97 237 130
c504 277 571 314 673 373 58 33 110 61 115 61 6 1 8 -29 5 -80z m-1040 -716
c9 2 148 81 308 176 160 94 296 172 301 173 5 2 99 -51 209 -116 l200 -120
-201 -112 c-111 -61 -345 -191 -519 -287 l-318 -177 -487 283 c-269 156 -496
288 -507 294 -15 8 11 28 175 128 107 64 195 121 197 125 2 4 143 -78 314
-182 182 -111 318 -188 328 -185z m-535 -195 l505 -293 0 -98 0 -99 -49 29
c-26 15 -256 154 -509 308 l-461 280 -1 83 c0 45 2 82 5 82 3 0 233 -132 510
-292z m1563 117 c-4 -2 -1020 -596 -1030 -602 -5 -2 -8 40 -8 94 l0 98 243
135 c133 73 310 171 392 216 83 45 206 114 275 152 l125 70 3 -80 c2 -44 2
-81 0 -83z"/>
<path d="M2519 3051 c-16 -16 -29 -35 -29 -43 0 -7 12 0 26 15 24 26 27 27 44
12 30 -27 43 -97 37 -193 -5 -90 -28 -168 -85 -294 -59 -129 19 -54 91 88 55
109 63 300 16 383 -33 61 -62 70 -100 32z"/>
<path d="M1270 3029 c-65 -24 -133 -222 -110 -322 14 -65 61 -93 111 -67 27
15 24 30 -6 30 -14 0 -35 10 -46 21 -20 20 -21 29 -16 102 11 136 85 260 124
208 11 -14 12 -14 13 0 0 17 -19 39 -34 38 -6 0 -22 -5 -36 -10z"/>
<path d="M1981 2993 c-5 -10 -12 -43 -16 -73 -6 -47 -12 -58 -39 -75 -40 -26
-79 -100 -65 -126 13 -25 50 -24 83 2 l27 21 21 -27 c17 -22 27 -26 62 -24 22
1 54 -1 69 -5 38 -11 70 5 105 52 l28 40 33 -18 c31 -15 32 -17 12 -23 -37 -9
-23 -27 23 -27 80 0 88 47 13 80 -23 10 -46 22 -49 26 -4 3 2 24 13 46 20 39
18 58 -4 58 -14 0 -57 -60 -57 -79 0 -19 -58 -99 -80 -111 -28 -15 -32 3 -10
52 10 24 22 62 26 84 5 34 3 42 -12 48 -36 14 -76 -53 -86 -144 -2 -19 -9 -25
-27 -25 -36 0 -44 41 -30 147 6 48 9 94 6 102 -8 21 -34 20 -46 -1z m-47 -231
c-39 -34 -43 -11 -7 36 27 36 28 36 31 12 3 -17 -4 -32 -24 -48z"/>
<path d="M3318 2983 c-24 -27 -39 -73 -32 -97 4 -11 28 -44 55 -73 27 -28 49
-57 49 -62 0 -17 -51 -13 -71 5 -24 21 -49 11 -49 -19 0 -36 26 -52 81 -51 55
1 89 24 89 59 0 24 -42 85 -84 124 -28 26 -32 50 -16 82 14 25 40 25 40 0 0
-11 5 -23 11 -26 7 -5 9 6 7 31 -3 35 -6 39 -34 42 -19 2 -36 -3 -46 -15z"/>
<path d="M3100 2948 c-28 -30 -35 -60 -35 -146 0 -65 3 -76 24 -93 31 -25 43
-24 79 6 52 44 62 163 18 230 -21 31 -58 33 -86 3z m66 -83 c7 -49 -9 -110
-31 -119 -19 -7 -30 34 -20 72 4 15 9 46 12 70 4 34 8 41 19 32 7 -7 16 -31
20 -55z"/>
<path d="M1678 2895 c-14 -8 -43 -44 -63 -81 -20 -36 -39 -63 -42 -60 -4 3
-15 34 -27 68 -34 99 -78 105 -105 15 -8 -26 -18 -47 -21 -47 -4 0 -11 23 -16
52 -5 29 -15 53 -23 56 -12 4 -13 -9 -8 -74 6 -88 12 -110 33 -118 26 -10 43
5 65 60 l23 54 18 -59 c27 -87 72 -93 113 -17 21 38 35 46 35 20 0 -22 64 -84
87 -84 50 0 83 84 64 158 -18 66 -72 90 -133 57z m85 -72 c18 -63 -17 -112
-44 -62 -17 32 -29 81 -23 91 3 5 18 8 32 6 20 -2 29 -11 35 -35z"/>
<path d="M2335 2068 c-4 -13 -9 -108 -12 -213 -5 -205 4 -266 41 -273 24 -5
30 5 62 101 31 92 38 91 79 -11 37 -93 60 -122 95 -122 30 0 69 38 71 69 0 9
6 -2 12 -23 23 -74 79 -75 126 -1 l29 45 21 -35 c16 -28 27 -35 50 -35 35 0
56 25 76 92 l13 43 7 -40 c14 -85 17 -93 29 -98 23 -9 33 7 55 92 23 95 41
127 77 143 33 15 30 28 -7 28 -43 0 -66 -15 -88 -58 l-19 -37 -11 43 c-9 31
-17 42 -31 42 -14 0 -20 -7 -20 -24 0 -41 -39 -152 -60 -171 -19 -18 -20 -17
-34 16 -7 19 -17 58 -21 87 -4 28 -11 52 -16 52 -5 0 -9 14 -9 30 0 37 -32 72
-57 63 -33 -11 -62 -46 -79 -92 -10 -25 -23 -51 -30 -56 -7 -6 -25 -33 -41
-60 -16 -27 -33 -50 -39 -52 -5 -2 -30 38 -54 89 -53 109 -84 136 -121 103
-12 -11 -30 -38 -40 -60 l-19 -40 0 193 c0 157 -3 192 -14 192 -7 0 -17 -10
-21 -22z m482 -254 c3 -9 1 -25 -5 -35 -7 -10 -9 -25 -6 -33 9 -22 -24 -111
-48 -132 l-21 -19 6 76 c7 106 54 195 74 143z"/>
<path d="M3361 2056 c-27 -28 -51 -104 -51 -159 0 -34 -7 -46 -54 -92 -79 -78
-120 -200 -80 -239 8 -9 20 -16 25 -16 21 0 68 31 97 65 l31 35 17 -32 c35
-71 67 -85 104 -48 24 24 27 75 4 84 -28 11 -34 7 -34 -21 -1 -27 -1 -27 -16
-8 -35 47 -38 86 -11 172 41 128 61 238 47 262 -14 28 -51 27 -79 -3z m34
-143 c-10 -45 -21 -80 -26 -77 -21 13 -3 150 25 183 19 24 20 -16 1 -106z
m-85 -147 c0 -19 3 -41 6 -50 4 -9 -12 -34 -41 -65 -48 -51 -75 -64 -75 -36 0
46 75 185 101 185 5 0 9 -15 9 -34z"/>
<path d="M1937 2013 c-11 -10 -8 -61 3 -68 6 -3 10 4 10 17 1 22 2 21 29 -10
31 -37 51 -92 51 -143 -1 -53 -32 -111 -104 -186 -81 -86 -91 -119 -23 -71
162 113 208 200 172 324 -24 82 -109 167 -138 137z"/>
<path d="M1426 1961 c-20 -22 -36 -74 -36 -116 0 -25 -6 -33 -30 -42 -41 -15
-88 -112 -74 -152 13 -37 62 -41 99 -8 28 23 29 23 47 5 13 -13 31 -18 61 -17
23 1 52 -3 65 -10 28 -15 74 -2 109 31 14 13 23 16 23 9 0 -14 70 -7 103 11
27 14 21 46 -13 63 -16 9 -30 17 -30 20 0 2 9 27 20 55 25 64 25 72 -2 68 -26
-4 -68 -70 -68 -109 0 -18 -14 -39 -45 -68 -71 -66 -96 -55 -64 29 27 70 23
115 -10 115 -35 0 -61 -42 -68 -108 -5 -45 -9 -57 -23 -57 -38 0 -51 46 -32
115 21 75 26 166 11 176 -20 12 -24 11 -43 -10z m-39 -211 c-5 -20 -3 -30 6
-30 6 0 -3 -14 -20 -32 -35 -34 -49 -33 -39 4 7 27 43 88 52 88 4 0 4 -13 1
-30z"/>
<path d="M573 1923 c-38 -61 -49 -92 -63 -173 -21 -118 7 -193 76 -206 48 -9
65 9 24 26 -17 7 -37 22 -45 34 -18 24 -20 129 -4 195 14 63 61 155 70 139 11
-17 21 -5 13 16 -12 30 -41 17 -71 -31z"/>
<path d="M4415 1853 c-15 -15 -38 -50 -51 -78 -22 -46 -24 -48 -24 -20 0 17
-5 47 -11 68 -13 48 -39 49 -76 2 -27 -34 -28 -34 -33 -13 -3 13 -15 24 -26
26 -19 3 -22 -5 -33 -70 -12 -78 -28 -119 -49 -126 -19 -6 -52 76 -52 131 0
63 -13 87 -49 87 -80 0 -160 -162 -119 -240 27 -51 92 -34 118 31 l13 30 18
-30 c42 -70 99 -58 122 26 l12 46 10 -54 c7 -36 16 -55 27 -57 12 -2 23 19 47
97 17 55 36 103 41 106 6 3 10 5 10 3 3 -57 21 -180 29 -201 16 -41 73 -63
124 -47 43 13 115 73 128 107 11 30 1 53 -23 53 -15 0 -18 -5 -14 -16 4 -11
-7 -29 -34 -55 -46 -44 -81 -56 -116 -40 l-24 11 45 44 c45 46 80 130 73 178
-5 35 -48 35 -83 1z m34 -71 c-6 -22 -22 -53 -35 -68 -21 -26 -23 -27 -24 -9
0 22 58 130 66 122 3 -3 0 -23 -7 -45z m-462 -32 c-5 -59 -27 -110 -47 -110
-18 0 -11 83 11 127 30 61 43 55 36 -17z"/>
<path d="M764 1855 c-6 -16 12 -192 22 -219 9 -23 47 -20 72 7 11 12 32 46 45
76 l23 53 17 -59 c9 -33 23 -66 31 -73 23 -18 65 -4 84 30 18 32 32 39 32 16
0 -8 12 -29 26 -46 22 -26 33 -31 62 -28 29 2 40 10 55 36 28 47 28 133 1 169
-24 33 -68 41 -93 19 -13 -12 -20 -13 -28 -5 -18 18 -41 3 -48 -33 -9 -41 -42
-108 -54 -108 -5 0 -15 24 -21 53 -32 135 -65 141 -125 22 l-40 -80 -12 79
c-7 43 -14 85 -17 92 -7 19 -25 18 -32 -1z m440 -87 c12 -34 -8 -108 -29 -108
-17 0 -41 43 -46 81 -8 57 57 80 75 27z"/>
<path d="M3796 1863 c-3 -3 -6 -47 -6 -97 0 -124 -9 -133 -52 -49 -27 53 -40
69 -59 71 -22 3 -29 -6 -54 -58 -34 -71 -39 -66 -50 53 -4 45 -11 67 -20 67
-16 0 -25 -32 -25 -95 0 -112 37 -165 89 -128 14 11 33 33 41 51 8 17 17 32
20 31 3 0 14 -18 25 -41 11 -23 32 -51 47 -62 25 -17 29 -18 51 -4 39 26 58
129 41 217 -6 31 -35 57 -48 44z"/>
</g>
</svg>
