<?xml version="1.0" standalone="no"?>
<!DOCTYPE svg PUBLIC "-//W3C//DTD SVG 20010904//EN"
 "http://www.w3.org/TR/2001/REC-SVG-20010904/DTD/svg10.dtd">
<svg version="1.0" xmlns="http://www.w3.org/2000/svg"
 width="519.241545pt" height="400.000000pt" viewBox="0 0 519.241545 400.000000"
 preserveAspectRatio="xMidYMid meet">
<metadata>
Created by potrace 1.14, written by Peter Selinger 2001-2017
</metadata>
<g transform="translate(-20.542877,411.009884) scale(0.043778,-0.043778)"
fill="#444444" stroke="none">
<path d="M2785 9380 c-16 -4 -50 -8 -76 -9 -92 -2 -184 -94 -240 -240 -26 -66
-36 -206 -20 -266 20 -74 72 -147 123 -173 95 -49 251 -23 384 63 38 24 76 45
85 45 10 0 34 -35 64 -92 26 -51 76 -143 111 -204 70 -124 254 -471 254 -479
0 -11 -148 -5 -158 8 -5 6 -13 35 -17 62 -9 67 -35 124 -78 171 -58 65 -150
302 -172 441 -8 49 -21 62 -42 40 -13 -13 -13 -24 7 -103 17 -71 55 -179 96
-280 3 -6 -28 1 -68 15 -63 21 -89 25 -186 24 -104 -2 -117 -4 -160 -29 -26
-15 -81 -63 -122 -107 -59 -62 -75 -85 -76 -110 -1 -18 -6 -56 -13 -86 -16
-76 -14 -120 9 -194 51 -166 250 -272 447 -237 36 6 66 10 67 8 2 -2 15 -25
31 -53 15 -27 79 -121 141 -208 63 -86 114 -162 114 -167 0 -13 -38 -32 -50
-25 -6 3 -10 13 -10 21 0 30 -40 93 -86 132 -121 107 -346 122 -478 33 -23
-15 -62 -39 -88 -54 -109 -63 -187 -254 -158 -391 49 -238 427 -306 644 -116
l34 31 89 -128 c49 -70 117 -169 151 -220 l61 -91 -105 -121 c-100 -116 -124
-136 -124 -108 0 24 -58 134 -90 171 -61 69 -181 109 -235 78 -11 -6 -30 -4
-54 4 -151 54 -298 -66 -332 -274 -21 -130 25 -277 118 -370 181 -181 488
-128 583 100 l23 56 109 -88 c59 -49 115 -93 124 -98 14 -8 2 -35 -76 -180
-98 -182 -112 -231 -73 -241 21 -6 21 -6 3 -29 l-18 -22 -22 45 c-30 62 -91
111 -168 135 -77 24 -138 25 -216 5 -51 -13 -60 -13 -79 0 -31 22 -94 19 -134
-6 -51 -32 -111 -113 -129 -176 -12 -40 -15 -84 -12 -158 3 -94 6 -108 41
-178 69 -140 175 -207 327 -207 170 0 306 96 375 265 26 66 37 71 112 58 l42
-8 -45 -115 c-40 -103 -194 -470 -200 -478 -1 -2 -23 13 -49 33 -99 75 -168
93 -274 71 -97 -20 -186 -60 -186 -83 0 -25 33 -22 120 12 130 51 247 31 332
-57 41 -42 44 -82 13 -160 -26 -65 -22 -108 10 -108 16 0 20 7 20 35 0 38 27
115 40 115 17 0 35 -77 35 -150 0 -64 -5 -85 -30 -133 -77 -153 -247 -224
-397 -167 -72 27 -148 106 -175 182 -41 119 -15 257 58 309 64 45 180 33 209
-21 14 -26 50 -27 50 -1 0 55 -94 107 -180 99 -77 -8 -138 -51 -175 -123 -27
-52 -30 -68 -29 -144 1 -63 7 -101 23 -143 29 -76 106 -159 179 -195 50 -24
69 -28 147 -28 82 0 97 3 157 33 112 55 187 155 210 281 9 46 16 61 29 61 9 0
23 10 31 23 9 12 81 71 162 130 204 150 691 487 704 487 6 0 69 -23 141 -50
191 -73 304 -100 449 -107 120 -6 122 -6 122 15 0 17 -6 22 -27 23 -16 1 4 5
44 9 147 16 268 125 322 293 8 23 19 37 29 37 9 0 157 9 327 20 171 11 405 23
521 26 l211 7 17 -44 c67 -167 233 -284 401 -283 118 0 202 59 262 184 38 78
44 210 14 294 -20 58 -18 75 12 76 5 0 7 10 5 22 -3 18 30 44 202 161 693 472
794 534 1032 637 l77 33 50 -21 c77 -34 189 -47 274 -33 179 30 282 129 295
286 l5 63 91 6 c50 3 368 8 706 11 338 3 638 8 665 13 41 6 51 11 53 30 2 13
-2 22 -10 22 -7 0 -89 -5 -183 -10 -93 -5 -431 -10 -749 -11 l-579 -2 -12 41
c-27 90 -106 188 -193 239 -33 20 -42 30 -38 45 2 11 0 30 -6 43 -31 68 -170
56 -275 -24 -29 -22 -85 -54 -125 -71 -40 -17 -78 -38 -85 -46 -10 -13 -70 33
-405 312 -298 248 -440 374 -589 522 l-195 196 29 58 c24 45 30 71 30 115 0
74 -20 120 -80 184 -57 61 -107 92 -188 114 -33 10 -67 23 -75 30 -26 23 -150
55 -209 55 -136 0 -254 -113 -276 -263 l-7 -48 -187 6 c-102 3 -286 10 -409
16 -123 5 -268 9 -322 9 l-98 0 -22 35 c-56 91 -174 161 -290 172 -41 4 -62
12 -83 32 -25 23 -36 26 -100 26 -59 -1 -84 -6 -137 -31 -80 -38 -152 -109
-188 -186 -22 -46 -32 -58 -51 -58 -23 0 -177 133 -416 360 -55 53 -154 145
-220 205 -66 60 -181 166 -255 236 -138 130 -221 199 -239 199 -7 0 -8 16 -5
43 18 127 -87 241 -254 276 -59 12 -151 13 -197 1z m247 -65 c61 -21 133 -86
148 -131 23 -69 -18 -199 -63 -206 -16 -2 -22 -10 -21 -26 1 -29 -109 -126
-203 -178 -80 -45 -186 -68 -248 -54 -67 15 -91 35 -125 103 -26 51 -30 72
-30 137 0 42 7 100 15 128 13 43 20 52 39 52 18 0 25 8 35 40 15 51 67 103
125 125 44 17 46 17 81 -5 37 -23 65 -21 65 4 0 8 -8 20 -17 26 -28 18 143 5
199 -15z m198 -308 c0 -7 6 -22 14 -32 11 -16 17 -17 29 -7 12 10 44 -16 194
-155 248 -232 498 -463 673 -623 l148 -135 -33 -7 c-42 -9 -300 -28 -385 -28
l-65 0 -136 183 c-254 340 -514 710 -507 724 1 4 14 27 28 50 25 43 40 54 40
30z m-86 -177 c16 -1 53 -47 151 -188 72 -102 203 -284 292 -404 l163 -218
-113 0 -112 0 -69 133 c-65 124 -252 468 -337 621 -32 56 -37 72 -27 83 11 13
14 12 22 -6 5 -12 18 -21 30 -21z m-124 -497 c104 -34 127 -55 181 -171 42
-89 48 -111 39 -130 -5 -13 -10 -33 -10 -46 0 -43 -21 -85 -43 -88 -17 -2 -22
-10 -23 -36 -1 -38 -27 -69 -100 -117 -145 -96 -344 -78 -461 41 -87 89 -106
209 -52 349 27 73 102 150 184 190 52 26 59 27 98 15 36 -11 43 -10 52 4 11
18 57 14 135 -11z m3583 -34 l55 -11 -58 -30 c-37 -18 -82 -54 -124 -99 -69
-72 -76 -86 -51 -95 9 -4 39 19 83 65 88 91 141 116 227 108 130 -12 248 -86
296 -183 43 -90 5 -210 -89 -279 -51 -38 -154 -75 -207 -75 l-33 0 -4 60 c-8
107 -48 109 -48 3 l0 -65 -37 7 c-21 4 -40 8 -41 10 -2 2 12 25 32 51 20 26
36 52 36 59 0 20 -27 37 -49 30 -19 -6 -66 -54 -86 -90 -10 -16 -13 -17 -40
-2 -17 8 -43 29 -60 46 l-29 31 52 53 c29 29 52 58 52 65 0 25 -42 11 -85 -29
-25 -23 -47 -40 -49 -38 -9 10 -26 49 -26 58 0 6 9 11 19 11 41 0 32 62 -10
75 -19 6 -21 12 -16 56 12 103 84 186 182 210 43 10 46 10 108 -2z m-1803 -19
c0 -5 -11 -10 -24 -10 -41 0 -179 -77 -244 -136 -64 -58 -84 -64 -64 -19 29
64 124 142 202 166 37 11 130 11 130 -1z m212 -66 c68 -24 168 -104 168 -135
0 -5 -20 -9 -45 -9 -32 0 -45 -4 -45 -14 0 -24 28 -38 72 -34 41 3 43 1 46
-26 5 -37 -22 -108 -50 -132 -20 -19 -21 -19 -32 0 -29 49 -44 61 -58 48 -10
-10 -8 -21 11 -57 13 -25 22 -47 20 -48 -2 -1 -12 -8 -21 -16 -15 -11 -19 -8
-34 21 -21 40 -34 50 -51 36 -19 -16 -16 -41 9 -62 21 -18 21 -19 3 -32 -36
-26 -130 -56 -195 -61 -60 -5 -66 -3 -79 18 -12 20 -11 24 4 36 13 8 22 9 30
3 21 -18 39 14 24 42 -7 13 -17 26 -22 30 -6 3 -40 -20 -76 -53 -57 -52 -70
-59 -95 -55 -61 12 -130 73 -155 138 -9 23 -7 26 15 31 27 5 39 -7 39 -38 0
-17 7 -20 44 -20 24 0 46 5 48 11 2 7 -31 42 -74 80 -86 75 -100 107 -49 112
16 2 33 -1 39 -7 18 -18 34 -13 52 16 14 20 15 30 7 44 -10 15 -4 23 36 52
136 99 282 128 414 81z m758 -204 c135 -6 300 -10 368 -10 90 0 123 -3 126
-12 4 -17 31 -98 39 -118 5 -11 -40 -49 -164 -140 -94 -69 -250 -184 -347
-257 l-177 -132 -94 92 c-51 51 -151 154 -222 231 l-129 138 23 32 c42 54 57
94 57 147 l0 51 138 -6 c75 -4 247 -11 382 -16z m-1412 -16 c17 -12 22 -25 22
-57 l0 -42 -167 -100 c-91 -55 -170 -101 -174 -103 -6 -3 -184 250 -197 281
-2 4 50 7 115 8 65 0 168 7 228 13 152 18 148 18 173 0z m-760 -210 c57 -107
102 -197 100 -198 -1 -2 -63 35 -136 83 l-134 86 -44 105 c-24 58 -44 108 -44
112 0 5 35 8 78 8 l77 0 103 -196z m289 41 c56 -82 102 -154 102 -160 0 -9
-188 -135 -201 -135 -6 0 -238 437 -238 446 0 3 53 3 117 2 l118 -3 102 -150z
m-537 -2 c0 -20 0 -20 -99 43 -1 2 5 27 15 56 l18 53 32 -70 c18 -38 33 -76
34 -82z m1054 1 c9 -34 106 -131 140 -140 34 -8 33 -17 -6 -49 -18 -15 -91
-81 -161 -147 -70 -66 -129 -119 -131 -117 -2 2 -44 66 -95 141 l-91 138 22
14 c71 45 304 185 309 186 4 0 10 -12 13 -26z m2039 -100 c15 -8 27 -16 27
-17 0 -2 -135 -139 -300 -306 l-301 -302 -109 102 c-61 56 -110 104 -110 108
1 15 640 477 655 473 7 -1 18 4 25 12 10 13 17 10 48 -20 21 -20 49 -42 65
-50z m-3109 38 l59 -38 72 -177 73 -177 -27 -19 c-68 -47 -63 -49 -128 47 -82
121 -133 207 -133 225 0 9 -6 20 -14 24 -8 4 -24 29 -35 56 -11 26 -26 47 -32
47 -8 0 -6 7 5 19 10 11 25 17 36 14 10 -3 27 0 37 6 24 14 21 15 87 -27z
m2074 -279 l163 -172 -68 -50 c-37 -28 -70 -51 -73 -51 -3 0 -25 33 -49 73
-24 39 -101 159 -169 266 l-125 193 22 17 c23 17 24 17 79 -43 32 -34 130
-138 220 -233z m1908 -39 c49 -44 256 -219 459 -389 539 -449 485 -399 472
-440 -7 -23 -17 -35 -28 -35 -10 0 -21 -4 -24 -10 -7 -11 -1072 -14 -1137 -4
-26 5 -38 12 -38 23 0 62 -94 177 -195 240 -92 58 -246 89 -325 67 l-25 -7 25
20 c36 29 79 35 130 17 47 -16 60 -14 60 10 0 20 -60 44 -111 44 -103 0 -210
-104 -263 -257 l-11 -33 -62 62 -62 63 205 310 c188 283 294 466 294 507 0 12
15 17 62 22 83 10 158 37 215 78 l47 34 112 -121 c61 -66 152 -156 200 -201z
m-4144 206 c7 -19 18 -39 24 -45 6 -5 28 -39 49 -75 21 -36 65 -105 98 -154
57 -85 59 -90 41 -103 -47 -35 -44 -37 -154 114 -110 152 -180 261 -180 279 0
6 21 24 48 42 l47 31 7 -27 c3 -15 12 -43 20 -62z m1991 -107 c145 -225 230
-364 226 -367 -65 -49 -166 -132 -206 -170 l-53 -49 0 79 c-1 125 -43 199
-145 252 -40 21 -64 26 -120 27 -65 0 -74 3 -110 33 -22 18 -56 35 -77 38
l-36 6 50 70 c27 39 52 77 55 85 3 8 16 18 29 23 16 6 24 18 26 41 3 31 6 33
66 45 34 7 86 24 115 38 28 13 55 25 59 25 3 1 58 -79 121 -176z m1440 120
c32 -5 37 -9 32 -27 -19 -67 -108 -220 -286 -486 l-199 -301 -28 20 c-15 11
-69 60 -121 109 l-94 88 170 180 c222 235 350 354 380 354 18 0 27 10 40 41
14 36 19 40 42 35 14 -4 43 -9 64 -13z m-2974 -91 l115 -74 -77 -49 c-43 -27
-81 -49 -86 -49 -8 0 -111 244 -111 263 0 11 27 -5 159 -91z m911 -43 c-50
-63 -117 -151 -148 -196 -30 -46 -59 -83 -63 -83 -4 0 -17 16 -29 35 -26 42
-34 31 110 170 129 125 211 198 217 192 2 -3 -37 -56 -87 -118z m199 95 c3 -2
-30 -56 -72 -118 -55 -81 -92 -125 -128 -150 -58 -42 -102 -107 -120 -177 -7
-27 -17 -49 -21 -49 -5 0 -16 16 -25 35 l-17 35 68 99 c37 54 99 138 139 188
40 49 83 104 97 121 20 25 30 30 50 26 14 -3 27 -8 29 -10z m-616 -148 l95
-144 -32 -31 -32 -31 -154 106 c-85 58 -159 110 -164 114 -8 8 165 130 184
130 4 0 50 -65 103 -144z m-232 -295 c33 -74 56 -138 52 -142 -5 -3 -56 -4
-114 -2 l-106 5 -62 147 c-33 80 -61 151 -61 156 0 6 37 33 83 62 l82 52 33
-72 c19 -40 61 -132 93 -206z m219 63 c12 -12 5 -23 -55 -84 -38 -38 -71 -68
-73 -65 -6 6 -143 306 -149 328 -4 11 44 -16 128 -74 74 -50 141 -98 149 -105z
m-1075 117 c62 -27 112 -74 136 -126 32 -68 27 -79 -46 -110 -47 -20 -65 -32
-63 -44 2 -10 13 -16 31 -16 15 1 28 -4 28 -10 5 -40 8 -52 13 -65 3 -8 -3
-26 -13 -39 l-19 -24 -26 41 c-25 40 -48 53 -61 32 -3 -5 8 -31 24 -57 l30
-48 -27 -28 c-15 -16 -61 -45 -101 -65 -72 -36 -79 -37 -180 -37 -90 0 -114 4
-159 24 -100 45 -154 145 -138 254 8 52 76 155 149 226 l46 44 72 -12 c58 -9
74 -9 81 1 12 19 -28 48 -65 48 -37 0 -31 7 20 26 58 22 205 14 268 -15z
m1690 -45 l29 -23 -65 -31 c-82 -40 -179 -101 -179 -113 0 -17 32 -22 54 -9
130 83 245 130 314 130 36 0 61 -8 102 -32 74 -45 105 -105 105 -203 0 -91
-27 -165 -60 -165 -30 0 -49 -24 -41 -54 5 -21 -1 -30 -39 -56 -64 -44 -117
-60 -201 -60 -58 0 -72 3 -68 14 3 7 -6 26 -20 42 -22 26 -27 27 -45 16 -20
-11 -21 -10 -21 28 0 52 -24 65 -52 27 -11 -15 -23 -27 -27 -27 -11 0 -61 113
-61 138 0 12 5 24 10 27 6 3 10 1 10 -4 0 -6 8 -11 18 -11 10 0 31 -13 46 -29
42 -43 78 -22 39 22 -10 10 -18 31 -18 46 0 23 -5 26 -36 29 -46 4 -83 40 -72
69 5 11 42 72 83 136 49 77 81 117 95 119 37 6 72 -4 100 -26z m-1127 -93 c69
-162 74 -175 63 -172 -13 5 -181 207 -181 218 0 9 59 50 71 51 3 0 24 -44 47
-97z m696 -33 c-8 -8 -58 17 -93 47 -3 2 6 14 19 28 l24 25 29 -45 c19 -29 26
-50 21 -55z m1436 -22 l113 -107 -74 -86 c-41 -48 -82 -96 -91 -108 -9 -12
-18 -20 -21 -17 -4 5 -116 178 -173 266 l-33 51 77 57 c42 31 79 55 83 54 3
-2 57 -51 119 -110z m-2196 -41 c32 -38 56 -71 53 -74 -3 -2 -35 -2 -70 2
l-65 7 -45 72 -46 71 37 22 37 23 20 -28 c11 -15 46 -58 79 -95z m708 25 c16
-13 14 -19 -23 -73 -35 -52 -44 -59 -72 -59 -51 0 -137 12 -137 19 0 3 34 43
76 89 l76 82 31 -22 c18 -12 40 -28 49 -36z m-896 -5 c11 -17 29 -45 39 -60
l18 -28 -84 7 c-46 4 -85 7 -86 8 -1 0 1 14 4 29 5 24 60 74 83 76 3 1 14 -14
26 -32z m2182 -180 l103 -158 -37 -43 -37 -44 -136 48 c-75 26 -176 58 -226
70 -49 13 -91 24 -93 26 -2 1 0 13 3 27 6 22 10 24 24 15 22 -13 84 -3 100 16
9 11 7 17 -10 29 -21 15 -18 18 87 101 59 47 111 83 114 78 4 -4 52 -78 108
-165z m-1188 114 c30 -25 33 -31 21 -45 -9 -11 -30 -16 -67 -16 -30 0 -54 2
-54 5 0 10 53 85 59 85 4 0 22 -13 41 -29z m-925 -67 c26 -5 219 -318 211
-340 -5 -13 -16 -8 -59 22 -93 68 -220 168 -294 232 -62 54 -71 66 -63 82 9
17 19 18 98 14 48 -3 96 -7 107 -10z m2609 -116 l99 -93 -67 -107 -66 -106
-100 25 -99 25 -51 80 c-28 44 -50 84 -48 88 2 5 43 56 92 114 l89 105 26 -19
c14 -10 71 -61 125 -112z m-2345 60 c22 -23 50 -62 62 -84 l23 -42 -49 -56
c-26 -31 -49 -55 -50 -54 -9 9 -175 280 -175 285 0 3 33 3 74 0 71 -5 75 -7
115 -49z m188 32 l35 0 -48 -56 c-54 -63 -59 -62 -94 20 l-20 49 46 -7 c26 -3
62 -6 81 -6z m146 -81 l37 -82 -37 -61 c-20 -33 -38 -63 -40 -65 -3 -5 -96 96
-121 131 -12 17 -7 26 48 88 34 39 65 70 69 70 4 0 24 -37 44 -81z m123 46
c-9 -14 -23 -36 -32 -50 -9 -14 -19 -25 -23 -25 -4 0 -17 23 -28 50 l-21 50
60 0 60 0 -16 -25z m158 -32 c-56 -96 -73 -121 -101 -140 -51 -35 -51 -35 -71
4 l-20 37 49 73 50 73 60 0 61 0 -28 -47z m106 18 c0 -23 -8 -34 -36 -51 -19
-12 -37 -20 -40 -18 -2 3 7 26 22 51 30 54 54 62 54 18z m-933 -224 c61 -45
112 -84 112 -87 1 -3 -21 -30 -47 -60 -26 -31 -60 -71 -76 -90 -22 -27 -30
-31 -36 -19 -5 7 -71 106 -149 218 l-140 204 25 33 26 33 86 -75 c48 -41 137
-112 199 -157z m5193 173 c29 -18 -5 -28 -80 -23 -75 6 -75 6 -40 19 42 15 99
17 120 4z m-4202 -95 l20 -33 -110 -121 c-60 -66 -111 -121 -113 -121 -2 0
-17 30 -34 66 l-31 66 32 58 c26 47 45 66 103 102 65 42 71 44 92 31 12 -8 31
-30 41 -48z m2217 50 c113 -30 222 -107 272 -193 34 -57 36 -143 4 -215 -28
-65 -109 -148 -178 -182 -51 -26 -69 -29 -148 -30 -55 0 -103 5 -122 14 -35
14 -39 21 -24 37 5 5 13 26 16 46 9 48 -14 61 -50 28 -49 -46 -98 -3 -111 100
-6 49 -5 53 8 36 14 -18 17 -18 116 0 84 15 102 22 102 36 0 15 -9 18 -52 18
-50 0 -55 2 -109 56 -56 55 -57 57 -47 93 19 66 45 106 88 130 79 44 138 51
235 26z m-1337 -96 c100 -33 182 -62 182 -65 0 -13 -134 -174 -145 -174 -14 0
-247 236 -264 268 -7 13 -22 27 -34 33 -16 7 -8 8 28 3 28 -3 132 -33 233 -65z
m3327 51 c96 -33 175 -105 215 -195 29 -66 33 -85 17 -85 -23 0 -67 -40 -67
-61 0 -30 31 -37 48 -11 21 32 32 27 32 -17 0 -49 -22 -112 -55 -155 -69 -90
-248 -128 -407 -85 l-37 9 17 30 c15 27 15 32 2 40 -10 6 -25 3 -47 -11 l-33
-20 -24 26 c-42 45 -60 95 -60 168 0 47 4 71 13 77 8 5 11 15 7 26 -4 9 -2 32
5 51 9 27 14 32 25 22 9 -8 11 -16 4 -29 -19 -35 24 -42 61 -10 l24 20 -43 37
-42 38 29 50 c16 28 37 57 47 67 46 41 177 50 269 18z m-3555 -94 c24 -28 89
-94 143 -146 l98 -95 -132 -168 -133 -168 -13 50 c-43 170 -188 303 -298 272
-29 -8 -44 -6 -80 10 -63 28 -107 18 -160 -36 -46 -46 -80 -122 -91 -204 l-6
-50 -44 52 c-24 29 -47 62 -50 74 -6 23 32 82 196 303 l55 75 55 -13 c126 -30
259 3 350 86 39 35 46 39 55 25 6 -9 30 -39 55 -67z m-1285 -41 l36 -99 -23
-18 c-13 -10 -27 -16 -33 -14 -5 1 -34 35 -62 76 l-53 72 43 48 c23 27 45 45
49 42 4 -4 23 -52 43 -107z m275 63 c0 -7 -84 -68 -94 -68 -3 0 11 27 31 61
36 60 37 60 49 37 7 -12 13 -26 14 -30z m-206 -14 l49 -56 -17 -35 c-9 -20
-21 -32 -25 -27 -8 9 -61 156 -61 168 0 12 7 5 54 -50z m1795 6 c17 -27 28
-50 24 -50 -3 0 -30 7 -59 17 l-53 16 26 34 c14 18 27 33 28 33 2 0 17 -22 34
-50z m538 -12 c58 -57 63 -66 63 -105 0 -23 -4 -44 -9 -47 -8 -6 -232 21 -239
28 -4 5 110 186 117 186 3 0 34 -28 68 -62z m2072 18 c-13 -28 -28 -33 -47
-14 -10 10 -5 16 20 29 18 10 34 16 36 14 1 -1 -3 -14 -9 -29z m-3766 -10 c9
-7 17 -16 17 -20 0 -4 -53 -79 -117 -168 l-117 -160 -19 48 c-15 40 -16 53 -6
69 14 23 212 243 219 244 3 0 13 -6 23 -13z m-400 -48 c4 -14 -27 -83 -41 -92
-11 -7 -58 41 -49 50 12 12 72 53 79 54 3 0 8 -6 11 -12z m1687 -163 c53 -88
58 -102 46 -120 -7 -11 -32 -52 -55 -92 -47 -79 -63 -96 -85 -91 -8 2 -83 63
-166 136 l-150 133 80 99 80 99 95 -32 96 -32 59 -100z m-2126 46 l68 -49
-118 -77 c-66 -43 -124 -79 -130 -82 -7 -2 -22 10 -34 28 -20 27 -21 34 -10
53 16 26 143 174 150 175 3 1 36 -21 74 -48z m361 -22 c3 -10 -9 -44 -27 -77
-33 -59 -34 -60 -55 -44 -11 10 -28 39 -36 66 -18 54 -13 72 30 105 l26 22 29
-27 c15 -15 30 -35 33 -45z m153 -66 c-12 -11 -20 -7 -52 26 l-39 39 24 38 23
38 29 -63 c24 -54 26 -66 15 -78z m2152 107 c9 -17 8 -20 -10 -20 -13 0 -20 7
-20 20 0 11 4 20 10 20 5 0 14 -9 20 -20z m-432 -7 c17 -3 32 -10 32 -14 0 -5
-13 -29 -28 -54 -31 -49 -24 -53 -77 39 l-29 49 35 -7 c19 -4 49 -10 67 -13z
m249 -44 l102 -13 11 -65 c6 -35 18 -77 26 -94 9 -16 14 -30 12 -32 -5 -4
-281 -55 -298 -55 -8 0 -22 12 -31 28 -8 15 -27 47 -42 72 l-26 46 40 68 c39
65 43 68 73 63 17 -3 77 -11 133 -18z m1476 -4 l569 0 -6 -50 c-8 -65 15 -156
55 -209 l30 -41 -23 -9 c-13 -5 -95 -44 -183 -86 -161 -78 -215 -112 -825
-525 -113 -76 -231 -158 -263 -183 l-58 -44 -20 25 c-26 34 -132 104 -169 112
-17 4 -35 16 -41 27 -10 19 -17 20 -90 15 -43 -4 -94 -13 -115 -22 -20 -8 -41
-12 -46 -9 -23 14 -308 488 -308 512 0 6 52 57 115 113 l116 102 53 -26 c140
-69 309 -48 437 54 54 42 115 139 130 204 12 53 12 54 43 47 17 -4 287 -7 599
-7z m-3517 -70 l27 -36 -29 -32 c-16 -18 -32 -36 -36 -41 -3 -4 -20 0 -37 10
l-30 18 31 58 c17 32 34 58 39 58 4 0 20 -16 35 -35z m-332 -2 c4 -10 -21 -64
-70 -150 -42 -73 -79 -135 -83 -137 -4 -3 -32 28 -64 69 l-56 73 122 81 c67
44 127 80 133 80 7 1 15 -6 18 -16z m869 -19 c5 -5 -148 -114 -160 -114 -14 0
47 86 72 102 29 17 76 24 88 12z m732 -4 c3 -5 62 -60 131 -120 71 -63 119
-112 112 -115 -33 -11 -530 -106 -534 -102 -3 3 32 51 77 108 46 57 107 134
136 172 54 67 66 76 78 57z m-542 -24 c81 -35 164 -166 174 -276 l6 -58 -59
-12 c-107 -21 -134 -30 -134 -46 0 -24 26 -27 96 -9 55 14 68 14 75 3 12 -19
11 -24 -10 -66 -27 -52 -98 -115 -154 -137 -56 -21 -132 -17 -190 11 -43 20
-44 24 -17 49 25 23 26 52 0 60 -27 9 -60 -12 -60 -38 0 -21 -2 -20 -25 8 -28
35 -31 45 -11 45 9 0 17 15 21 40 4 22 10 39 13 37 8 -2 72 44 72 52 0 3 -4
12 -9 20 -7 11 -15 11 -45 1 -20 -6 -39 -18 -44 -26 -6 -11 -16 -7 -46 21
l-39 35 7 65 c8 75 14 97 28 89 5 -3 41 16 81 44 40 27 86 57 103 65 31 16 33
16 46 -5 18 -27 42 -15 35 18 -4 21 0 24 25 24 16 0 43 -6 61 -14z m-2105 -4
c-1 -5 -37 -37 -78 -73 -76 -66 -94 -94 -66 -105 9 -3 45 21 98 67 93 81 169
122 208 112 128 -30 220 -178 220 -350 0 -218 -189 -358 -397 -294 -120 36
-205 136 -233 275 -37 181 71 376 208 376 24 0 42 -4 40 -8z m1130 -74 l40
-61 -64 -130 c-49 -98 -69 -127 -80 -123 -9 3 -19 6 -23 6 -4 0 -24 22 -45 49
l-37 50 78 135 c43 75 81 136 84 136 4 0 25 -28 47 -62z m372 -37 c-25 -44
-25 -44 -79 -11 l-51 32 32 40 32 41 37 -43 c28 -32 35 -48 29 -59z m-812 59
l22 -29 -105 -71 c-57 -38 -107 -70 -110 -70 -3 0 33 45 80 100 48 55 88 100
89 100 1 0 12 -13 24 -30z m2514 -91 c-8 -7 -132 -32 -137 -27 -2 2 15 34 38
71 l40 68 33 -53 c18 -29 30 -56 26 -59z m-1917 56 c19 -15 19 -16 -7 -42
l-27 -26 -6 26 c-8 28 -1 57 12 57 4 0 17 -7 28 -15z m-485 -116 l63 -82 -22
-45 -22 -45 -82 7 c-45 3 -134 6 -197 7 -63 1 -106 4 -95 6 34 9 47 24 34 40
-7 7 -10 15 -8 18 10 9 255 174 260 175 3 0 34 -37 69 -81z m2780 67 c-56 -53
-202 -176 -209 -176 -9 0 -81 115 -81 129 0 6 239 57 285 60 17 1 17 -1 5 -13z
m-2184 -22 c24 -14 44 -30 44 -35 0 -9 -90 -149 -96 -149 -1 0 -19 29 -39 65
l-36 66 31 39 c18 22 36 40 42 40 5 0 29 -12 54 -26z m169 -42 c-2 -2 -15 3
-29 10 -25 13 -25 14 -9 38 l17 24 12 -35 c6 -19 10 -35 9 -37z m-355 -5 c-1
-13 -60 -86 -60 -74 0 3 10 27 22 51 20 41 39 52 38 23z m2074 -62 c25 -42 46
-79 46 -83 0 -4 -20 -27 -44 -51 -30 -29 -49 -41 -58 -35 -32 19 -208 190
-205 199 4 10 140 42 189 44 23 1 33 -10 72 -74z m-1667 -61 c20 -37 29 -65
24 -73 -11 -18 -245 -21 -262 -4 -9 9 1 32 47 102 l59 90 50 -28 c40 -22 57
-40 82 -87z m1333 76 c0 -7 -214 -350 -237 -379 -1 -2 -69 28 -150 66 -82 39
-172 79 -201 89 l-53 19 7 40 c3 22 9 43 13 47 5 5 573 124 609 127 6 1 12 -3
12 -9z m-1685 -75 c15 -42 26 -77 24 -79 -2 -2 -39 -1 -82 2 -60 4 -77 8 -73
18 4 11 98 134 102 134 1 0 14 -34 29 -75z m1935 -154 c0 -10 -254 -261 -265
-261 -5 1 -49 20 -98 44 l-87 42 83 130 c46 71 100 155 120 187 l38 58 104
-97 c58 -53 105 -99 105 -103z m-2270 101 c-6 -2 -22 -1 -36 2 -21 6 -23 9
-13 27 l11 21 24 -23 c14 -13 20 -25 14 -27z m2524 -176 c48 -82 85 -150 84
-152 -2 -1 -63 49 -136 113 l-133 117 43 43 c23 24 45 40 49 35 4 -4 46 -74
93 -156z m-2666 139 c2 -2 -19 -44 -46 -94 l-49 -92 -74 57 c-41 31 -90 71
-109 90 -19 18 -46 38 -60 43 -18 8 27 9 155 5 99 -4 181 -8 183 -9z m190 -21
c13 -9 22 -22 20 -30 -2 -8 -41 -61 -87 -118 l-84 -104 -49 30 -48 29 21 42
c12 23 37 70 56 105 l35 62 57 0 c36 0 65 -6 79 -16z m290 -19 c2 -1 -18 -37
-44 -80 -25 -42 -50 -73 -54 -68 -5 4 -29 35 -54 67 -71 92 -65 101 59 91 50
-4 91 -8 93 -10z m347 -14 c-24 -21 -158 -102 -162 -97 -3 3 -16 28 -29 55
l-23 51 111 0 c63 0 108 -4 103 -9z m115 0 c0 -5 15 -30 34 -54 l35 -45 -121
-117 c-66 -64 -124 -113 -128 -108 -4 4 -24 46 -44 93 -27 64 -33 86 -24 92 7
4 60 39 118 77 102 67 130 81 130 62z m-380 -67 c16 -37 30 -70 30 -74 0 -4
-30 -27 -68 -52 l-67 -45 -18 23 c-9 12 -17 26 -17 30 0 8 102 184 107 184 2
0 16 -30 33 -66z m1010 15 c71 -27 320 -146 320 -153 0 -6 -200 -330 -223
-360 -13 -18 -15 -17 -36 17 -32 53 -105 113 -180 150 -62 30 -72 32 -176 32
-106 0 -232 -23 -262 -47 -23 -18 -3 -39 31 -33 27 5 29 4 11 -6 -38 -22 -87
-74 -107 -113 l-20 -40 -19 25 c-32 39 -119 182 -119 194 0 6 56 66 124 134
l125 124 62 -28 c124 -55 250 -29 347 74 26 28 52 51 57 51 6 0 35 -9 65 -21z
m-1265 -63 l55 -73 -50 -87 -51 -86 -62 40 c-34 22 -61 45 -59 52 5 18 104
228 108 228 2 0 28 -33 59 -74z m2308 -70 c89 -79 186 -169 216 -199 l54 -56
-30 -25 c-17 -14 -43 -50 -59 -79 l-28 -54 -65 29 c-36 16 -166 84 -289 150
l-223 121 128 129 c70 70 129 128 131 128 2 0 76 -65 165 -144z m-2504 -40
c-11 -24 -29 -36 -29 -18 0 12 31 54 36 49 3 -2 -1 -16 -7 -31z m555 -68 l47
-101 -39 -40 -40 -39 -76 100 -76 100 63 41 c34 22 65 40 68 40 3 1 27 -45 53
-101z m-701 66 c21 -14 37 -29 35 -32 -7 -17 -233 -292 -239 -292 -24 0 -7 46
69 189 48 88 89 161 92 161 3 0 22 -12 43 -26z m2133 -75 c8 -7 -10 -30 -60
-76 -39 -37 -130 -125 -202 -196 -72 -71 -134 -125 -136 -121 -3 5 -8 22 -12
37 -6 24 6 49 77 160 46 73 103 164 127 203 l44 71 75 -34 c42 -19 81 -39 87
-44z m-1688 49 c3 -14 -45 -54 -54 -45 -3 2 3 18 13 36 19 32 36 36 41 9z
m-343 -38 c3 -5 -24 -78 -60 -162 -48 -112 -75 -160 -98 -180 -36 -31 -173
-128 -180 -128 -3 0 -7 17 -9 37 -4 35 4 47 159 240 90 112 168 203 173 203 5
0 11 -4 15 -10z m459 -112 l76 -102 -23 -24 -24 -24 -117 78 c-64 42 -115 81
-114 86 3 9 109 87 119 88 4 0 41 -46 83 -102z m-326 30 c12 -6 22 -15 22 -19
0 -9 -192 -150 -198 -144 -2 2 17 51 43 109 l48 106 31 -20 c17 -12 41 -26 54
-32z m2221 -100 c101 -55 216 -115 256 -133 l73 -34 4 -64 3 -64 -80 -7 c-44
-3 -120 -6 -170 -6 -49 0 -225 -9 -390 -20 -165 -11 -326 -20 -357 -20 -57 0
-58 1 -58 28 0 22 25 52 123 148 67 67 169 165 226 217 l105 95 40 -20 c23
-11 124 -66 225 -120z m-1038 52 c35 -11 88 -36 117 -55 51 -35 121 -117 122
-143 0 -7 -32 -57 -70 -110 -76 -105 -89 -134 -70 -157 14 -16 60 -20 75 -6
17 15 85 21 85 8 0 -7 -13 -40 -29 -74 -36 -75 -105 -147 -169 -176 -57 -26
-150 -27 -206 -3 -37 15 -38 17 -20 30 18 14 18 15 0 53 -10 21 -43 83 -74
138 -32 55 -58 103 -60 106 -5 10 113 59 194 79 43 11 79 22 81 23 2 2 0 18
-3 35 -8 37 -32 42 -59 12 -9 -10 -47 -29 -84 -41 -36 -12 -87 -32 -113 -45
l-47 -24 -41 53 c-45 60 -48 82 -21 135 25 48 55 76 111 101 54 25 98 26 147
6 40 -17 63 -14 63 9 0 17 -58 46 -97 47 l-28 1 30 8 c53 13 101 11 166 -10z
m-981 -83 c58 -38 109 -73 114 -77 4 -5 -54 -79 -130 -164 -116 -132 -141
-155 -158 -150 -12 4 -59 17 -106 30 -58 15 -84 26 -82 35 9 35 237 407 246
402 6 -4 58 -38 116 -76z m380 -62 c40 -110 112 -231 130 -220 7 4 23 -35 16
-42 -4 -5 -98 103 -190 220 l-78 99 32 33 c18 19 36 32 40 30 4 -3 27 -56 50
-120z m2455 91 c80 -40 160 -132 185 -214 25 -81 25 -133 0 -215 -25 -82 -90
-158 -155 -183 -95 -36 -237 1 -329 86 -47 43 -99 117 -111 159 l-7 24 155 -6
c166 -7 191 -1 146 34 -16 13 -33 17 -52 13 -15 -3 -81 -3 -147 1 l-120 8 0
49 c0 43 2 50 18 45 9 -3 69 -24 132 -46 127 -45 148 -48 157 -25 9 25 -23 49
-70 50 -37 0 -177 48 -215 73 -11 7 -10 16 6 47 57 110 105 106 186 -16 29
-44 52 -64 66 -55 21 13 9 40 -50 111 l-60 73 42 10 c70 16 161 7 223 -23z
m-4075 -33 c-19 -14 -63 -55 -97 -90 -67 -68 -76 -67 -42 4 30 61 93 113 138
113 l36 0 -35 -27z m341 10 c92 -30 179 -140 150 -190 -7 -13 -5 -23 6 -36 14
-15 15 -26 5 -78 -40 -217 -210 -348 -409 -317 -140 22 -246 145 -262 304 -8
74 1 169 13 142 13 -30 35 -21 86 35 68 75 125 113 144 97 19 -15 36 -5 36 20
0 13 9 22 28 26 15 3 32 7 37 9 29 10 119 3 166 -12z m676 0 c-47 -84 -183
-311 -192 -321 -8 -9 -24 -11 -47 -7 l-36 7 37 91 37 92 95 72 c86 66 117 86
106 66z m497 -102 c25 -33 46 -62 46 -66 0 -3 -27 13 -60 36 -33 23 -60 44
-60 46 0 7 20 43 24 43 2 0 24 -27 50 -59z m200 -9 c36 -49 45 -68 40 -87 l-6
-25 -18 23 c-15 19 -70 141 -70 155 0 8 3 3 54 -66z m-183 -100 c118 -88 194
-151 188 -155 -2 -2 -61 -40 -131 -86 l-127 -83 -150 56 c-82 31 -155 56 -161
56 -6 0 -10 4 -8 9 7 20 251 291 262 291 6 0 63 -40 127 -88z m933 -79 c-24
-29 -43 -43 -60 -43 -13 0 -24 3 -24 6 0 4 24 38 52 77 l52 70 7 -34 c7 -29 3
-40 -27 -76z m-1734 70 c0 -4 -7 -27 -17 -51 l-16 -43 -41 7 c-49 8 -56 13
-36 24 8 5 33 22 55 38 41 31 55 38 55 25z m1102 -81 c-14 -10 -18 -10 -24 5
-3 10 -7 29 -7 43 l-1 25 25 -30 c22 -28 23 -31 7 -43z m76 -79 c47 -76 114
-204 109 -209 -7 -8 -160 164 -177 198 -13 28 -13 31 5 44 27 20 30 19 63 -33z
m-1112 3 c1 0 -57 -104 -129 -231 -71 -126 -127 -221 -124 -210 3 11 45 118
94 237 l88 218 35 -7 c19 -3 35 -6 36 -7z m169 -38 c44 -12 82 -22 84 -24 2
-2 -32 -47 -75 -100 -110 -134 -222 -279 -339 -438 -55 -75 -102 -136 -105
-136 -3 0 -13 20 -23 45 l-19 44 177 319 c157 282 180 319 199 315 11 -3 57
-14 101 -25z m824 -17 c12 -16 21 -36 21 -45 0 -9 10 -21 23 -27 12 -5 35 -28
50 -49 15 -22 44 -51 65 -66 20 -15 48 -41 62 -57 l24 -30 -61 7 c-79 9 -201
43 -337 95 -109 41 -123 48 -115 55 22 20 224 146 234 146 8 0 23 -13 34 -29z
m-544 -71 c75 -28 144 -54 152 -58 11 -7 -52 -55 -243 -188 -141 -98 -334
-236 -428 -305 -94 -69 -172 -123 -174 -119 -6 15 536 720 553 720 2 0 65 -23
140 -50z"/>
<path d="M9103 5494 c-7 -3 -13 -14 -13 -25 0 -16 7 -19 40 -19 l40 0 0 -40
c0 -46 -21 -95 -48 -109 -9 -5 -62 -12 -117 -16 -121 -9 -156 -22 -217 -82
l-46 -45 -22 48 c-26 61 -57 94 -85 94 -12 0 -71 -25 -131 -56 -105 -54 -111
-56 -176 -52 -54 3 -72 8 -94 28 -33 31 -54 79 -54 123 0 36 -21 64 -40 52
-16 -10 -11 -96 9 -140 37 -82 112 -121 216 -112 51 4 81 14 159 57 54 29 104
49 112 46 8 -3 29 -36 46 -73 28 -64 42 -82 61 -83 4 0 31 25 60 56 28 31 64
62 78 70 15 7 77 17 137 22 127 10 154 23 183 85 23 51 25 139 4 157 -16 13
-83 22 -102 14z"/>
<path d="M8757 4997 c-10 -27 14 -102 50 -157 45 -68 127 -148 206 -200 56
-38 166 -80 209 -80 16 0 18 -3 9 -14 -14 -17 -4 -46 16 -46 8 0 36 19 61 41
26 23 62 48 80 55 51 22 40 41 -50 84 -91 44 -106 47 -115 24 -4 -11 7 -28 33
-53 l39 -36 -43 -3 c-93 -7 -215 53 -323 159 -74 73 -109 127 -117 186 -6 39
-11 49 -28 51 -12 2 -24 -3 -27 -11z"/>
<path d="M11372 4632 c-21 -14 -33 -73 -30 -153 2 -91 -18 -134 -75 -162 -38
-19 -48 -43 -22 -53 23 -9 73 15 99 48 l23 29 27 -35 c45 -60 120 -65 176 -11
l27 25 18 -20 c27 -29 59 -25 91 13 17 20 29 27 31 19 3 -7 18 -19 33 -27 35
-18 70 -8 94 27 l16 22 -1 -29 c0 -23 -10 -37 -42 -60 -48 -35 -75 -94 -63
-140 11 -41 87 -115 119 -115 49 0 61 36 53 158 l-6 108 30 18 c26 15 36 16
66 6 41 -14 81 -6 111 22 l21 20 7 -31 c15 -70 50 -45 57 42 7 86 29 127 68
127 23 0 30 5 30 19 0 39 -70 42 -99 5 -16 -21 -21 -23 -21 -10 0 12 -7 16
-22 14 -18 -2 -24 -13 -33 -60 -13 -65 -46 -108 -82 -108 l-23 0 30 42 c48 66
38 128 -21 128 -54 0 -110 -78 -95 -133 5 -21 -9 -47 -25 -47 -5 0 -9 41 -9
91 0 86 -1 90 -21 87 -14 -2 -27 -20 -44 -61 -30 -76 -52 -108 -69 -101 -15 6
-36 47 -36 73 0 9 -6 26 -14 36 -19 27 -42 7 -50 -44 -3 -21 -14 -49 -25 -62
l-18 -23 -13 24 c-7 13 -10 43 -8 72 4 37 1 55 -12 70 -16 20 -20 20 -49 8
-50 -20 -86 -82 -86 -147 0 -29 -2 -53 -5 -53 -16 0 -50 34 -65 65 -14 30 -15
45 -6 83 19 87 22 136 9 161 -15 28 -28 34 -46 23z m688 -186 c0 -8 -12 -28
-26 -43 l-25 -28 6 30 c10 46 45 77 45 41z m-490 -37 c-5 -19 -17 -44 -26 -54
-15 -19 -15 -18 -10 12 5 31 35 87 42 80 2 -2 -1 -19 -6 -38z m329 -281 c1
-38 -2 -68 -6 -68 -26 1 -73 65 -73 98 0 13 14 37 32 55 l32 32 7 -25 c4 -14
7 -55 8 -92z"/>
<path d="M10213 4564 c-3 -9 -3 -60 0 -114 5 -107 -5 -140 -44 -140 -22 0 -52
57 -64 122 -12 65 -44 59 -64 -12 -7 -25 -21 -56 -31 -70 -30 -40 -44 -14 -50
93 -5 84 -7 92 -25 92 -19 0 -20 -7 -20 -97 0 -82 3 -101 21 -125 32 -43 68
-42 108 2 l33 36 13 -30 c24 -58 99 -81 135 -41 l18 20 22 -20 c39 -36 85 -17
85 36 0 13 -6 15 -30 11 -17 -4 -30 -2 -30 3 0 6 7 10 15 10 20 0 19 37 -1 48
-12 7 -5 10 28 15 24 3 52 9 61 13 15 6 17 -5 18 -107 1 -134 7 -164 34 -164
18 0 20 8 23 82 l3 82 33 11 c18 6 42 19 53 30 21 19 21 18 33 -25 7 -25 18
-50 26 -56 21 -18 57 -6 78 26 l19 30 38 -37 c43 -44 67 -47 98 -14 l23 25 28
-21 c23 -16 34 -18 57 -11 38 13 39 48 1 48 -15 0 -35 8 -44 17 -16 15 -16 18
0 33 9 9 14 20 11 25 -2 4 18 10 45 14 68 9 80 15 80 38 0 19 -4 20 -69 13
l-70 -7 -3 48 c-2 36 -7 50 -20 52 -26 5 -41 -35 -45 -122 -2 -50 -9 -88 -19
-104 -15 -23 -16 -23 -36 -5 -11 10 -31 40 -45 66 -31 62 -52 60 -69 -7 -19
-72 -30 -76 -43 -16 -6 28 -11 59 -11 69 0 20 -23 44 -33 35 -4 -4 -25 10 -48
31 -37 33 -45 36 -77 30 -45 -8 -52 -12 -52 -30 0 -19 -29 -34 -84 -44 l-45
-8 -6 46 c-4 25 -10 56 -15 69 -11 26 -38 29 -47 6z m317 -155 c0 -21 -7 -29
-30 -38 l-30 -10 0 44 c0 24 3 51 6 60 6 14 9 13 30 -6 14 -13 24 -34 24 -50z"/>
<path d="M9650 4535 c-17 -44 -12 -145 9 -192 34 -75 111 -95 163 -43 29 29
30 34 26 95 -3 55 -8 69 -33 95 -16 17 -50 37 -75 44 -25 8 -53 17 -62 21 -13
5 -20 0 -28 -20z m148 -139 c4 -54 -9 -76 -44 -76 -33 0 -64 52 -64 106 l0 41
53 -12 52 -11 3 -48z"/>
<path d="M6840 4419 c0 -12 8 -23 20 -26 14 -4 19 -12 15 -27 -2 -11 -7 -50
-10 -84 -10 -100 -40 -184 -84 -233 -37 -42 -42 -44 -92 -44 -30 0 -108 8
-174 19 -194 30 -343 12 -462 -56 -62 -35 -150 -112 -184 -162 -28 -41 -35
-44 -44 -16 -12 38 -86 121 -142 158 -56 37 -58 37 -152 36 -68 0 -144 -11
-256 -34 -117 -25 -187 -34 -261 -34 -95 -1 -103 1 -150 29 -78 49 -129 145
-141 270 -6 65 -17 87 -39 78 -9 -3 -14 -21 -14 -52 0 -112 65 -262 139 -318
95 -73 195 -78 466 -23 194 39 298 48 345 28 55 -24 124 -92 156 -153 29 -56
52 -73 77 -58 8 4 37 36 66 70 154 187 316 233 637 182 166 -27 191 -23 254
40 40 40 53 62 75 132 17 53 29 118 32 176 7 104 -1 123 -48 123 -23 0 -29 -5
-29 -21z"/>
<path d="M6607 3507 c-24 -37 -37 -96 -37 -174 0 -66 -3 -75 -30 -107 -17 -19
-41 -36 -53 -38 -35 -5 -29 -42 7 -46 21 -3 37 5 62 29 l33 32 27 -32 c42 -50
78 -64 143 -57 44 5 63 14 90 39 24 23 35 28 39 18 7 -22 41 -51 57 -51 18 0
59 38 67 61 3 10 14 6 42 -19 48 -42 87 -43 125 -1 l28 30 6 -43 c5 -39 3 -45
-24 -66 -46 -37 -99 -112 -99 -141 0 -36 24 -68 70 -91 44 -23 93 -26 108 -7
19 22 23 81 13 162 l-10 80 31 32 31 32 25 -19 c29 -24 63 -25 101 -6 31 17
87 77 103 111 7 15 16 21 29 18 15 -4 19 -15 19 -53 0 -65 19 -81 67 -54 20
10 50 38 67 61 17 23 33 42 36 43 3 0 14 -13 23 -30 10 -16 24 -30 30 -31 7
-1 1 -4 -13 -8 -15 -4 -26 -15 -28 -29 -3 -18 1 -22 23 -22 34 0 95 26 95 40
0 6 -18 29 -40 51 -48 48 -57 77 -35 119 35 67 -10 83 -48 18 -14 -24 -47 -72
-73 -108 l-49 -65 -5 45 c-4 39 -9 47 -37 60 -22 10 -33 22 -33 36 0 38 -26
50 -65 31 -39 -19 -46 -48 -19 -78 15 -17 14 -20 -5 -48 -45 -62 -104 -90
-118 -55 -3 10 7 29 29 52 49 51 63 79 47 98 -30 37 -94 -5 -120 -78 -7 -21
-27 -52 -45 -69 l-32 -31 -7 48 c-18 135 -20 139 -42 142 -18 3 -24 -4 -33
-40 -21 -84 -35 -113 -57 -116 -22 -3 -73 48 -73 73 0 21 -29 45 -45 39 -8 -4
-15 -14 -15 -23 0 -9 -10 -36 -21 -61 l-21 -45 -19 40 c-14 28 -18 52 -14 81
6 41 -11 74 -36 74 -49 0 -119 -98 -119 -167 0 -30 -3 -33 -29 -33 -35 0 -79
34 -96 73 -10 25 -9 39 7 91 11 33 21 93 21 131 2 64 0 70 -19 73 -13 2 -27
-6 -37 -21z m227 -284 c-12 -26 -18 -33 -21 -21 -5 19 28 89 34 71 2 -6 -4
-28 -13 -50z m405 -300 c1 -35 -2 -43 -16 -43 -29 0 -83 38 -83 58 0 11 19 41
43 67 l42 49 7 -45 c3 -24 7 -63 7 -86z"/>
<path d="M4794 3456 c-5 -13 10 -176 22 -236 3 -19 -1 -27 -18 -35 -28 -12
-35 -47 -13 -65 12 -10 18 -10 29 -1 12 10 17 8 26 -8 19 -36 59 -16 44 23 -6
15 23 26 69 26 24 0 27 -4 27 -34 0 -35 24 -66 40 -50 5 5 10 27 12 49 3 34 7
41 28 44 14 1 28 8 32 14 10 16 13 10 29 -53 11 -44 19 -56 37 -58 27 -4 26
-7 5 96 -15 72 -20 82 -37 80 -12 -2 -23 -13 -26 -28 -4 -18 -8 -21 -14 -12
-5 8 -18 11 -36 7 -25 -5 -28 -3 -34 26 -3 18 -9 63 -13 101 -6 67 -21 96 -44
82 -11 -6 -7 -112 8 -184 5 -26 3 -28 -42 -35 -33 -4 -50 -3 -55 5 -6 10 -30
208 -30 248 0 17 -39 15 -46 -2z"/>
<path d="M5627 3443 c-3 -4 -8 -40 -12 -79 -6 -60 -10 -71 -23 -68 -25 7 -79
-31 -98 -68 -10 -18 -20 -51 -24 -73 l-6 -40 -14 25 c-8 15 -17 76 -21 150 -4
69 -8 126 -8 128 -1 1 -9 2 -20 2 -20 0 -31 -34 -31 -100 0 -32 -3 -37 -18
-33 -25 6 -71 -34 -93 -81 -26 -58 -24 -92 6 -112 22 -14 30 -15 56 -3 17 7
40 26 50 42 l18 30 6 -25 c11 -43 84 -94 99 -70 3 5 16 7 28 5 31 -6 76 31 98
80 l18 39 17 -37 c28 -58 46 -65 153 -58 81 5 98 10 133 35 35 26 39 26 39 9
0 -11 7 -27 16 -35 24 -24 49 -4 84 64 17 33 34 60 39 60 5 0 19 -15 31 -34
29 -48 86 -96 113 -96 27 0 87 58 87 83 0 32 -28 30 -58 -4 -35 -39 -39 -37
-109 53 -60 79 -80 78 -126 -3 l-35 -61 -8 83 c-8 75 -11 84 -30 87 -19 3 -22
-3 -29 -55 -11 -90 -41 -133 -93 -133 -20 0 -20 0 -1 37 21 42 25 103 7 121
-7 7 -24 12 -39 12 -51 0 -100 -87 -87 -155 9 -44 -22 -28 -44 22 -15 34 -23
78 -27 153 -5 87 -9 105 -23 108 -9 2 -18 -1 -21 -5z m186 -240 l-18 -38 -3
28 c-4 33 30 94 36 65 2 -10 -5 -34 -15 -55z m-213 43 c0 -16 -34 -94 -47
-108 -22 -25 -33 -23 -33 7 0 32 24 81 47 94 19 11 33 14 33 7z m-256 -54
c-17 -41 -40 -69 -50 -59 -17 17 37 114 57 102 5 -4 2 -22 -7 -43z"/>
<path d="M3352 3425 c-23 -10 -32 -20 -30 -32 4 -19 27 -22 64 -9 25 8 34 -13
34 -79 0 -150 -82 -195 -259 -141 -152 46 -218 32 -282 -60 -37 -54 -33 -56
-99 51 -64 104 -115 108 -240 20 -94 -65 -123 -78 -162 -70 -63 14 -105 96
-111 218 -5 76 -17 98 -43 76 -13 -11 -15 -25 -10 -79 15 -142 69 -239 146
-260 62 -17 104 -1 215 81 94 69 119 65 177 -33 68 -115 101 -122 164 -37 20
27 44 54 54 59 31 17 95 11 190 -16 146 -42 221 -27 277 55 41 60 42 212 2
252 -22 22 -42 23 -87 4z"/>
<path d="M5097 3363 c-11 -10 -8 -61 3 -68 6 -3 16 -3 23 2 6 4 20 6 30 5 9
-2 20 4 24 14 11 30 -57 70 -80 47z"/>
<path d="M4397 3338 c-72 -10 -150 -61 -257 -168 -151 -150 -216 -297 -208
-471 3 -73 9 -96 41 -163 20 -43 37 -79 37 -81 0 -1 -8 -5 -18 -8 -11 -2 -22
-15 -25 -27 -7 -28 17 -52 137 -134 78 -53 89 -58 111 -48 14 7 30 24 36 39
15 38 4 132 -23 201 -30 74 -50 75 -63 3 l-11 -54 -29 34 c-41 49 -94 168
-101 230 -7 69 15 179 55 262 62 131 231 291 339 323 54 16 170 16 206 -1 14
-6 18 -5 14 6 -14 41 -144 72 -241 57z"/>
<path d="M488 2719 c-29 -17 -22 -109 8 -109 11 0 14 -17 14 -74 0 -40 3 -87
6 -104 5 -26 3 -31 -17 -34 -32 -4 -39 -43 -9 -51 30 -8 163 13 179 28 24 23
2 38 -49 32 -45 -5 -49 -4 -54 19 -4 14 -6 75 -5 136 l1 110 32 -31 c36 -35
66 -41 66 -13 0 23 -56 77 -93 91 -35 13 -57 13 -79 0z"/>
<path d="M1885 2683 c-9 -26 -19 -88 -22 -138 -6 -103 -19 -126 -67 -122 -23
1 -31 -3 -34 -17 -4 -20 21 -46 44 -46 6 0 28 11 48 25 37 25 37 25 58 5 12
-11 36 -23 54 -26 42 -8 155 20 171 43 11 15 14 14 34 -10 31 -41 74 -37 101
9 l21 35 21 -20 c31 -29 63 -26 96 9 15 16 30 26 34 23 13 -14 5 -41 -20 -64
-46 -42 -84 -110 -84 -150 0 -55 40 -99 89 -99 64 0 76 23 77 152 1 60 5 112
8 115 3 4 15 -2 27 -13 30 -27 108 -26 147 3 l30 22 7 -27 c13 -51 55 -46 55
7 0 14 6 48 13 76 10 39 18 51 38 55 35 8 37 38 3 46 -32 8 -54 -4 -71 -37
-12 -23 -13 -23 -13 13 0 20 -5 40 -10 43 -20 12 -40 -17 -40 -57 0 -87 -68
-146 -123 -105 -16 11 -13 16 32 50 58 43 73 78 46 107 -53 58 -153 -14 -156
-112 0 -18 -3 -26 -5 -18 -29 87 -37 101 -57 98 -15 -2 -26 -16 -37 -45 -22
-60 -35 -71 -59 -49 -10 10 -25 31 -31 47 -19 45 -42 33 -63 -34 -10 -31 -23
-57 -28 -57 -11 0 -32 45 -52 115 -18 61 -37 76 -74 55 -34 -19 -62 -73 -67
-130 -3 -41 -6 -45 -33 -48 -20 -2 -35 4 -51 21 -21 22 -22 28 -11 75 6 29 11
89 12 135 2 77 1 82 -19 85 -18 3 -25 -6 -39 -45z m730 -133 c-10 -15 -65 -52
-65 -43 0 15 40 53 56 53 8 0 13 -4 9 -10z m-495 -20 c0 -19 -28 -77 -40 -85
-14 -8 -10 18 10 70 9 25 30 35 30 15z m335 -317 c-6 -25 -33 -31 -53 -11 -21
21 -13 64 21 109 l32 44 3 -60 c2 -32 1 -69 -3 -82z"/>
<path d="M1410 2624 c-6 -14 -10 -38 -10 -53 0 -15 -5 -32 -12 -39 -9 -9 -9
-17 1 -36 22 -39 -8 -120 -37 -102 -5 3 -22 35 -37 71 -34 79 -53 82 -75 13
-8 -26 -20 -52 -26 -58 -13 -13 -18 1 -29 82 -7 49 -26 66 -45 43 -20 -24 3
-136 35 -168 24 -25 43 -21 75 14 l29 30 16 -30 c28 -55 77 -66 114 -27 22 23
24 24 52 8 25 -15 31 -15 38 -3 7 11 1 25 -20 48 -49 56 -37 103 26 103 26 0
50 24 40 41 -4 6 -24 9 -46 7 -38 -3 -39 -2 -39 27 0 53 -34 73 -50 29z"/>
<path d="M664 2556 c-7 -18 -5 -29 20 -121 28 -101 62 -110 106 -30 14 25 28
45 31 45 4 0 12 -13 19 -29 18 -43 65 -85 89 -78 20 5 21 1 21 -62 0 -76 17
-114 42 -93 11 9 14 30 10 90 l-4 79 44 22 c70 34 86 88 42 140 -18 22 -35 31
-56 31 -46 0 -65 -15 -72 -59 -8 -52 -27 -92 -40 -88 -6 2 -24 27 -41 55 -45
79 -75 80 -110 2 -10 -22 -21 -38 -24 -34 -3 3 -13 35 -21 72 -11 48 -20 68
-33 70 -9 2 -20 -4 -23 -12z m384 -68 c18 -18 14 -46 -7 -58 -29 -15 -31 -13
-31 23 0 46 14 59 38 35z"/>
<path d="M7426 2448 c-8 -13 -17 -41 -21 -63 -4 -26 -21 -59 -47 -92 -40 -49
-42 -51 -53 -30 -6 12 -23 28 -37 35 -59 28 -142 -43 -136 -118 3 -30 8 -37
36 -46 l33 -10 -22 -20 c-39 -35 -79 -96 -79 -123 0 -84 154 -191 198 -138 6
7 14 85 18 172 l7 160 35 42 c19 24 38 41 42 38 4 -2 10 -25 13 -50 4 -24 13
-61 22 -81 20 -49 50 -44 90 16 l31 46 23 -29 c36 -43 65 -53 96 -33 20 13 25
14 25 3 0 -24 37 -49 59 -42 27 8 28 45 1 52 -22 6 -25 28 -11 67 8 18 19 25
43 28 25 2 33 8 33 23 0 17 -6 20 -47 18 l-48 -1 0 55 c0 51 -2 54 -22 51 -21
-3 -24 -10 -31 -81 -4 -43 -13 -92 -20 -109 l-13 -31 -38 46 c-50 62 -69 60
-102 -5 l-27 -53 -9 30 c-19 70 -21 151 -4 183 19 37 21 83 4 100 -17 17 -26
15 -42 -10z m-168 -212 c5 -24 -26 -56 -55 -56 -31 0 -30 24 2 56 28 28 48 27
53 0z m7 -263 c-5 -69 -10 -93 -21 -93 -22 0 -94 75 -94 99 0 14 23 46 58 83
l57 60 3 -28 c2 -16 1 -71 -3 -121z"/>
<path d="M9341 2448 c-4 -13 -11 -44 -15 -70 -8 -55 -23 -63 -86 -47 -60 15
-91 7 -131 -36 -33 -34 -33 -34 -51 -15 -37 40 -67 14 -69 -57 0 -21 -4 -47
-8 -58 -7 -19 -9 -18 -22 5 -7 14 -14 45 -14 69 0 34 -6 48 -28 67 -33 28 -54
30 -86 8 -28 -20 -60 -88 -61 -129 0 -43 25 -75 59 -75 29 0 61 26 61 50 0 7
17 -5 38 -28 22 -23 44 -42 50 -42 22 0 52 40 52 69 0 47 19 46 22 -1 2 -35 7
-43 22 -43 16 0 22 11 31 57 15 77 49 118 98 118 27 0 36 -13 17 -25 -16 -10
-50 -82 -50 -105 0 -60 91 -81 140 -32 l28 29 9 -31 c11 -38 42 -42 59 -7 14
27 8 51 -11 51 -21 0 -28 79 -16 175 7 47 9 95 6 106 -9 26 -34 24 -44 -3z
m-488 -249 c-5 -18 -14 -34 -21 -37 -18 -6 -15 44 5 81 16 29 18 30 21 11 2
-12 -1 -37 -5 -55z m453 28 c-10 -47 -33 -77 -61 -77 -38 0 -28 37 23 92 30
33 46 27 38 -15z"/>
<path d="M6467 2433 c-11 -17 0 -207 12 -211 6 -2 11 -14 11 -27 0 -41 18 -77
38 -73 18 4 19 10 7 106 -7 57 -6 62 12 62 18 0 50 -28 67 -57 3 -6 1 -23 -5
-37 -14 -30 1 -76 24 -76 26 0 50 38 44 68 -5 23 0 36 23 60 18 20 34 30 44
26 20 -8 20 -12 -4 -59 -27 -53 -26 -100 2 -119 32 -23 53 -20 89 12 l32 28
23 -23 c30 -30 49 -29 80 2 l26 26 23 -26 c26 -27 75 -35 75 -11 0 8 -10 22
-21 30 -12 8 -30 28 -40 45 -25 41 -52 40 -80 -5 -21 -35 -23 -36 -36 -18 -10
14 -12 34 -7 71 6 53 6 53 -27 67 -19 8 -42 11 -53 6 -13 -4 -32 0 -54 13 -32
19 -35 19 -68 3 -19 -9 -37 -23 -40 -31 -5 -12 -14 -8 -45 20 -29 26 -48 35
-73 35 -34 0 -35 1 -38 47 -2 35 -7 49 -20 51 -9 2 -18 -1 -21 -5z m369 -215
c-7 -36 -35 -79 -56 -86 -19 -7 -6 52 21 89 27 39 43 38 35 -3z"/>
<path d="M8030 2408 c-11 -18 -25 -59 -31 -90 -10 -52 -14 -58 -45 -68 -43
-15 -58 -40 -42 -74 11 -26 41 -35 53 -16 4 6 2 17 -4 24 -9 10 -8 15 2 19 11
4 16 -9 20 -57 9 -94 34 -137 67 -116 10 6 10 16 -4 49 -9 23 -16 61 -16 85 0
49 9 56 71 56 l39 0 0 -49 c0 -59 32 -101 78 -101 51 0 72 51 49 118 l-15 42
39 0 c36 0 39 -2 48 -37 5 -21 11 -51 13 -68 2 -22 9 -31 25 -33 18 -3 22 3
28 40 11 65 34 115 56 121 26 7 24 34 -3 48 -19 10 -25 8 -44 -14 -12 -14 -24
-32 -27 -39 -3 -9 -10 -7 -26 10 -18 18 -32 22 -86 22 -35 0 -76 5 -89 12 -21
9 -29 8 -43 -4 -21 -18 -103 -31 -103 -16 0 24 23 98 31 98 5 0 9 -4 9 -10 0
-5 9 -10 20 -10 15 0 20 7 20 25 0 28 -32 65 -55 65 -8 0 -24 -15 -35 -32z
m200 -265 c0 -26 -25 -31 -34 -7 -3 9 -6 34 -6 57 l1 42 19 -35 c11 -19 19
-45 20 -57z"/>
<path d="M4997 2424 c-4 -4 -7 -31 -7 -61 0 -29 -4 -53 -10 -53 -5 0 -10 -9
-10 -20 0 -11 4 -20 9 -20 5 0 12 -20 16 -45 9 -61 43 -100 78 -91 31 7 59 34
54 50 -4 11 -27 13 -56 5 -20 -5 -39 57 -23 73 7 7 33 15 60 18 40 4 47 8 50
29 4 24 3 24 -57 18 l-60 -7 -3 53 c-2 37 -7 53 -18 55 -9 1 -19 0 -23 -4z"/>
<path d="M5640 2395 c-31 -33 -40 -123 -15 -161 16 -24 16 -27 -1 -45 -27 -30
-8 -53 47 -57 57 -4 86 16 70 45 -9 19 -7 22 21 32 46 16 54 14 68 -18 19 -47
47 -71 85 -71 72 0 113 107 63 164 -34 39 -75 43 -121 12 -21 -14 -46 -26 -55
-26 -9 -1 -40 -9 -68 -18 -50 -17 -52 -17 -63 0 -12 19 -15 91 -4 101 3 4 12
-1 18 -10 11 -15 15 -15 29 -4 17 14 20 38 10 65 -9 25 -57 19 -84 -9z m298
-137 c7 -7 12 -24 12 -38 0 -57 -48 -67 -73 -15 -16 33 -16 35 6 50 26 18 39
19 55 3z"/>
<path d="M6291 2394 c-31 -40 -36 -85 -14 -135 11 -24 28 -51 37 -59 17 -13
15 -15 -21 -25 -27 -8 -39 -17 -41 -33 -4 -27 10 -28 85 -6 30 9 57 22 60 30
3 8 -12 33 -36 59 -42 46 -58 83 -46 112 6 17 7 17 16 1 16 -29 39 -22 39 13
0 68 -42 91 -79 43z"/>
<path d="M4427 2373 c-20 -20 9 -238 34 -253 24 -15 51 11 82 81 l30 68 23
-56 c13 -31 30 -63 38 -71 24 -24 67 -18 95 14 l26 29 36 -37 c46 -49 87 -51
130 -9 24 24 29 38 29 76 0 59 -19 104 -59 138 -67 56 -131 26 -152 -71 -11
-52 -53 -117 -69 -107 -5 3 -20 37 -35 75 -47 123 -67 125 -117 14 l-33 -74
-7 37 c-4 21 -7 58 -7 84 -1 52 -23 84 -44 62z m447 -74 c19 -22 26 -42 26
-73 0 -64 -37 -87 -75 -46 -18 20 -32 107 -22 135 10 25 43 17 71 -16z"/>
<path d="M7017 2353 c-21 -21 6 -83 37 -83 21 0 21 33 0 65 -17 26 -26 30 -37
18z"/>
<path d="M8707 2314 c-3 -3 -3 -36 0 -73 3 -36 1 -77 -5 -91 -9 -24 -10 -23
-41 32 -51 89 -70 96 -97 34 l-13 -31 -1 51 c0 60 -18 84 -44 59 -12 -13 -15
-29 -10 -73 8 -85 12 -99 30 -106 21 -8 60 17 69 44 6 19 10 16 37 -25 48 -73
97 -71 118 4 14 50 13 154 -2 169 -13 13 -31 16 -41 6z"/>
<path d="M4835 1831 c-3 -11 -10 -53 -14 -93 -8 -73 2 -137 28 -186 25 -47 88
-56 126 -17 l25 24 25 -24 c30 -31 66 -32 101 -2 33 29 36 89 7 139 -17 29
-25 33 -69 36 -68 4 -156 2 -176 -4 -15 -4 -15 -1 -7 31 6 20 9 52 7 73 -2 29
-8 38 -25 40 -14 2 -23 -3 -28 -17z m155 -176 c0 -8 -9 -15 -19 -15 -16 0 -20
-8 -23 -37 -2 -31 -7 -39 -26 -41 -18 -3 -26 4 -37 32 -20 46 -19 47 11 40 17
-4 29 -1 37 9 7 8 21 17 32 20 11 3 21 5 23 6 1 0 2 -6 2 -14z m110 -24 c21
-51 -24 -99 -50 -52 -13 26 -13 54 2 69 19 19 35 14 48 -17z"/>
<path d="M7961 1811 c-6 -11 -11 -31 -11 -45 0 -15 -8 -30 -19 -36 -37 -19
-46 -12 -46 32 0 36 -3 43 -20 43 -16 0 -22 -10 -28 -46 -8 -40 -13 -48 -37
-52 -35 -8 -45 -33 -24 -64 10 -17 22 -23 35 -20 14 4 21 -1 25 -21 13 -61 27
-94 41 -99 28 -11 35 12 19 61 -9 26 -16 59 -16 75 0 24 5 30 32 35 17 3 33 4
35 2 2 -2 9 -35 14 -72 5 -38 13 -72 18 -77 16 -16 46 2 71 42 l24 40 30 -46
c36 -53 56 -69 80 -60 20 8 45 63 48 109 3 27 -1 33 -16 33 -14 0 -24 -13 -34
-45 -13 -39 -17 -42 -26 -26 -62 104 -94 119 -125 59 l-19 -38 -6 45 c-4 25
-5 76 -4 115 3 58 0 70 -14 73 -9 2 -21 -6 -27 -17z"/>
<path d="M8730 1781 c-5 -11 -10 -29 -10 -40 0 -35 -28 -24 -32 12 -2 24 -8
33 -25 35 -21 3 -23 -1 -23 -36 0 -38 -1 -40 -40 -46 -44 -7 -56 -22 -46 -61
8 -31 46 -35 46 -5 0 13 7 20 20 20 17 0 20 -7 20 -47 0 -27 3 -65 7 -86 5
-31 9 -38 27 -35 20 3 21 8 17 91 -3 75 -1 87 13 87 11 0 16 -9 16 -30 0 -47
20 -128 36 -140 24 -20 62 -3 86 40 13 22 25 40 28 40 3 0 13 -15 23 -33 25
-46 62 -65 140 -73 62 -6 67 -5 90 20 14 15 35 53 47 86 12 33 28 60 34 60 12
0 56 -60 56 -77 0 -6 -9 -13 -20 -16 -26 -7 -25 -32 2 -51 33 -23 65 -20 84 9
15 23 18 24 37 10 26 -18 115 -20 152 -3 30 14 41 48 25 78 -16 30 -55 24 -55
-10 0 -28 -26 -41 -69 -33 l-25 5 25 34 c53 69 38 153 -22 125 -26 -12 -63
-80 -64 -118 0 -33 -13 -28 -35 13 -30 56 -61 84 -93 84 -34 0 -50 -19 -84
-106 -13 -32 -30 -60 -37 -62 -10 -3 -12 0 -6 14 18 45 24 94 15 119 -24 63
-110 -5 -110 -86 0 -55 -23 -42 -57 32 -40 87 -58 88 -98 9 -31 -62 -41 -67
-49 -29 -11 56 -7 116 9 129 18 15 20 61 3 78 -18 18 -46 14 -58 -7z"/>
<path d="M7689 1763 c-10 -27 2 -211 16 -233 3 -5 15 -10 26 -10 22 0 22 -4 3
162 -5 42 -4 46 14 41 28 -7 36 23 12 47 -29 29 -58 25 -71 -7z"/>
<path d="M5590 1738 c-13 -28 -20 -65 -20 -106 0 -54 4 -67 25 -87 28 -29 79
-33 113 -9 21 15 24 14 51 -15 35 -38 73 -40 106 -7 32 32 41 83 21 129 l-15
37 30 0 c28 0 29 -1 29 -49 0 -96 40 -152 82 -114 12 10 31 40 43 66 l23 48
24 -43 c31 -58 69 -64 98 -16 11 18 22 38 24 43 3 6 10 1 17 -10 7 -11 31 -39
55 -63 l42 -43 85 5 c47 2 98 11 113 19 27 14 30 14 51 -9 30 -33 59 -30 96 9
l32 32 28 -29 c22 -22 35 -27 62 -24 l34 4 3 -71 c3 -62 5 -70 23 -70 18 0 20
8 23 81 l3 82 49 4 c29 3 59 13 70 23 54 49 -13 186 -85 173 -17 -4 -25 -1
-25 8 0 18 -39 18 -46 1 -2 -7 -8 -48 -12 -91 -5 -59 -11 -82 -24 -90 -36 -22
-60 10 -73 97 -4 28 -11 37 -25 37 -19 0 -23 -8 -35 -67 -7 -35 -40 -83 -57
-83 -6 0 -9 33 -7 89 4 98 -6 125 -34 96 -9 -8 -19 -32 -22 -53 -12 -72 -16
-82 -38 -96 -12 -8 -35 -18 -51 -22 -26 -6 -28 -5 -22 12 14 37 27 127 22 149
-3 13 -13 26 -22 29 -37 14 -103 -84 -104 -153 l0 -34 -25 23 c-14 13 -36 43
-50 66 -24 41 -48 59 -66 48 -5 -3 -19 -28 -31 -57 l-22 -51 -33 73 c-23 51
-38 72 -49 69 -9 -2 -28 -35 -46 -80 -16 -43 -34 -78 -39 -78 -5 0 -9 24 -9
54 0 30 -4 66 -9 79 -9 24 -11 25 -135 23 -128 -1 -165 -11 -138 -38 24 -24 2
-109 -30 -121 -30 -10 -48 13 -48 62 0 44 2 49 20 44 14 -4 21 1 26 22 10 39
-7 79 -34 83 -18 3 -26 -5 -42 -40z m1375 -88 c21 -41 19 -59 -9 -66 -49 -12
-55 -4 -39 49 7 26 18 47 23 47 5 0 16 -13 25 -30z m-1141 4 c23 -22 30 -62
17 -90 -22 -50 -68 -12 -78 66 -5 38 -4 40 20 40 14 0 33 -7 41 -16z"/>
<path d="M7380 1730 c-15 -9 -9 -124 10 -178 23 -62 78 -63 104 -1 l12 29 33
-40 c61 -76 105 -45 99 69 -3 49 -6 56 -25 59 -14 2 -32 -6 -47 -21 l-24 -24
-19 25 c-24 33 -49 24 -58 -20 -19 -93 -31 -86 -41 22 -6 78 -17 97 -44 80z"/>
<path d="M6895 1096 c-13 -10 -20 -30 -23 -72 -3 -53 0 -64 28 -106 31 -46 61
-61 75 -38 4 6 -7 29 -24 52 -31 42 -42 100 -21 113 14 9 12 41 -3 54 -10 8
-18 7 -32 -3z"/>
<path d="M9059 1064 c-17 -21 0 -49 32 -49 22 0 24 -4 23 -45 0 -25 -4 -60 -9
-78 -7 -31 -6 -34 15 -30 28 4 48 52 49 114 2 71 -74 131 -110 88z"/>
<path d="M10031 961 c-6 -11 -11 -42 -11 -70 0 -49 -1 -51 -27 -51 -63 -1
-113 -57 -113 -127 0 -85 75 -112 134 -49 l32 33 20 -22 c17 -19 35 -24 110
-30 104 -8 147 4 202 57 33 33 39 28 22 -18 -8 -21 -8 -31 4 -42 19 -19 77 -9
102 19 17 19 17 22 2 49 -15 27 -15 30 3 49 11 12 26 21 33 21 17 0 39 -53 38
-91 -1 -32 9 -42 31 -33 22 8 26 34 11 84 -28 94 -78 113 -143 55 -42 -38 -58
-34 -41 10 15 39 12 82 -6 89 -26 10 -64 -38 -64 -82 0 -60 -61 -122 -118
-122 -20 0 -20 1 -1 37 21 42 25 103 7 121 -45 45 -138 -38 -138 -124 0 -13
-4 -24 -10 -24 -22 0 -34 51 -40 159 -5 115 -17 145 -39 102z m189 -175 c0
-14 -12 -38 -26 -53 l-26 -28 6 34 c5 29 30 71 43 71 1 0 3 -11 3 -24z m-210
-18 c0 -35 -37 -88 -60 -88 -28 0 -28 62 0 90 28 28 60 26 60 -2z"/>
<path d="M8420 896 c0 -58 -5 -83 -20 -108 -24 -40 -25 -61 -4 -79 14 -11 18
-10 29 5 12 16 14 14 17 -20 2 -31 7 -39 23 -39 18 0 20 6 18 63 -3 71 10 80
52 37 19 -18 25 -35 25 -69 0 -25 5 -48 10 -51 20 -13 40 17 40 60 0 61 -33
106 -92 125 l-47 15 -3 65 c-3 59 -5 65 -25 68 -22 3 -23 0 -23 -72z"/>
<path d="M7064 945 c-10 -24 5 -219 19 -263 8 -25 19 -38 33 -40 18 -3 26 7
45 57 13 34 26 61 29 61 3 0 20 -24 37 -53 43 -72 66 -91 111 -90 20 1 58 2
84 2 46 0 119 29 133 52 4 6 17 -4 31 -25 14 -20 33 -36 44 -36 20 0 60 44 60
66 0 22 15 16 30 -12 16 -29 58 -54 90 -54 28 0 77 52 85 90 4 17 13 30 20 30
21 0 45 -29 45 -54 0 -31 33 -60 59 -51 11 3 30 22 42 41 l22 36 20 -36 c21
-36 48 -53 67 -41 15 9 12 45 -3 45 -8 0 -22 19 -32 43 -24 53 -43 77 -59 71
-7 -3 -24 -28 -37 -56 l-23 -50 -17 40 c-13 30 -26 43 -53 53 -31 11 -35 17
-38 53 -2 30 -8 42 -21 44 -76 15 -119 -90 -47 -113 23 -7 21 -30 -6 -72 -28
-45 -64 -23 -98 62 -37 91 -60 85 -86 -22 -6 -29 -15 -53 -19 -53 -14 0 -31
76 -31 134 0 48 -3 56 -19 56 -22 0 -31 -19 -31 -66 0 -47 -24 -90 -60 -109
-46 -24 -62 -20 -53 13 14 48 9 114 -8 125 -50 32 -113 -37 -106 -116 5 -60
-5 -52 -68 49 -56 89 -77 94 -112 26 l-21 -43 -6 53 c-4 29 -7 78 -9 108 -1
43 -6 56 -20 58 -9 2 -20 -4 -23 -13z m325 -231 l-13 -29 -4 27 c-2 15 3 37
10 50 12 22 13 22 16 2 1 -11 -3 -34 -9 -50z"/>
<path d="M6244 927 c-3 -8 0 -26 5 -40 13 -32 61 -39 61 -9 0 42 -53 82 -66
49z"/>
<path d="M9423 925 c-3 -9 -3 -38 -1 -65 4 -42 2 -50 -12 -50 -32 0 -53 -25
-46 -53 8 -34 43 -37 55 -4 8 20 10 18 16 -18 19 -107 21 -110 40 -110 22 0
24 16 12 98 -6 45 -6 47 18 47 46 0 74 -21 86 -64 14 -53 35 -76 71 -76 73 0
107 106 52 165 -21 23 -31 27 -61 22 -20 -4 -40 -12 -44 -18 -4 -7 -12 -8 -20
-3 -7 4 -36 13 -64 19 l-50 11 -3 57 c-3 49 -6 57 -23 57 -11 0 -22 -7 -26
-15z m262 -200 c0 -33 -3 -40 -20 -40 -14 0 -21 9 -26 35 -9 42 -4 52 24 48
18 -2 22 -10 22 -43z"/>
<path d="M10580 916 c-16 -20 -9 -61 11 -61 9 0 23 -6 30 -12 9 -7 20 -8 28
-3 25 15 -19 90 -52 90 -3 0 -10 -7 -17 -14z"/>
<path d="M3887 903 c-18 -18 6 -182 32 -214 23 -29 43 -17 75 48 l27 56 39
-61 c54 -85 73 -82 119 16 14 29 27 52 31 52 3 0 16 -24 29 -54 12 -30 30 -61
39 -69 9 -8 47 -18 84 -22 64 -6 69 -5 91 19 l24 26 11 -25 c13 -28 57 -43 81
-28 9 5 25 26 36 46 l21 36 19 -37 c37 -69 94 -53 140 38 l23 44 7 -51 c6 -48
4 -55 -30 -104 -93 -136 -106 -263 -34 -340 39 -41 68 -36 94 16 16 33 20 66
23 195 3 152 4 155 29 177 31 25 25 56 -9 51 -20 -3 -23 3 -30 50 -18 119 -49
123 -104 15 -21 -42 -44 -79 -50 -81 -7 -1 -20 19 -30 45 -9 26 -25 56 -34 66
-22 24 -34 13 -63 -62 -12 -30 -27 -56 -34 -58 -14 -5 -33 57 -33 110 0 23 -5
40 -14 43 -8 3 -16 14 -19 25 -17 65 -137 -58 -137 -141 0 -44 -31 -17 -67 58
-32 65 -42 77 -63 77 -20 0 -31 -11 -55 -57 -17 -31 -33 -59 -36 -63 -4 -3
-19 14 -33 39 -49 83 -88 88 -119 14 -22 -53 -22 -53 -28 -23 -4 17 -7 48 -8
71 -1 48 -24 78 -44 57z m930 -458 c-2 -55 -9 -111 -15 -125 -10 -24 -11 -24
-32 23 -26 58 -21 103 18 187 32 67 36 55 29 -85z"/>
<path d="M8093 894 c-7 -18 22 -84 36 -84 23 0 32 39 16 70 -17 33 -42 39 -52
14z"/>
<path d="M8562 898 c-13 -17 -3 -68 13 -68 7 0 19 -10 27 -22 16 -23 48 -20
48 5 0 17 -57 97 -69 97 -5 0 -13 -6 -19 -12z"/>
<path d="M8247 879 c-45 -26 -60 -109 -27 -152 17 -21 18 -26 5 -31 -16 -6
-20 -32 -6 -40 5 -3 32 0 60 7 62 14 66 34 14 68 -41 26 -51 55 -33 89 10 19
12 19 27 5 18 -18 43 -4 43 24 0 36 -44 53 -83 30z"/>
<path d="M5287 874 c-4 -4 -7 -30 -7 -57 0 -40 4 -50 19 -54 20 -5 31 -30 31
-75 0 -39 10 -58 31 -58 13 0 21 12 29 43 18 71 41 137 49 141 4 3 15 -8 25
-25 9 -16 21 -29 25 -29 4 0 6 -24 3 -53 -5 -60 0 -66 65 -87 51 -16 118 -8
173 20 21 11 41 20 42 20 2 0 3 -39 4 -88 0 -64 5 -96 18 -122 25 -49 46 -70
67 -70 25 0 37 27 51 115 10 64 10 78 -2 85 -24 15 -38 -8 -45 -72 -7 -55 -9
-60 -21 -44 -35 49 -26 227 15 284 32 46 38 88 13 101 -27 15 -67 -1 -110 -42
-35 -33 -72 -95 -72 -120 0 -17 -30 -27 -79 -27 l-33 0 30 35 c30 34 47 85 40
120 -8 42 -63 44 -106 4 -23 -20 -24 -20 -37 -3 -8 11 -15 22 -15 26 0 4 -9
12 -21 18 -34 19 -64 4 -84 -40 l-18 -41 -16 48 c-11 34 -22 49 -36 51 -12 2
-24 0 -28 -4z m313 -94 c0 -11 -13 -34 -30 -52 -26 -29 -29 -30 -30 -13 0 21
25 64 44 77 15 11 16 10 16 -12z"/>
<path d="M6493 870 c-12 -5 -32 -22 -44 -39 l-22 -31 -18 29 c-19 32 -55 49
-71 33 -5 -5 -8 -25 -6 -43 2 -26 8 -34 23 -34 24 0 44 -30 45 -67 0 -40 10
-58 31 -58 16 0 19 7 19 41 0 61 43 129 82 129 14 0 19 6 16 22 -3 25 -22 31
-55 18z"/>
<path d="M10713 849 c-38 -24 -67 -81 -59 -115 8 -31 48 -41 81 -20 24 16 25
16 25 -6 -1 -14 -21 -43 -50 -73 -81 -81 -86 -138 -19 -186 24 -17 47 -23 82
-24 66 0 76 15 58 92 -7 32 -15 78 -18 103 -5 44 -3 49 48 108 l54 62 10 -72
c14 -103 33 -100 88 12 24 49 48 85 57 85 21 0 36 -71 20 -100 -13 -24 -8 -55
8 -55 5 0 17 9 28 21 15 16 19 34 17 77 -3 72 -27 107 -74 107 -29 0 -38 -6
-66 -48 l-32 -48 -6 28 c-11 47 -14 53 -32 60 -12 5 -32 -10 -75 -58 l-58 -64
0 33 c0 22 5 32 15 32 21 0 19 33 -3 53 -25 23 -60 21 -99 -4z m63 -309 c8
-35 12 -65 10 -68 -16 -16 -96 32 -96 58 0 12 61 82 67 76 2 -2 11 -32 19 -66z"/>
<path d="M5962 847 c-6 -7 -14 -38 -17 -68 -5 -45 -2 -62 17 -99 20 -39 27
-45 60 -48 31 -3 40 2 64 31 l27 34 30 -34 c39 -44 75 -42 98 4 l16 32 11 -24
c15 -32 62 -36 62 -5 0 11 -4 20 -9 20 -5 0 -19 25 -32 55 -18 44 -27 55 -43
53 -13 -2 -22 -14 -27 -33 -4 -16 -10 -42 -13 -57 -4 -16 -10 -28 -15 -28 -4
0 -23 27 -40 61 -18 33 -38 58 -44 56 -7 -2 -18 -17 -25 -33 -39 -89 -60 -104
-80 -59 -19 41 -15 81 9 97 19 12 20 17 10 36 -13 25 -43 29 -59 9z"/>
<path d="M6572 837 c-28 -29 -52 -89 -52 -127 0 -38 47 -89 82 -91 63 -3 118
21 118 51 0 24 -15 25 -61 6 -21 -9 -42 -11 -55 -6 -34 13 -36 27 -5 33 54 11
100 107 66 140 -23 24 -68 21 -93 -6z m58 -36 c0 -5 -8 -19 -18 -32 -23 -28
-37 -11 -16 19 15 22 34 29 34 13z"/>
<path d="M8725 827 c-30 -30 -55 -88 -55 -129 0 -9 10 -29 23 -44 33 -38 106
-38 171 0 25 15 51 24 57 20 8 -5 6 -10 -5 -16 -20 -11 -21 -37 -2 -44 7 -3
30 2 50 10 45 19 47 44 6 74 l-30 23 20 39 c24 46 26 86 5 93 -18 7 -63 -45
-71 -81 -9 -44 -18 -56 -64 -79 -51 -27 -69 -28 -95 -9 -17 12 -18 18 -7 53 6
22 21 48 33 59 21 19 22 19 36 -3 31 -47 60 -19 37 35 -19 45 -63 45 -109 -1z"/>
</g>
</svg>
