<?xml version="1.0" standalone="no"?>
<!DOCTYPE svg PUBLIC "-//W3C//DTD SVG 20010904//EN"
 "http://www.w3.org/TR/2001/REC-SVG-20010904/DTD/svg10.dtd">
<svg version="1.0" xmlns="http://www.w3.org/2000/svg"
 width="791.176657pt" height="400.000000pt" viewBox="0 0 791.176657 400.000000"
 preserveAspectRatio="xMidYMid meet">
<metadata>
Created by potrace 1.14, written by Peter Selinger 2001-2017
</metadata>
<g transform="translate(-12.531293,478.404683) scale(0.057651,-0.057651)"
fill="#444444" stroke="none">
<path d="M8273 8293 l-33 -4 0 -72 c0 -40 -5 -90 -11 -112 -8 -29 -8 -40 0
-43 7 -2 11 -37 11 -93 0 -49 4 -89 9 -89 12 0 41 74 41 105 0 23 4 25 41 25
43 0 44 -5 7 -47 -11 -11 -18 -29 -16 -40 8 -40 145 -4 182 49 l16 22 0 -25
c0 -33 23 -64 40 -54 9 6 11 30 8 88 -4 67 -8 83 -27 98 -25 20 -41 17 -88
-17 -19 -15 -46 -24 -67 -24 l-36 0 34 45 c54 70 58 124 13 173 -21 22 -43 25
-124 15z m97 -54 c17 -30 4 -71 -38 -120 l-37 -43 -5 79 c-3 44 -1 86 4 93 14
20 64 15 76 -9z m71 -259 c-30 -26 -49 -26 -26 0 10 11 25 20 34 20 12 -1 10
-5 -8 -20z"/>
<path d="M8527 8244 c-4 -4 3 -20 14 -36 27 -37 36 -30 14 11 -17 33 -18 34
-28 25z"/>
<path d="M13572 8204 c-12 -8 -22 -21 -22 -29 0 -16 -58 -29 -230 -51 -93 -11
-297 -17 -790 -24 -658 -9 -1226 -25 -1252 -35 -8 -3 -21 -18 -30 -33 -14 -24
-15 -49 -7 -202 12 -246 26 -408 54 -610 32 -236 52 -459 70 -805 9 -159 20
-346 25 -415 54 -713 83 -2198 60 -3070 -10 -365 -22 -508 -65 -762 -33 -194
-44 -311 -34 -356 9 -43 77 -112 109 -112 11 0 47 11 79 25 140 59 372 120
607 159 381 65 460 71 864 70 211 0 427 -6 494 -13 104 -10 122 -10 142 4 33
21 33 69 0 90 -19 12 -38 14 -91 9 l-67 -7 15 29 c8 16 27 104 41 196 33 209
35 425 6 713 -44 448 -50 758 -25 1360 8 198 21 558 30 800 26 743 69 1462 89
1483 3 3 69 9 147 13 77 4 143 10 147 13 16 17 -25 24 -150 28 -76 3 -139 6
-141 9 -2 2 4 98 14 214 30 362 42 621 43 890 1 246 -2 284 -31 388 -4 16 -51
47 -70 47 -5 0 -19 -7 -31 -16z m-5 -391 c-4 -213 -29 -794 -43 -1041 l-6 -94
-82 8 c-44 4 -461 7 -926 6 -761 -1 -976 3 -1041 23 -13 5 -17 31 -22 168 -3
89 -13 230 -21 312 -18 172 -64 749 -62 783 0 23 1 23 76 15 101 -11 1042 -6
1360 7 289 12 556 28 645 40 33 4 75 8 94 9 l34 1 -6 -237z m-1946 -1214 c158
-23 1464 -11 1822 17 l77 6 -5 -543 c-11 -1083 -36 -1653 -96 -2244 -32 -309
-35 -628 -10 -926 27 -315 26 -400 -4 -589 -29 -179 -30 -209 -12 -253 l14
-32 -321 4 c-518 5 -918 -23 -1196 -85 -63 -14 -182 -48 -264 -75 -106 -34
-153 -46 -160 -39 -19 19 -8 328 17 500 22 154 22 160 20 1385 -2 1228 -10
1646 -37 1995 -15 190 -20 432 -18 742 l2 177 38 -13 c21 -8 81 -20 133 -27z"/>
<path d="M12421 7728 c-10 -15 -16 -62 -19 -135 l-5 -113 -26 0 c-41 0 -71
-11 -71 -26 0 -17 52 -32 58 -16 2 7 12 12 22 12 18 0 30 -35 30 -87 0 -32
-27 -83 -44 -83 -20 0 -62 53 -97 121 -42 83 -77 80 -97 -9 -6 -23 -19 -56
-30 -74 l-21 -33 -16 37 c-10 24 -15 69 -15 128 0 72 -3 90 -15 90 -27 0 -39
-43 -40 -140 0 -76 4 -103 20 -135 39 -78 103 -68 151 23 l22 42 22 -35 c48
-78 111 -97 162 -48 15 15 28 21 28 15 0 -20 72 -94 82 -84 5 5 0 45 -11 93
-10 46 -22 108 -26 137 l-7 52 40 0 c22 0 47 3 55 6 13 5 14 -1 4 -38 -6 -24
-11 -146 -11 -278 -1 -253 4 -280 48 -280 43 0 48 18 36 136 -14 149 -15 141
23 148 50 9 112 54 137 99 17 30 21 50 18 88 -3 32 -1 53 7 59 16 13 25 -16
25 -80 0 -25 5 -65 11 -90 28 -121 128 -120 160 2 l13 46 21 -46 c23 -49 46
-74 79 -86 13 -4 28 3 52 29 18 19 35 31 38 26 9 -14 98 -33 108 -23 6 6 -8
27 -36 56 -49 49 -52 58 -35 135 12 56 9 54 133 65 56 5 75 11 65 21 -3 2 -44
8 -91 11 l-87 7 6 101 c5 91 4 103 -15 126 -17 21 -24 23 -48 15 -37 -13 -60
-60 -75 -155 -13 -87 -6 -201 18 -276 13 -44 14 -56 3 -68 -7 -9 -16 -16 -20
-16 -8 0 -33 56 -70 158 -27 76 -54 96 -82 62 -10 -12 -18 -38 -18 -59 0 -39
-28 -146 -36 -138 -3 2 -15 55 -28 116 -32 149 -47 167 -88 107 l-24 -34 -22
34 c-12 18 -40 43 -61 54 -22 11 -42 24 -46 30 -9 15 -46 12 -66 -6 -10 -9
-46 -19 -80 -23 l-61 -8 3 126 4 126 -25 3 c-17 2 -29 -4 -39 -20z m839 -183
c0 -56 -3 -75 -14 -75 -10 0 -12 13 -9 53 9 117 23 131 23 22z m-561 -120 c64
-32 76 -129 22 -177 -18 -16 -36 -26 -41 -23 -5 3 -11 1 -15 -5 -3 -5 -11 -10
-17 -10 -10 0 -5 136 8 203 6 32 6 31 43 12z"/>
<path d="M11820 7587 c-53 -27 -98 -171 -79 -255 15 -70 57 -112 113 -112 136
0 185 238 70 340 -19 16 -39 30 -44 30 -4 0 -14 2 -22 5 -7 3 -24 -1 -38 -8z
m63 -82 c4 -29 4 -29 12 -7 6 18 10 20 16 10 15 -23 10 -38 -13 -38 -12 0 -18
-3 -14 -7 4 -4 17 -8 29 -8 29 0 34 -43 12 -102 -17 -45 -39 -63 -74 -63 -64
0 -67 200 -4 248 21 15 30 6 36 -33z"/>
<path d="M12552 6237 c-47 -107 -77 -339 -67 -532 6 -135 16 -176 34 -146 8
12 55 289 92 540 14 97 5 181 -21 181 -13 0 -25 -14 -38 -43z"/>
<path d="M12427 4962 c-7 -35 1 -526 11 -642 4 -47 11 -85 17 -85 13 0 21 64
35 283 12 189 5 338 -21 434 -12 45 -34 50 -42 10z"/>
<path d="M12476 3762 c-22 -35 -3 -471 21 -479 16 -6 28 104 28 272 0 155 -9
215 -30 215 -8 0 -16 -4 -19 -8z"/>
<path d="M12520 2751 c-79 -26 -111 -43 -107 -55 2 -6 23 -10 46 -8 l42 3 -31
-39 c-56 -70 -92 -226 -68 -297 26 -79 127 -111 199 -62 49 33 97 101 115 165
22 74 24 197 4 236 -35 68 -108 89 -200 57z m106 -76 c28 -19 35 -60 23 -135
-17 -105 -69 -180 -125 -180 -53 0 -54 61 -2 213 16 49 27 95 24 103 -7 19 53
19 80 -1z"/>
<path d="M8923 8158 c-34 -39 -53 -72 -53 -93 0 -12 -14 -43 -31 -71 l-32 -49
-18 65 c-10 36 -18 74 -19 86 0 28 -31 54 -64 54 -77 0 -149 -178 -100 -248
23 -33 69 -29 104 8 l28 30 17 -26 c26 -39 71 -30 111 23 18 23 34 47 36 54 3
9 13 7 36 -6 18 -11 32 -22 32 -25 0 -4 -13 -16 -30 -28 -16 -13 -30 -28 -30
-34 0 -14 63 -6 113 15 29 13 37 22 37 41 0 21 -12 32 -64 63 -51 28 -63 40
-57 52 30 58 42 91 36 100 -10 17 -30 13 -52 -11z m-188 -67 c3 -5 1 -12 -5
-16 -5 -3 -17 -30 -25 -59 -30 -103 -77 -108 -51 -6 18 69 61 112 81 81z"/>
<path d="M6705 8087 c-34 -34 -73 -68 -88 -74 -21 -10 -27 -20 -27 -42 0 -41
19 -49 130 -52 92 -3 95 -2 94 19 -1 26 7 27 45 7 82 -42 149 -177 190 -384
15 -74 32 -136 38 -138 14 -5 23 69 23 199 0 100 -3 116 -31 185 -38 90 -80
147 -138 188 -38 27 -51 30 -116 30 l-73 0 34 38 c36 40 41 56 22 75 -22 22
-42 12 -103 -51z"/>
<path d="M6112 8068 c-35 -17 -60 -68 -73 -148 -9 -58 -18 -82 -43 -112 -29
-36 -34 -39 -74 -35 -24 3 -45 7 -48 9 -15 15 47 128 71 128 19 0 8 -34 -21
-65 -13 -15 -18 -25 -10 -25 19 0 55 43 66 78 10 36 -7 62 -40 62 -26 0 -84
-53 -104 -94 -30 -64 -31 -92 -3 -120 15 -14 38 -26 52 -26 31 0 31 -1 0 -46
-34 -50 -35 -110 -1 -125 33 -15 73 -4 107 30 35 36 45 87 26 134 -14 33 -14
37 3 52 18 16 19 15 34 -14 30 -58 92 -53 129 10 l24 40 13 -31 c26 -62 90
-88 137 -55 14 10 24 12 28 5 9 -15 51 -12 65 5 11 13 10 18 -5 28 -23 17 -33
101 -14 120 8 7 30 17 48 20 78 16 111 28 105 39 -4 7 -34 9 -85 5 l-79 -5 3
61 c2 57 0 62 -20 65 -32 5 -43 -31 -48 -154 -4 -114 -15 -147 -48 -142 -15 2
-28 20 -47 68 -20 49 -32 66 -48 68 -19 3 -27 -7 -52 -63 -33 -73 -50 -79 -64
-23 -8 32 -4 42 43 119 58 95 64 125 25 139 -14 6 -26 10 -27 9 -1 0 -12 -5
-25 -11z m33 -65 c-43 -67 -45 -69 -45 -50 0 29 29 77 46 77 14 0 14 -3 -1
-27z m-191 -384 c-22 -24 -49 -26 -40 -1 4 9 17 32 29 49 l22 33 3 -31 c2 -19
-3 -38 -14 -50z"/>
<path d="M5170 7993 c-17 -37 -25 -200 -11 -236 22 -57 85 -55 110 4 9 22 18
39 21 39 3 -1 17 -18 32 -40 27 -39 64 -57 93 -46 26 10 36 56 33 160 -3 93
-5 101 -23 101 -18 0 -20 -7 -22 -70 -4 -92 -12 -137 -24 -130 -5 4 -23 33
-39 64 -46 92 -75 87 -105 -14 -25 -88 -38 -60 -34 73 4 120 -5 149 -31 95z"/>
<path d="M5775 7969 c-4 -5 -3 -18 0 -29 6 -17 8 -18 21 -6 8 8 14 19 14 24 0
14 -28 23 -35 11z"/>
<path d="M5546 7941 c-47 -51 -60 -173 -26 -229 11 -18 32 -37 48 -43 36 -14
95 4 121 37 19 24 20 25 30 5 16 -29 46 -35 81 -14 34 20 35 40 1 35 -17 -3
-25 5 -36 32 -8 19 -15 46 -15 59 0 28 -23 52 -43 44 -8 -3 -19 -25 -25 -49
-20 -79 -74 -122 -110 -86 -9 9 -8 16 4 29 40 44 57 155 28 183 -21 21 -37 20
-58 -3z m24 -127 c-17 -52 -22 -35 -8 27 8 36 13 47 16 31 2 -12 -2 -38 -8
-58z"/>
<path d="M7898 7912 c-50 -23 -58 -30 -58 -54 0 -29 24 -43 54 -32 14 5 12 -5
-13 -54 -78 -155 -94 -350 -46 -569 11 -50 23 -18 29 75 11 188 26 290 53 373
l27 84 6 -40 c8 -64 30 -50 68 44 19 47 37 102 40 123 10 79 -53 99 -160 50z"/>
<path d="M3275 7674 c-55 -2 -353 -13 -663 -25 -482 -19 -566 -20 -588 -8 -23
12 -27 11 -38 -2 -9 -14 -68 -19 -386 -33 -206 -9 -539 -19 -740 -21 -504 -8
-605 -13 -631 -34 -21 -16 -20 -18 53 -88 l73 -72 -1 -103 c-7 -611 -24 -1121
-50 -1433 -25 -297 -28 -391 -28 -740 -1 -359 2 -430 27 -690 35 -372 43 -518
62 -1030 21 -561 43 -1036 55 -1165 25 -266 58 -528 69 -549 21 -39 75 -54
216 -59 123 -4 137 -3 260 29 l130 33 370 3 c264 1 409 7 505 18 74 9 176 21
225 27 153 18 403 4 620 -33 l190 -33 425 -1 c389 0 428 2 461 18 64 32 64 35
61 386 -4 404 -19 879 -32 1029 -6 64 -30 243 -53 397 l-42 280 1 325 c0 288
4 363 32 659 42 435 53 677 47 996 -4 143 -10 573 -15 955 -12 844 -19 924
-92 949 -32 11 -353 21 -523 15z m378 -91 c96 -5 107 -8 114 -27 4 -12 5 -149
3 -306 -3 -157 -5 -417 -5 -578 l0 -292 -42 0 c-24 0 -166 -13 -315 -30 -442
-48 -552 -56 -1263 -95 l-101 -5 1 649 0 650 45 5 c25 3 151 10 280 16 129 6
255 12 280 14 94 6 902 6 1003 -1z m-1687 -150 c-15 -262 -26 -633 -26 -900
l0 -281 -102 -7 c-57 -4 -366 -5 -688 -2 -518 3 -593 6 -653 21 l-69 18 6 77
c8 92 30 774 31 921 0 124 -6 149 -45 194 l-30 33 523 0 c436 0 563 3 772 20
138 11 258 21 269 22 18 1 18 -6 12 -116z m1808 -1185 c10 -47 27 -402 33
-653 6 -297 -4 -525 -47 -985 -38 -418 -54 -700 -46 -840 4 -63 20 -227 36
-365 16 -137 34 -306 40 -375 12 -155 40 -895 40 -1087 0 -138 -1 -142 -22
-150 -31 -11 -545 -6 -738 7 -85 6 -238 24 -340 40 -102 15 -216 31 -255 35
-142 12 -158 15 -141 28 9 7 25 47 36 90 16 69 17 84 5 130 -7 29 -16 97 -20
152 -3 55 -19 170 -35 255 -54 293 -64 394 -85 851 -19 425 -33 606 -90 1159
-72 694 -85 879 -100 1422 l-6 206 83 6 c46 4 229 18 407 31 300 23 815 51
1061 58 58 2 122 4 142 5 32 2 38 -1 42 -20z m-3264 -52 c127 -36 293 -49 665
-50 198 0 453 3 566 7 l206 8 7 -128 c10 -185 51 -648 91 -1023 102 -944 104
-985 115 -1645 9 -566 12 -608 64 -890 15 -77 31 -191 36 -254 8 -102 7 -120
-10 -172 -24 -71 -25 -117 -4 -140 15 -16 11 -18 -53 -24 -37 -3 -131 -15
-208 -26 -234 -32 -377 -40 -640 -33 l-250 6 -163 -41 c-112 -28 -185 -41
-232 -41 -92 0 -100 4 -100 50 0 20 -9 102 -19 181 -23 171 -37 338 -51 624
-15 304 -35 553 -90 1152 -28 293 -55 635 -61 760 -19 382 -5 853 47 1621 4
68 9 90 17 83 7 -5 37 -16 67 -25z"/>
<path d="M2473 7025 c-22 -15 -36 -53 -46 -127 -8 -52 10 -48 23 5 27 109 57
96 75 -34 5 -33 2 -55 -9 -77 -18 -35 -21 -98 -5 -107 18 -12 57 4 64 26 7 20
9 19 36 -15 37 -44 89 -61 133 -42 37 16 112 91 98 99 -5 4 -33 -3 -62 -14
-62 -24 -94 -16 -110 27 -11 27 0 124 21 182 16 46 5 82 -26 82 -20 0 -30 -11
-54 -57 l-28 -57 -7 32 c-7 31 -55 92 -73 92 -5 0 -18 -7 -30 -15z"/>
<path d="M2866 6877 c-15 -11 -16 -17 -5 -40 7 -16 18 -26 26 -23 16 7 33 -24
33 -61 0 -20 -11 -40 -35 -63 -19 -19 -47 -51 -61 -71 -21 -31 -24 -41 -14
-59 18 -34 52 -41 148 -30 109 12 267 60 267 80 0 13 -22 14 -139 11 l-139 -4
22 32 c32 44 38 101 16 156 -23 63 -83 98 -119 72z"/>
<path d="M775 7016 c-11 -16 -15 -40 -13 -68 3 -41 4 -42 12 -13 4 17 11 39
16 50 7 19 9 18 19 -8 6 -16 11 -62 11 -103 0 -64 -4 -81 -31 -129 -38 -67
-37 -109 2 -113 21 -2 31 4 49 33 12 20 28 55 35 77 l12 41 20 -39 c23 -46 69
-76 118 -77 32 -1 35 -4 40 -36 11 -66 37 -176 52 -214 29 -72 38 -40 44 169
3 109 9 229 14 265 7 65 7 67 -18 84 -20 12 -30 14 -46 6 -21 -11 -26 -30 -37
-126 -4 -33 -12 -63 -18 -67 -20 -13 -45 -9 -66 12 -25 25 -27 103 -5 178 9
29 13 57 10 62 -18 28 -75 -8 -90 -58 -9 -29 -21 -20 -29 21 -7 40 -39 77 -66
77 -11 0 -27 -11 -35 -24z"/>
<path d="M2669 5812 c-60 -39 -153 -142 -140 -155 7 -7 15 -6 26 3 22 18 25
10 15 -35 -22 -94 -7 -179 40 -220 18 -16 36 -20 94 -20 64 0 77 3 110 28 117
90 141 288 47 387 -35 37 -42 40 -92 40 -43 0 -65 -6 -100 -28z m136 -72 c21
-23 31 -108 21 -165 -19 -102 -162 -156 -179 -68 -3 15 3 73 12 127 17 99 17
100 52 112 50 18 74 17 94 -6z"/>
<path d="M2750 4633 c-28 -97 -16 -440 15 -437 15 1 22 66 30 282 7 189 7 192
-14 192 -15 0 -23 -10 -31 -37z"/>
<path d="M2755 3692 c-55 -19 -181 -87 -190 -102 -10 -16 23 -23 56 -11 28 10
30 9 23 -7 -35 -81 -46 -131 -42 -201 3 -68 6 -75 36 -102 79 -71 223 2 292
149 29 61 33 172 7 219 -35 65 -100 85 -182 55z m96 -93 c18 -18 21 -29 16
-74 -8 -82 -55 -158 -119 -191 -81 -42 -108 21 -73 174 19 84 25 92 66 102 59
14 88 11 110 -11z"/>
<path d="M2720 2641 c-5 -11 -10 -35 -10 -53 0 -18 -9 -82 -19 -143 -28 -164
-35 -241 -22 -249 25 -16 99 216 108 340 6 84 -4 124 -32 124 -8 0 -19 -9 -25
-19z"/>
<path d="M1021 5695 c-18 -8 -46 -15 -62 -15 -19 0 -34 -8 -46 -26 -10 -14
-30 -40 -45 -58 -18 -22 -24 -36 -17 -43 6 -6 4 -31 -6 -74 -53 -228 40 -348
194 -250 100 64 156 175 156 306 0 65 -4 87 -22 116 -36 57 -86 72 -152 44z
m71 -82 c22 -20 25 -113 6 -177 -24 -80 -148 -180 -181 -147 -24 24 -3 280 25
297 5 3 15 1 23 -6 10 -9 15 -7 20 9 5 16 23 25 84 40 3 1 13 -6 23 -16z"/>
<path d="M1044 4624 c-51 -34 -164 -145 -164 -161 0 -7 6 -13 14 -13 12 0 14
-13 9 -68 -13 -153 81 -238 203 -183 87 40 144 145 144 269 0 151 -100 227
-206 156z m112 -101 c30 -70 -5 -191 -66 -234 -68 -48 -110 -24 -118 64 -8
101 17 191 34 122 10 -40 27 -29 19 13 -6 35 -4 39 27 54 18 9 46 17 61 17 23
1 31 -5 43 -36z"/>
<path d="M1039 3584 c-19 -50 -5 -225 29 -342 16 -56 32 -105 36 -109 17 -18
18 23 2 190 -23 249 -42 323 -67 261z"/>
<path d="M1022 2527 c-20 -24 -44 -196 -37 -261 14 -130 31 -216 44 -216 9 0
34 466 26 480 -8 14 -21 12 -33 -3z"/>
<path d="M6985 7336 c-16 -7 -41 -25 -54 -39 -41 -45 -4 -80 39 -37 11 11 30
21 43 23 37 4 35 -48 -5 -107 -64 -96 -64 -95 -52 -113 17 -27 119 -21 229 11
86 26 115 40 104 51 -3 2 -58 -1 -122 -7 -64 -6 -119 -9 -122 -6 -3 3 6 26 21
52 37 66 37 131 0 163 -31 26 -40 27 -81 9z"/>
<path d="M5530 7281 c-5 -11 -10 -27 -10 -35 0 -18 -16 -21 -25 -6 -10 16 -72
12 -90 -6 -21 -21 -48 -74 -37 -74 4 0 18 14 30 30 15 19 31 30 47 30 38 0 42
-37 11 -98 -30 -59 -32 -80 -11 -89 20 -7 49 19 66 59 l12 30 12 -29 c28 -64
99 -97 139 -63 24 19 20 26 -21 36 -31 7 -42 17 -61 54 -20 39 -23 54 -18 113
6 62 5 67 -14 67 -10 0 -24 -9 -30 -19z"/>
<path d="M6693 7223 c-35 -2 -63 -8 -63 -12 0 -7 148 -21 233 -21 30 0 37 4
37 20 0 18 -6 20 -72 18 -40 -1 -101 -3 -135 -5z"/>
<path d="M5723 7183 c-23 -94 9 -363 44 -363 14 0 15 17 9 158 -4 86 -9 169
-11 184 -7 53 -30 65 -42 21z"/>
<path d="M8045 7164 c-11 -3 -51 -14 -90 -26 -38 -12 -83 -20 -98 -19 -54 3
-154 -71 -229 -169 -47 -62 -54 -68 -82 -64 -170 24 -424 68 -799 140 -247 47
-458 84 -470 82 -35 -5 -26 -32 13 -40 274 -53 677 -131 923 -177 169 -32 312
-62 317 -67 7 -7 3 -31 -11 -70 -17 -45 -22 -87 -25 -179 l-3 -120 -103 -49
c-303 -142 -911 -402 -976 -417 -69 -15 -132 -46 -132 -63 0 -28 49 -23 152
14 42 15 79 26 82 23 3 -3 1 -14 -5 -24 -7 -13 -6 -19 1 -19 6 0 13 13 16 30
6 25 16 33 83 61 131 54 329 143 521 234 188 89 349 155 372 154 7 0 28 -32
47 -71 60 -125 185 -226 321 -257 65 -15 195 -13 269 4 85 20 204 84 274 145
100 90 184 242 218 394 l13 58 67 -4 c38 -3 70 -2 71 2 3 7 759 31 938 30 l75
0 -67 -61 c-65 -58 -80 -79 -58 -79 6 0 57 31 114 69 57 38 120 76 140 85 58
24 48 47 -36 86 -101 47 -228 55 -228 15 0 -10 11 -15 35 -15 20 0 52 -7 73
-16 l37 -17 -40 -8 c-22 -5 -245 -13 -496 -18 -251 -6 -467 -12 -480 -15 -13
-3 -49 -7 -80 -10 l-57 -6 -4 93 c-3 76 -9 103 -31 150 -46 93 -141 159 -279
192 -64 16 -257 28 -293 19z m263 -80 c137 -29 213 -75 258 -157 27 -48 29
-60 29 -157 -1 -192 -64 -349 -195 -481 -170 -173 -412 -223 -608 -128 -113
55 -232 202 -218 270 4 21 1 31 -12 38 -14 8 -17 25 -17 113 1 122 31 232 66
241 15 4 20 12 17 29 -3 28 18 63 74 124 29 32 56 48 103 64 34 11 66 20 71
18 5 -1 18 3 29 9 19 10 99 28 170 37 47 6 153 -3 233 -20z"/>
<path d="M7990 6828 c-35 -18 -45 -29 -45 -47 0 -13 6 -26 13 -28 6 -3 12 2
12 11 0 18 63 39 105 34 27 -3 30 -7 33 -44 3 -47 -19 -82 -79 -120 -71 -44
-43 -74 70 -74 53 0 71 -3 71 -13 0 -21 -46 -37 -106 -37 -48 0 -57 3 -61 21
-9 32 -57 22 -61 -13 -7 -58 67 -88 164 -68 71 15 114 51 114 95 0 40 -38 75
-81 75 l-28 0 23 35 c44 64 41 161 -4 185 -31 17 -93 11 -140 -12z"/>
<path d="M5741 6043 c-12 -14 -24 -37 -27 -50 -7 -25 -24 -32 -24 -9 0 21 -40
66 -59 66 -27 0 -52 -34 -58 -79 -7 -51 10 -54 23 -4 11 45 27 52 42 18 16
-35 15 -105 -2 -146 -7 -19 -11 -40 -9 -46 8 -23 43 -14 55 15 7 15 13 29 15
31 1 2 16 -8 33 -23 31 -26 70 -35 70 -16 0 5 -9 24 -20 42 -24 40 -25 80 -4
146 25 77 5 107 -35 55z"/>
<path d="M7160 6042 c-43 -23 -81 -85 -63 -103 9 -9 20 -5 48 20 43 37 63 39
71 7 8 -31 -2 -63 -32 -103 -74 -99 46 -122 224 -43 111 50 98 61 -43 35 -44
-8 -90 -14 -102 -15 -21 0 -21 1 -7 35 7 19 14 59 14 89 0 47 -4 57 -26 75
-33 26 -40 26 -84 3z"/>
<path d="M7035 5890 c-22 -5 -95 -11 -163 -15 -155 -10 -162 -29 -12 -33 106
-3 185 12 225 42 23 17 14 18 -50 6z"/>
<path d="M7873 3250 c-45 -14 -56 -40 -49 -113 3 -34 10 -235 15 -447 5 -212
14 -450 20 -530 6 -80 13 -192 17 -250 l6 -105 -63 -20 c-60 -19 -64 -22 -64
-50 0 -29 2 -30 40 -28 136 7 152 11 167 44 2 3 42 26 90 51 112 60 186 116
281 218 133 141 218 286 259 442 l12 47 24 -20 c70 -55 205 17 234 125 l11 41
296 2 c163 2 441 8 619 14 178 6 325 9 328 6 3 -2 -31 -35 -76 -72 -75 -63
-94 -85 -70 -85 11 0 277 165 299 185 19 18 5 52 -27 69 -38 19 -173 49 -202
44 -40 -5 -34 -27 13 -47 41 -18 69 -41 50 -41 -4 0 -42 -5 -83 -11 -41 -5
-315 -14 -608 -18 l-533 -8 -34 34 c-25 25 -41 33 -66 33 -44 -1 -122 -22
-142 -38 -14 -12 -17 -9 -22 25 -41 249 -199 425 -440 489 -73 19 -258 27
-302 14z m282 -55 c268 -73 430 -299 411 -575 -14 -209 -108 -408 -275 -583
-41 -43 -104 -97 -140 -121 -69 -46 -181 -97 -193 -89 -5 2 -8 15 -8 28 0 14
-12 93 -26 177 -24 142 -27 186 -34 603 -5 248 -13 473 -19 501 -5 28 -11 55
-12 60 -1 5 -1 13 0 18 2 14 228 -1 296 -19z m651 -507 c11 -10 11 -22 3 -50
-22 -82 -104 -137 -154 -104 -21 14 -25 24 -25 64 1 41 27 127 29 94 1 -10 6
-9 24 3 26 19 101 15 123 -7z"/>
<path d="M5605 3111 c-34 -14 -46 -35 -39 -70 4 -17 11 -31 16 -31 6 0 7 11 4
25 -9 34 23 51 61 33 60 -29 69 -109 23 -206 -33 -71 -37 -100 -15 -108 30
-12 68 41 90 126 l12 45 7 -46 c13 -89 98 -131 163 -83 45 34 40 44 -20 44
-78 0 -81 7 -73 139 5 91 4 110 -9 121 -20 16 -31 6 -55 -47 l-17 -38 -15 30
c-30 57 -87 85 -133 66z"/>
<path d="M6002 2963 c-6 -11 -16 -89 -21 -174 -6 -85 -13 -184 -17 -221 -5
-55 -3 -68 8 -68 20 0 69 193 75 296 6 90 0 141 -21 169 -13 18 -14 18 -24 -2z"/>
<path d="M7605 2960 c-33 -5 -289 -13 -570 -20 -699 -15 -820 -21 -820 -40 0
-22 316 -25 687 -5 398 20 518 20 518 -1 0 -12 7 -14 28 -10 15 3 92 8 172 12
158 7 183 14 178 47 -3 20 -9 22 -68 23 -36 1 -92 -2 -125 -6z"/>
<path d="M5740 1998 c-11 -18 -20 -37 -20 -43 0 -5 -11 2 -24 16 -48 55 -93
63 -131 24 -26 -26 -34 -86 -15 -115 10 -16 13 -8 10 27 -1 24 35 66 53 61 7
-2 22 -25 35 -50 l23 -46 -32 -63 c-20 -39 -33 -79 -33 -104 -1 -35 2 -40 22
-43 26 -4 68 29 78 60 7 25 24 23 24 -3 0 -33 62 -89 99 -89 37 0 39 9 6 40
-42 40 -48 77 -35 210 7 65 10 125 7 134 -11 27 -46 18 -67 -16z"/>
<path d="M7715 2014 c-70 -8 -291 -13 -735 -14 -727 -2 -853 -7 -858 -32 -2
-10 5 -19 18 -23 12 -4 274 1 583 10 439 13 619 15 822 7 143 -5 269 -6 281
-2 28 11 37 36 18 55 -9 8 -18 14 -22 14 -4 -1 -52 -8 -107 -15z"/>
<path d="M5974 1700 c-12 -5 -29 -19 -38 -32 -18 -25 -22 -68 -6 -68 6 0 10 9
10 20 0 21 27 40 59 40 44 0 17 -103 -48 -184 -60 -75 -51 -116 27 -116 47 0
252 45 286 62 36 19 -1 26 -99 17 -55 -4 -115 -8 -134 -9 -32 0 -33 1 -18 18
29 32 67 127 67 168 0 73 -46 109 -106 84z"/>
</g>
</svg>
