<?xml version="1.0" standalone="no"?>
<!DOCTYPE svg PUBLIC "-//W3C//DTD SVG 20010904//EN"
 "http://www.w3.org/TR/2001/REC-SVG-20010904/DTD/svg10.dtd">
<svg version="1.0" xmlns="http://www.w3.org/2000/svg"
 width="847.401087pt" height="400.000000pt" viewBox="0 0 847.401087 400.000000"
 preserveAspectRatio="xMidYMid meet">
<metadata>
Created by potrace 1.14, written by Peter Selinger 2001-2017
</metadata>
<g transform="translate(-12.062297,462.501374) scale(0.052378,-0.052378)"
fill="#444444" stroke="none">
<path d="M11999 8814 c-7 -8 -22 -52 -34 -97 l-22 -82 -12 70 c-19 111 -21
115 -36 115 -32 0 -13 -204 22 -242 36 -40 68 -12 92 80 6 23 16 60 21 81 8
32 14 38 30 34 24 -6 25 5 4 35 -18 26 -46 29 -65 6z"/>
<path d="M16102 8818 c-7 -7 -12 -25 -12 -41 0 -37 -27 -82 -57 -96 -12 -6
-23 -15 -23 -21 0 -20 32 -23 62 -6 34 21 31 23 46 -29 14 -49 8 -56 -58 -63
-53 -5 -76 -26 -49 -43 19 -12 161 -11 193 1 31 11 34 26 7 35 -23 7 -61 136
-61 206 0 40 -13 69 -30 69 -3 0 -11 -5 -18 -12z"/>
<path d="M14276 8785 c-13 -35 -6 -205 9 -235 18 -36 50 -42 39 -8 -3 11 -9
73 -13 136 -4 72 -10 117 -17 119 -6 2 -14 -3 -18 -12z"/>
<path d="M13962 8736 c-10 -14 -27 -46 -37 -73 -24 -64 -35 -75 -35 -32 0 61
-19 109 -42 109 -19 0 -20 -4 -14 -67 12 -120 17 -143 37 -153 40 -22 76 22
114 139 16 50 19 53 46 47 36 -7 37 6 3 33 -34 27 -48 26 -72 -3z"/>
<path d="M12493 8729 c-12 -44 -59 -124 -73 -124 -10 0 -16 12 -18 38 -4 48
-23 44 -35 -6 -7 -29 -5 -43 7 -62 29 -44 87 -26 119 38 14 27 15 24 24 -60
l10 -88 -37 -45 c-75 -91 -85 -136 -47 -210 24 -49 57 -67 99 -57 42 11 53 55
51 204 -2 80 1 134 7 138 15 9 12 25 -5 25 -8 0 -15 3 -15 8 -1 22 -29 190
-35 205 -10 24 -46 22 -52 -4z m44 -458 c-7 -63 -14 -73 -33 -46 -26 35 -26
61 -3 116 l23 53 9 -35 c5 -19 7 -58 4 -88z"/>
<path d="M12977 8743 c-4 -3 -7 -25 -7 -48 0 -40 -2 -42 -37 -51 -22 -5 -39
-16 -41 -26 -3 -14 3 -15 37 -11 36 5 41 3 41 -14 0 -20 34 -63 50 -63 12 0
13 16 1 58 -9 30 -8 32 17 39 46 11 113 44 108 52 -3 4 -35 2 -71 -4 l-66 -13
2 32 c4 43 -14 70 -34 49z"/>
<path d="M12081 8719 c-25 -27 -41 -79 -41 -132 0 -45 35 -87 73 -87 24 0 67
37 67 58 0 15 -2 15 -37 1 -23 -8 -30 -7 -40 7 -11 15 -9 22 14 46 21 22 27
38 27 76 1 41 -2 47 -21 50 -12 2 -30 -6 -42 -19z"/>
<path d="M14845 8723 c-20 -20 -35 -57 -35 -87 0 -38 -81 -96 -135 -96 -22 0
-25 4 -25 33 0 36 19 78 38 85 20 6 14 -42 -8 -56 -25 -15 -26 -32 -1 -32 35
0 65 34 64 74 -1 46 -18 66 -55 66 -50 0 -98 -71 -98 -144 0 -34 -49 22 -64
74 -11 37 -17 45 -37 45 -22 0 -25 -6 -31 -54 -9 -78 -25 -85 -33 -15 -3 33
-7 66 -8 74 -1 8 -9 15 -17 15 -20 0 -26 -139 -7 -175 17 -35 59 -38 83 -7 19
23 19 23 49 5 17 -10 40 -18 53 -18 12 0 34 -7 48 -16 33 -22 96 -13 143 20
20 14 37 22 39 16 4 -11 81 -14 106 -4 25 9 19 37 -14 69 -28 26 -28 29 -15
56 20 37 19 75 -1 83 -21 8 -20 8 -39 -11z"/>
<path d="M13266 8708 c-8 -13 -18 -35 -21 -50 -4 -16 -11 -28 -15 -28 -5 0
-11 12 -15 28 -8 35 -31 66 -43 58 -9 -5 -4 -36 26 -161 11 -43 46 -46 67 -6
17 34 55 149 55 169 0 21 -39 13 -54 -10z"/>
<path d="M12268 8703 c-9 -10 -18 -25 -21 -33 -3 -11 -8 -7 -16 13 -18 45 -39
34 -43 -24 -3 -49 5 -73 15 -47 3 7 6 -5 6 -27 2 -49 13 -68 36 -63 13 2 23
23 37 73 12 45 27 78 43 92 14 12 25 25 25 28 0 13 -68 3 -82 -12z"/>
<path d="M13361 8698 c-59 -63 -23 -188 55 -188 36 0 118 79 100 97 -3 3 -21
-4 -41 -16 -31 -18 -85 -29 -85 -17 0 3 14 18 30 34 32 32 40 78 18 100 -19
19 -55 14 -77 -10z"/>
<path d="M14113 8708 c-56 -27 -104 -148 -69 -177 24 -20 62 -6 78 29 14 33
26 38 34 15 8 -21 38 -27 68 -14 29 13 35 29 11 29 -25 0 -55 38 -55 69 0 27
-22 62 -38 60 -4 0 -17 -5 -29 -11z"/>
<path d="M15178 8705 c-31 -17 -68 -89 -68 -132 0 -16 8 -37 18 -46 25 -23 75
-21 97 3 18 20 18 20 36 -10 18 -28 52 -40 63 -22 3 5 -4 26 -15 47 -11 21
-25 64 -31 97 -9 49 -15 61 -35 69 -31 11 -32 11 -65 -6z m37 -74 c-4 -27 -12
-57 -19 -67 -17 -23 -46 -11 -46 18 0 35 54 117 68 103 2 -2 1 -26 -3 -54z"/>
<path d="M15423 8710 c-12 -5 -30 -24 -39 -42 l-17 -33 -14 33 c-7 17 -20 32
-29 32 -13 0 -15 -7 -10 -37 4 -21 9 -58 13 -83 5 -47 19 -73 36 -67 5 1 28
41 51 87 22 47 47 86 55 89 11 3 12 -1 6 -15 -5 -11 -10 -42 -13 -70 -3 -48
-2 -52 33 -82 43 -38 92 -42 136 -11 39 28 36 41 -8 39 -56 -3 -56 -2 -34 26
27 34 27 88 1 114 -21 21 -65 26 -89 11 -9 -6 -19 -4 -28 5 -16 16 -20 16 -50
4z m147 -78 c0 -37 -36 -74 -50 -52 -12 19 -12 23 0 54 14 38 50 36 50 -2z"/>
<path d="M11365 8439 c-287 -51 -463 -121 -632 -250 -81 -63 -214 -207 -271
-294 l-52 -79 0 66 c0 44 -5 69 -14 77 -10 8 -16 9 -21 2 -6 -11 -20 -111 -31
-233 -7 -66 -6 -68 16 -68 23 0 263 120 288 144 15 14 6 46 -13 46 -7 0 -52
-21 -99 -46 -48 -25 -89 -44 -92 -41 -13 12 130 202 221 292 140 141 275 227
445 287 80 27 262 58 349 58 84 0 105 8 99 36 -5 27 -58 27 -193 3z"/>
<path d="M7641 8199 c-6 -18 -11 -38 -11 -45 0 -22 17 -16 25 9 6 21 7 20 22
-13 11 -25 14 -59 11 -125 -2 -76 -8 -100 -35 -157 -17 -37 -28 -70 -23 -73
12 -7 65 60 90 112 15 32 20 64 20 121 0 84 -11 130 -42 175 -25 36 -44 34
-57 -4z"/>
<path d="M7225 8154 c-36 -36 -58 -141 -43 -210 12 -55 46 -84 99 -84 49 0 49
10 0 33 -25 11 -43 29 -51 48 -23 55 5 229 31 188 4 -7 11 -10 16 -6 8 9 -8
39 -24 44 -6 2 -18 -4 -28 -13z"/>
<path d="M7474 8115 c-7 -30 -3 -29 -42 -9 -46 22 -72 6 -72 -46 0 -45 17 -55
22 -13 4 35 23 40 43 10 14 -22 14 -27 -5 -68 -11 -24 -20 -56 -20 -70 0 -34
23 -54 46 -41 11 6 29 4 54 -5 28 -11 46 -13 67 -6 l28 10 -42 22 c-42 21 -43
23 -42 69 0 26 3 67 7 92 10 59 5 80 -19 80 -12 0 -21 -9 -25 -25z"/>
<path d="M6933 8075 c-39 -17 -63 -61 -70 -130 -9 -87 23 -155 73 -155 34 0
55 52 62 152 2 43 9 78 13 78 4 0 31 -22 58 -50 28 -27 53 -50 56 -50 16 0 2
62 -20 89 -52 61 -121 88 -172 66z m17 -174 c-8 -36 -15 -50 -22 -43 -15 15
-5 136 12 158 14 16 15 14 18 -22 2 -21 -2 -63 -8 -93z"/>
<path d="M6937 7533 c-4 -3 -7 -18 -7 -33 0 -46 -21 -94 -52 -122 -20 -17 -28
-32 -25 -42 9 -23 31 -20 65 9 l29 24 10 -54 10 -55 -36 -6 c-57 -9 -83 -22
-79 -42 3 -14 16 -18 69 -20 37 -2 89 1 115 5 40 7 50 13 52 31 3 19 -1 22
-31 22 -34 0 -36 1 -47 53 -10 47 -30 194 -30 225 0 13 -32 17 -43 5z"/>
<path d="M7253 7416 c-4 -8 -31 -18 -58 -23 -40 -7 -50 -12 -50 -28 0 -18 7
-20 57 -19 49 1 57 -1 62 -20 22 -78 44 -1179 31 -1505 l-8 -181 -99 0 c-97 0
-99 0 -96 -22 3 -21 9 -23 76 -26 39 -2 72 -7 72 -13 0 -14 -169 -181 -286
-281 -56 -48 -149 -143 -207 -211 -136 -159 -216 -233 -374 -342 -162 -112
-229 -163 -312 -237 -79 -71 -280 -217 -365 -265 -80 -46 -198 -91 -373 -142
-185 -54 -304 -78 -428 -86 -55 -4 -190 -18 -300 -33 -166 -21 -242 -26 -449
-27 l-248 -1 -24 -27 c-31 -36 -31 -78 0 -114 l24 -28 245 -3 c212 -3 273 0
449 22 196 24 231 25 1013 30 456 3 859 2 921 -4 62 -5 256 -12 433 -16 300
-7 321 -8 326 -26 8 -25 42 -23 56 3 l11 22 392 -7 c215 -4 425 -11 466 -16
105 -13 1185 -34 1790 -34 498 -1 585 3 713 35 31 8 37 14 37 36 0 23 -3 25
-27 19 -159 -36 -218 -39 -703 -40 -571 -1 -1682 21 -1790 34 -41 5 -263 12
-492 16 -413 7 -416 7 -422 28 -11 39 -6 263 6 317 8 37 13 167 13 404 1 193
5 458 9 589 l9 240 76 102 c42 56 95 133 118 171 51 82 218 281 351 416 58 59
175 157 287 243 219 166 317 245 431 349 250 227 704 444 1004 479 197 24 403
36 602 36 255 1 480 16 517 34 58 30 62 115 7 151 -22 15 -39 15 -151 6 -69
-6 -210 -11 -313 -11 -291 0 -717 -31 -837 -61 -89 -22 -279 -95 -425 -163
-185 -86 -408 -230 -531 -342 -123 -112 -272 -234 -434 -353 -77 -57 -189
-152 -249 -210 -163 -160 -362 -393 -427 -502 l-34 -56 -2 641 c-3 576 -13
928 -29 970 -4 10 3 15 23 18 20 2 28 8 28 23 0 15 -8 21 -32 23 -17 2 -37 10
-43 18 -16 18 -27 18 -37 0z m36 -2384 c-8 -123 -10 -265 -5 -431 6 -203 4
-266 -9 -356 -11 -73 -15 -156 -13 -249 l3 -139 -280 7 c-154 4 -347 11 -430
17 -89 6 -393 7 -750 4 l-600 -6 150 45 c196 58 282 89 385 141 98 49 332 214
435 305 87 78 157 131 260 200 206 138 285 209 453 407 57 66 135 148 175 181
40 33 108 93 152 135 l80 74 4 -76 c1 -42 -3 -158 -10 -259z"/>
<path d="M230 6338 c1 -62 3 -70 14 -56 11 15 15 7 30 -60 22 -103 40 -142 64
-142 31 0 40 19 72 147 16 66 34 132 39 146 14 37 -3 43 -27 10 -33 -47 -59
-105 -72 -163 l-13 -54 -33 114 c-18 63 -33 118 -34 123 0 4 -9 7 -20 7 -18 0
-20 -7 -20 -72z"/>
<path d="M4333 6359 c-48 -72 -54 -87 -55 -146 -2 -81 3 -122 16 -132 7 -6 34
-9 60 -7 41 2 54 8 77 34 82 92 53 292 -43 292 -21 0 -34 -9 -55 -41z m73 -23
c3 -8 -10 -34 -28 -59 -18 -24 -38 -53 -45 -63 -11 -17 -12 -16 -12 13 -1 17
6 38 14 47 8 8 15 20 15 27 0 15 29 49 42 49 5 0 11 -6 14 -14z m21 -106 c-3
-27 -13 -60 -22 -74 -16 -25 -55 -42 -55 -24 0 13 71 148 78 148 2 0 2 -22 -1
-50z"/>
<path d="M2570 6320 c-8 -5 -15 -42 -19 -103 -3 -53 -11 -101 -18 -108 -36
-36 -116 12 -106 64 6 33 -26 53 -58 36 -17 -9 -28 -7 -54 7 -31 16 -35 16
-58 1 -16 -10 -34 -40 -48 -77 -12 -33 -23 -59 -25 -57 -2 1 -13 32 -26 67
-14 41 -29 65 -38 65 -19 0 -26 -50 -11 -79 5 -12 19 -42 29 -68 22 -50 54
-70 78 -47 7 8 24 45 38 83 29 79 30 80 50 73 13 -5 13 -10 1 -35 -8 -16 -18
-43 -21 -59 -5 -26 -2 -34 19 -48 30 -19 53 -11 85 30 17 21 21 23 32 10 17
-20 70 -28 103 -16 17 7 27 7 27 1 0 -16 38 -50 56 -50 9 0 30 15 47 33 21 22
31 28 35 18 7 -21 40 -51 57 -51 21 0 64 47 71 77 6 22 7 21 35 -16 38 -53 62
-64 140 -65 72 -1 119 21 154 75 l19 27 28 -28 c17 -18 26 -34 22 -44 -5 -13
2 -16 34 -16 40 0 69 20 58 39 -4 6 -24 20 -46 32 -46 26 -54 45 -46 104 5 32
3 44 -8 48 -19 7 -32 -9 -51 -62 -8 -23 -23 -55 -34 -70 -19 -27 -86 -69 -95
-61 -2 3 0 26 6 51 14 62 5 97 -29 105 -40 10 -73 -32 -73 -93 0 -44 -1 -45
-18 -30 -10 10 -29 39 -42 67 -33 70 -69 76 -85 13 -3 -15 -13 -43 -21 -62
-19 -46 -34 -27 -34 45 0 88 -45 97 -71 16 -15 -47 -41 -92 -53 -92 -5 0 -7
49 -3 124 5 98 4 125 -7 129 -7 3 -19 2 -26 -3z"/>
<path d="M925 6251 c-17 -51 -49 -101 -66 -101 -5 0 -12 18 -15 40 -9 54 -28
46 -32 -12 -3 -49 14 -78 48 -78 18 0 79 56 81 74 3 29 17 -46 18 -92 1 -47
-4 -60 -38 -108 -47 -65 -64 -133 -52 -198 12 -66 36 -98 69 -94 44 5 62 56
74 210 8 101 15 141 30 166 21 35 18 53 -5 34 -21 -18 -27 -4 -28 67 0 85 -17
135 -46 139 -17 3 -24 -5 -38 -47z m16 -456 l-9 -40 -1 50 c0 28 3 61 7 75 6
23 7 22 10 -10 2 -19 -1 -53 -7 -75z"/>
<path d="M517 6262 c-24 -27 -37 -69 -37 -123 0 -40 5 -55 25 -74 48 -49 108
-26 143 53 l16 37 3 -30 c7 -64 13 -76 35 -73 15 2 30 25 59 93 22 50 39 93
39 98 0 15 -20 6 -54 -27 -20 -18 -36 -27 -36 -20 0 7 -11 25 -23 40 -34 39
-57 27 -57 -28 0 -79 -48 -139 -85 -108 -19 16 -19 30 -1 30 41 0 75 107 44
138 -17 17 -52 15 -71 -6z"/>
<path d="M1477 6273 c-4 -3 -7 -19 -7 -34 0 -25 -5 -29 -37 -34 -89 -14 -147
-31 -151 -44 -4 -11 6 -12 53 -6 31 3 79 13 106 21 39 12 49 19 49 37 1 42 21
-9 34 -86 10 -61 15 -72 31 -72 20 0 38 28 71 110 16 39 16 40 26 15 5 -14 7
-33 4 -43 -8 -32 14 -74 44 -87 32 -13 72 -4 117 25 36 24 27 33 -23 27 l-47
-5 23 30 c24 34 30 94 10 118 -18 21 -54 19 -75 -5 -23 -25 -28 -25 -40 3 -16
35 -46 27 -71 -17 l-22 -39 -21 40 c-23 45 -55 65 -74 46z m273 -77 c0 -8 -9
-24 -21 -37 l-20 -24 7 25 c10 39 34 64 34 36z"/>
<path d="M3569 6253 c-35 -30 -68 -94 -69 -134 0 -68 72 -86 122 -31 15 18 28
28 28 22 0 -13 49 -60 61 -60 15 0 10 33 -16 95 -13 33 -25 70 -25 82 0 27
-25 53 -50 53 -10 0 -33 -12 -51 -27z m31 -113 c-11 -27 -37 -46 -47 -36 -9 9
8 62 30 96 l22 35 3 -34 c2 -18 -2 -46 -8 -61z"/>
<path d="M3725 6238 c4 -13 10 -57 13 -98 6 -66 9 -75 27 -75 15 0 25 16 47
74 15 41 32 79 37 84 34 34 -7 36 -46 3 l-29 -25 -11 30 c-14 36 -49 42 -38 7z"/>
<path d="M3895 6227 c-62 -62 -59 -148 6 -180 44 -21 83 -11 101 28 15 33 9
37 -30 23 -43 -17 -51 -3 -18 31 34 36 45 91 21 114 -24 25 -43 21 -80 -16z"/>
<path d="M11393 5843 c5 -117 28 -213 49 -213 11 0 7 124 -8 268 -6 53 -10 62
-27 62 -19 0 -20 -5 -14 -117z"/>
<path d="M13022 5928 c-8 -8 -12 -46 -12 -104 0 -77 -3 -95 -21 -118 -25 -32
-69 -56 -104 -56 -23 0 -25 4 -25 43 0 23 9 60 19 82 l19 40 1 -32 c1 -51 21
-50 21 1 0 49 -9 61 -40 51 -50 -16 -91 -176 -55 -215 35 -38 133 -22 179 29
25 28 30 27 49 -14 27 -56 97 -58 97 -2 0 19 2 19 28 -6 34 -33 81 -36 107 -7
10 11 20 41 22 67 8 93 -59 163 -109 116 -13 -12 -32 -23 -43 -25 -15 -2 -23
-17 -34 -63 l-14 -60 -15 35 c-9 20 -17 81 -20 143 -4 91 -7 107 -21 107 -9 0
-22 -5 -29 -12z m226 -221 c4 -58 -20 -66 -38 -12 -14 42 -7 68 17 63 14 -2
19 -15 21 -51z"/>
<path d="M14412 5869 c-42 -34 -52 -50 -66 -98 -21 -76 -20 -113 5 -145 17
-22 28 -26 69 -26 93 0 148 82 138 205 -5 62 -35 105 -73 105 -12 0 -45 -18
-73 -41z m88 -35 c0 -8 -4 -13 -8 -10 -12 7 -55 -39 -87 -94 l-27 -45 5 48 c4
38 12 56 38 83 35 36 79 46 79 18z m1 -101 c-12 -44 -51 -87 -74 -81 -12 2 -5
21 31 81 49 81 65 81 43 0z"/>
<path d="M12286 5888 c-2 -7 -9 -60 -16 -118 -6 -58 -16 -109 -21 -114 -7 -8
-31 35 -52 97 -9 24 -36 33 -52 16 -7 -8 -20 -38 -30 -66 -23 -73 -38 -67 -33
14 5 108 -39 93 -49 -16 -7 -78 12 -114 60 -109 25 2 36 11 54 43 13 22 23 33
23 23 0 -16 54 -68 71 -68 5 0 19 10 31 22 12 12 23 17 25 11 2 -5 10 -19 18
-29 23 -30 35 -1 35 84 0 55 3 72 14 72 9 0 12 -7 9 -21 -4 -15 6 -31 41 -64
27 -25 42 -46 36 -50 -21 -13 -9 -25 28 -25 79 0 82 44 7 94 -30 20 -55 39
-55 42 0 3 16 12 36 20 57 24 38 40 -43 36 l-70 -4 -8 47 c-3 26 -9 54 -12 61
-6 17 -42 18 -47 2z"/>
<path d="M13834 5865 c-4 -8 -4 -31 -2 -50 3 -30 1 -36 -18 -41 -33 -8 -56
-39 -51 -66 l4 -23 8 22 c4 12 20 26 35 32 27 9 29 8 36 -22 10 -50 35 -107
46 -107 6 0 9 27 6 70 -2 39 0 70 4 70 5 0 24 -6 42 -14 36 -15 40 -23 51 -95
13 -78 71 -106 120 -56 21 20 25 34 25 82 0 97 -33 131 -99 103 -21 -8 -35 -7
-64 5 -20 8 -49 15 -65 15 -27 0 -31 5 -41 45 -11 45 -27 58 -37 30z m251
-169 c6 -30 -10 -85 -21 -73 -2 2 -10 27 -18 56 -13 50 -13 51 10 51 18 0 24
-7 29 -34z"/>
<path d="M13391 5822 c-21 -40 -22 -86 -3 -124 l20 -38 -28 0 c-28 0 -44 -18
-32 -37 12 -18 117 -23 140 -7 17 12 29 12 65 2 35 -9 51 -9 76 2 38 15 36 33
-5 41 -31 6 -31 5 -10 64 23 65 -8 96 -69 71 -37 -16 -65 -60 -65 -103 l0 -28
-25 30 c-28 35 -43 87 -26 93 6 2 11 15 11 28 0 29 -34 34 -49 6z"/>
<path d="M11850 5810 c-11 -11 -20 -27 -20 -35 0 -19 -40 -84 -67 -107 -19
-17 -20 -17 -41 20 -51 91 -92 95 -137 12 l-30 -55 -10 70 c-7 51 -14 70 -25
70 -11 0 -16 -15 -18 -60 -7 -152 68 -197 123 -75 10 22 21 40 24 39 3 0 20
-19 36 -42 40 -54 67 -58 110 -17 l33 32 5 -29 c3 -15 9 -62 12 -103 9 -119
15 -148 32 -154 9 -4 22 -1 30 6 16 13 15 33 -3 186 -6 43 -4 52 9 52 31 0 66
23 77 51 39 94 -74 205 -140 139z m76 -57 c19 -26 17 -67 -5 -87 -17 -16 -19
-16 -25 6 -10 38 -7 98 5 98 7 0 18 -8 25 -17z"/>
<path d="M8042 5720 c-68 -49 -69 -130 -3 -201 21 -21 32 -39 26 -39 -20 0
-35 -24 -25 -40 12 -19 108 -20 120 0 17 27 10 37 -59 91 -30 24 -34 33 -38
83 -3 46 -1 56 12 56 8 0 18 7 22 16 5 13 15 15 50 10 35 -5 45 -2 50 11 9 23
-24 43 -72 43 -31 0 -53 -8 -83 -30z"/>
<path d="M7719 5679 c-8 -5 -24 -9 -35 -9 -33 0 -49 -51 -49 -157 0 -88 1 -93
29 -122 62 -65 133 -26 156 84 6 31 9 74 5 95 -12 72 -70 132 -106 109z m42
-71 c17 -32 14 -129 -5 -166 -34 -65 -76 -23 -76 75 0 56 2 62 23 65 14 2 23
11 25 26 4 28 18 28 33 0z"/>
<path d="M7899 5594 c-11 -14 -10 -19 11 -36 21 -17 25 -17 39 -4 13 14 13 18
-4 36 -22 24 -29 25 -46 4z"/>
<path d="M10935 5550 c-160 -14 -333 -66 -700 -210 -362 -142 -525 -185 -750
-196 -137 -8 -222 8 -290 53 -36 24 -38 27 -18 34 56 20 38 47 -54 79 -37 12
-73 27 -79 32 -7 5 -34 11 -61 15 -68 8 -73 -10 -22 -78 21 -29 56 -87 76
-130 26 -55 43 -79 56 -79 28 0 31 27 8 86 -11 31 -21 58 -21 61 0 2 21 -14
46 -36 25 -22 71 -51 103 -63 51 -21 71 -23 226 -22 256 0 414 40 796 199 376
157 571 207 792 204 71 0 133 3 138 8 5 5 4 16 -4 26 -15 22 -113 29 -242 17z"/>
<path d="M13837 5414 c-4 -4 -7 -30 -7 -58 0 -48 -2 -51 -26 -52 -53 -4 -90
-71 -81 -149 4 -43 4 -43 -20 -32 -23 10 -26 17 -38 92 -8 51 -21 65 -54 65
-41 0 -101 -71 -101 -119 0 -23 -42 -36 -83 -26 l-25 7 24 36 c19 27 24 47 22
77 -3 36 -6 40 -33 43 -23 3 -35 -3 -51 -24 l-22 -27 -49 21 c-46 20 -48 22
-51 66 -4 67 -28 61 -37 -9 -3 -30 -11 -55 -16 -55 -5 0 -18 -9 -29 -20 -21
-21 -28 -70 -10 -70 6 0 10 8 10 18 0 18 18 42 31 42 4 0 11 -21 15 -47 8 -55
32 -123 44 -123 18 0 22 45 10 100 -7 32 -11 62 -9 67 2 5 21 6 44 1 40 -8 40
-9 37 -48 -8 -77 56 -122 144 -102 24 5 48 6 55 1 23 -15 55 -10 74 10 17 20
17 20 45 -1 24 -18 36 -19 91 -13 46 5 68 13 83 30 l20 22 15 -31 c22 -43 53
-45 82 -7 15 20 25 27 30 20 11 -19 29 0 29 32 0 76 -50 94 -79 29 l-18 -41
-7 38 c-3 21 -6 63 -7 93 -1 89 -12 144 -29 148 -9 1 -19 0 -23 -4z m-13 -186
c-7 -46 -28 -88 -44 -88 -14 0 -12 74 2 105 6 14 20 25 30 25 16 0 17 -6 12
-42z"/>
<path d="M14596 5365 c-3 -8 2 -22 11 -30 13 -14 14 -20 3 -40 -9 -16 -11 -50
-8 -105 5 -81 16 -109 39 -95 15 10 5 235 -11 266 -13 23 -26 25 -34 4z"/>
<path d="M14044 5334 c-4 -19 -4 -69 -2 -109 8 -122 51 -159 104 -90 l27 36
23 -22 c32 -30 62 -19 101 38 31 46 32 47 41 22 5 -13 12 -42 15 -64 6 -37 3
-45 -49 -109 -62 -78 -74 -102 -74 -151 0 -108 97 -137 143 -42 33 67 51 201
38 291 -14 101 -37 150 -72 154 -26 3 -48 -16 -91 -78 l-17 -25 -16 23 c-25
34 -68 30 -93 -10 l-20 -32 -6 35 c-3 19 -8 64 -11 102 -7 76 -29 93 -41 31z
m302 -370 c-20 -96 -34 -130 -48 -116 -19 19 -11 63 23 134 18 38 35 65 37 60
1 -5 -4 -40 -12 -78z"/>
<path d="M15817 5363 c-4 -3 -7 -17 -7 -30 0 -28 23 -27 28 1 4 20 -11 40 -21
29z"/>
<path d="M12132 5337 c-55 -59 -81 -218 -42 -257 28 -28 47 -25 84 13 l33 32
17 -22 c21 -28 47 -29 69 -5 22 24 21 32 -2 32 -27 0 -31 8 -47 102 -8 45 -21
92 -29 105 -20 30 -55 30 -83 0z m44 -121 c-4 -23 -16 -55 -27 -71 l-21 -30 5
55 c3 30 13 73 24 94 16 35 18 37 21 16 2 -13 1 -42 -2 -64z"/>
<path d="M13980 5320 c0 -16 5 -30 10 -30 6 0 10 14 10 30 0 17 -4 30 -10 30
-5 0 -10 -13 -10 -30z"/>
<path d="M15675 5307 c-38 -51 -44 -101 -15 -139 18 -25 21 -35 12 -49 -14
-22 -6 -49 14 -49 26 0 84 29 90 45 4 8 1 22 -6 30 -7 8 -9 23 -5 36 6 19 10
15 24 -27 12 -37 21 -50 39 -52 12 -2 22 2 22 8 0 23 -32 135 -42 148 -16 19
-45 14 -63 -10 -16 -22 -16 -22 -10 14 12 66 11 73 -12 76 -14 2 -29 -7 -48
-31z m42 -67 c-2 -41 -4 -47 -16 -36 -11 11 -11 21 -1 50 6 20 13 36 15 36 2
0 2 -22 2 -50z"/>
<path d="M13047 5319 c-23 -14 -47 -62 -47 -96 0 -15 11 -47 24 -69 l24 -42
-29 -6 c-31 -6 -39 -30 -13 -40 24 -9 73 -7 95 4 28 15 24 38 -16 94 -38 54
-43 81 -20 112 14 18 14 17 15 -14 0 -42 16 -33 25 14 9 49 -16 67 -58 43z"/>
<path d="M14967 5305 c-21 -21 -40 -82 -41 -132 -1 -57 32 -93 86 -93 24 0 45
7 57 19 18 18 19 18 30 -5 18 -40 48 -31 61 19 21 79 31 106 56 142 13 20 24
38 24 40 0 3 -13 5 -29 5 -19 0 -36 -8 -49 -25 l-19 -24 -9 32 c-6 21 -17 33
-30 35 -19 3 -22 -4 -28 -74 -4 -43 -12 -86 -17 -96 -14 -26 -65 -24 -79 3
-12 22 -5 90 12 123 10 18 11 18 25 -8 20 -37 28 -26 13 18 -13 39 -37 47 -63
21z"/>
<path d="M16229 5289 c-42 -45 -61 -85 -57 -122 4 -41 34 -47 84 -18 19 12 37
21 40 21 14 0 -1 -28 -37 -68 -57 -65 -82 -118 -83 -173 0 -99 69 -151 126
-94 39 39 58 106 58 205 0 79 2 88 25 110 33 31 32 43 -5 35 -27 -6 -30 -4
-30 17 0 13 -5 29 -12 36 -7 7 -17 27 -22 44 -15 46 -48 49 -87 7z m71 -22 c0
-13 -60 -77 -72 -77 -17 0 -7 27 23 63 29 35 49 41 49 14z m-2 -282 c-6 -65
-30 -121 -48 -110 -21 13 -11 99 15 138 14 20 28 37 32 37 3 0 3 -29 1 -65z"/>
<path d="M12316 5289 c-9 -28 -17 -153 -9 -146 4 5 12 -9 18 -30 9 -30 15 -38
34 -38 20 0 27 8 39 45 l15 45 12 -34 c14 -41 40 -61 79 -61 37 0 120 36 112
48 -3 5 -31 7 -63 4 l-57 -5 29 25 c26 23 29 32 30 83 0 72 -17 88 -67 63 -18
-9 -45 -19 -60 -22 -18 -4 -34 -18 -45 -39 l-17 -32 -10 42 c-13 49 -33 75
-40 52z"/>
<path d="M15269 5285 c-57 -31 -77 -128 -34 -170 25 -26 79 -32 135 -16 15 5
33 2 45 -5 20 -12 65 -3 65 13 0 4 4 14 9 22 8 12 12 12 26 -2 18 -19 90 -23
100 -7 3 6 -4 14 -17 19 -30 11 -43 27 -57 72 -6 20 -25 48 -41 64 -26 25 -33
27 -55 17 -30 -14 -55 -66 -55 -117 l0 -35 -51 0 -51 0 31 35 c21 24 31 46 31
68 0 55 -30 70 -81 42z m206 -38 c-2 -7 -9 -31 -15 -54 -6 -24 -15 -43 -21
-43 -12 0 -3 73 13 103 10 19 30 14 23 -6z m-165 -20 c0 -19 -27 -53 -36 -44
-8 8 15 57 28 57 4 0 8 -6 8 -13z"/>
<path d="M15877 5294 c-16 -16 -6 -111 16 -154 30 -62 63 -63 93 -3 12 23 24
52 27 64 5 19 8 20 22 9 8 -7 27 -34 42 -61 24 -45 56 -69 70 -55 10 10 -15
80 -47 127 -38 58 -73 76 -107 54 -13 -9 -26 -22 -28 -28 -29 -83 -32 -83 -49
-5 -12 49 -24 66 -39 52z"/>
<path d="M3677 5274 c-21 -21 -5 -43 46 -60 81 -26 205 -91 279 -146 202 -149
329 -390 367 -698 6 -46 11 -86 11 -88 0 -1 -19 21 -43 50 -29 36 -52 54 -70
56 -23 3 -27 0 -27 -22 0 -14 5 -28 10 -31 16 -10 107 -148 123 -187 35 -84
54 -62 100 119 45 171 45 183 12 183 -14 0 -25 -1 -25 -2 0 -2 -9 -28 -20 -58
-17 -50 -19 -52 -19 -22 -2 94 -61 301 -119 417 -99 201 -270 358 -488 449
-101 42 -127 50 -137 40z"/>
<path d="M14766 5258 c-9 -12 -16 -29 -17 -38 0 -8 -5 0 -10 18 -15 51 -39 42
-38 -15 2 -84 11 -108 39 -108 20 0 29 9 45 42 11 23 22 42 25 43 4 0 12 -17
19 -37 18 -51 29 -63 58 -63 20 0 24 4 18 18 -4 9 -16 41 -26 71 -11 30 -27
63 -36 73 -22 25 -59 23 -77 -4z"/>
<path d="M11080 3963 c-16 -20 -23 -24 -32 -15 -15 15 -83 16 -109 2 -13 -8
-19 -21 -19 -45 0 -39 17 -48 22 -12 2 16 11 23 34 25 53 5 58 -17 18 -73 -61
-87 -28 -154 42 -86 l31 30 21 -28 c23 -32 78 -56 88 -40 3 6 -3 21 -15 33
-33 35 -43 82 -30 150 5 32 8 64 5 72 -8 22 -33 16 -56 -13z"/>
<path d="M7173 3644 l-41 -24 5 -67 c6 -94 9 -107 39 -142 42 -50 104 -38 130
24 33 80 0 197 -62 221 -27 11 -35 10 -71 -12z m87 -80 c21 -54 2 -138 -29
-132 -35 7 -53 95 -31 153 8 22 13 24 30 15 12 -6 25 -22 30 -36z"/>
<path d="M7940 2610 c-740 -28 -1013 -42 -1385 -70 -237 -18 -592 -25 -609
-11 -8 7 -17 8 -20 3 -3 -5 -31 -12 -61 -16 -74 -8 -123 -30 -134 -58 -11 -28
-3 -39 10 -15 15 25 57 43 119 50 l55 7 0 -578 c1 -525 2 -580 18 -609 22 -42
36 -49 164 -78 164 -38 361 -50 583 -36 102 6 385 16 630 21 478 11 907 31
1219 57 161 13 203 14 244 3 41 -10 51 -10 58 1 9 15 21 91 39 244 6 55 18
154 25 220 8 66 24 255 35 420 25 366 26 373 54 377 30 4 31 32 1 52 -25 17
-28 17 -46 0 -17 -16 -22 -16 -86 2 -59 16 -111 19 -383 20 -173 1 -412 -2
-530 -6z m976 -92 c-60 -298 -97 -660 -97 -937 0 -96 -4 -195 -10 -220 l-10
-46 -152 -5 c-210 -7 -572 -4 -1027 6 -430 10 -663 5 -950 -22 -241 -22 -598
-25 -653 -6 -71 26 -71 28 -57 431 7 196 11 451 9 568 l-4 212 380 -6 c274 -4
476 -1 725 11 190 8 516 20 725 26 209 6 416 12 460 13 44 2 212 4 374 5 l294
2 -7 -32z"/>
<path d="M8083 2294 c-7 -20 3 -213 12 -237 14 -34 25 4 25 84 0 132 -17 204
-37 153z"/>
<path d="M6720 2218 c-12 -11 -34 -46 -48 -77 -22 -47 -26 -71 -27 -146 0 -81
3 -95 28 -138 33 -56 65 -80 104 -75 21 2 29 9 31 27 5 32 -16 52 -29 28 -8
-13 -14 -15 -29 -7 -27 15 -68 88 -76 136 -12 79 42 242 79 236 20 -3 22 11 4
27 -10 8 -19 5 -37 -11z"/>
<path d="M7037 2233 c-4 -3 -7 -20 -6 -37 0 -31 0 -31 10 -6 l10 25 18 -24
c58 -76 77 -251 34 -310 -29 -39 -30 -71 -2 -71 15 0 27 14 46 56 22 49 25 66
20 128 -9 133 -89 280 -130 239z"/>
<path d="M6378 2073 c-6 -16 -30 -42 -52 -58 -38 -28 -41 -35 -44 -83 -3 -47
0 -56 28 -83 28 -29 32 -30 53 -17 31 20 57 78 64 141 5 50 8 56 40 71 46 22
68 20 86 -6 l16 -23 0 31 c1 55 -41 69 -113 39 -33 -14 -37 -14 -42 0 -9 23
-25 18 -36 -12z m12 -97 c0 -27 -25 -92 -39 -101 -6 -3 -15 3 -20 14 -19 34
-13 68 15 90 34 27 44 26 44 -3z"/>
<path d="M6933 2055 l-17 -36 -14 26 c-10 20 -20 25 -40 23 -23 -3 -27 -8 -30
-42 -2 -25 0 -36 7 -31 6 3 11 15 11 26 0 12 5 19 13 17 19 -7 21 -84 3 -110
-9 -12 -16 -31 -16 -41 0 -29 33 -16 51 20 l16 32 11 -24 c12 -25 51 -41 77
-31 24 9 17 26 -16 38 -31 11 -31 11 -26 67 3 31 7 65 9 75 6 34 -21 28 -39
-9z"/>
<path d="M7335 2051 c-33 -7 -37 -26 -5 -25 116 4 116 4 96 19 -21 16 -41 17
-91 6z"/>
<path d="M8478 2045 c-2 -3 -141 -12 -309 -20 -305 -15 -349 -20 -349 -36 0
-11 7 -11 308 1 318 13 372 18 372 35 0 15 -14 27 -22 20z"/>
<path d="M7300 1971 c0 -17 38 -23 95 -16 84 11 76 25 -14 25 -45 0 -81 -4
-81 -9z"/>
<path d="M8429 1878 c-7 -17 -15 -26 -17 -20 -7 22 -40 34 -62 22 -21 -11 -29
-70 -10 -70 6 0 10 12 10 26 0 16 5 24 13 22 19 -7 20 -48 2 -68 -18 -20 -17
-51 3 -58 6 -2 22 7 34 21 l22 25 19 -24 c19 -24 47 -32 47 -14 0 6 -7 22 -16
36 -13 19 -15 37 -10 79 5 43 3 55 -8 55 -7 0 -19 -14 -27 -32z"/>
<path d="M8195 1790 c-42 -3 -65 -8 -57 -13 20 -13 116 -19 132 -8 27 18 -2
26 -75 21z"/>
<path d="M7750 1683 c0 -38 21 -155 32 -175 14 -27 42 -23 34 5 -3 12 -13 56
-22 97 -22 100 -22 100 -34 100 -5 0 -10 -12 -10 -27z"/>
<path d="M8060 1655 c-7 -8 -15 -35 -17 -59 -7 -60 20 -88 79 -84 44 3 67 28
26 28 -42 0 -52 15 -24 34 28 18 35 63 14 84 -17 17 -63 15 -78 -3z m60 -40
c0 -8 -9 -19 -20 -25 -23 -12 -27 -1 -9 31 11 21 29 17 29 -6z"/>
<path d="M7890 1627 c0 -27 -6 -37 -27 -48 l-28 -13 33 -4 c18 -2 32 -9 32
-16 0 -8 7 -19 15 -26 13 -11 15 -8 15 19 0 24 5 32 25 37 36 9 32 28 -4 21
-27 -6 -30 -4 -33 25 -4 45 -28 49 -28 5z"/>
</g>
</svg>
