<?xml version="1.0" standalone="no"?>
<!DOCTYPE svg PUBLIC "-//W3C//DTD SVG 20010904//EN"
 "http://www.w3.org/TR/2001/REC-SVG-20010904/DTD/svg10.dtd">
<svg version="1.0" xmlns="http://www.w3.org/2000/svg"
 width="1580.000000pt" height="1640.000000pt" viewBox="0 0 1580.000000 1640.000000"
 preserveAspectRatio="xMidYMid meet">
<metadata>
Created by potrace 1.16, written by Peter Selinger 2001-2019
</metadata>
<g transform="translate(0.000000,1640.000000) scale(0.100000,-0.100000)"
fill="#000000" stroke="none">
<path d="M8315 14433 c-267 -143 -691 -409 -1063 -667 -84 -58 -156 -106 -161
-106 -11 0 -156 197 -227 309 -70 112 -114 161 -143 161 -32 0 -315 -263 -662
-615 -351 -356 -418 -428 -538 -580 -47 -60 -106 -130 -131 -155 -86 -86 -329
-463 -483 -749 -137 -256 -184 -325 -216 -314 -9 3 -101 45 -206 94 -192 88
-297 129 -335 129 -41 0 -65 -43 -138 -250 -97 -278 -124 -367 -192 -635 l-57
-230 -139 -117 c-236 -200 -368 -350 -394 -450 -13 -46 3 -118 91 -417 76
-258 135 -486 147 -576 l10 -70 -38 -60 c-51 -82 -248 -391 -350 -550 -155
-241 -225 -400 -224 -515 1 -92 49 -232 214 -615 76 -177 148 -352 160 -391
l22 -69 -105 -250 c-148 -352 -197 -517 -197 -661 0 -68 19 -117 49 -130 9 -3
84 -10 166 -15 173 -10 246 -17 330 -30 l60 -10 0 -167 c0 -92 2 -219 4 -282
2 -65 -3 -187 -12 -280 l-16 -165 39 -55 c22 -30 85 -147 141 -259 56 -112
128 -244 160 -294 33 -49 59 -93 59 -97 0 -5 13 -3 30 3 21 8 30 18 30 35 0
12 7 39 16 60 8 20 24 84 35 141 38 195 103 363 177 458 21 26 53 73 71 103
40 65 99 138 197 240 147 152 296 395 358 582 14 40 30 110 36 156 12 77 11
85 -7 105 -25 29 -43 72 -43 103 0 33 -64 196 -157 402 -54 121 -73 173 -73
205 1 65 34 198 84 341 25 70 46 143 46 161 0 34 -57 132 -116 198 -20 21 -34
48 -34 63 0 47 118 307 190 418 89 137 109 148 208 115 110 -36 222 -87 272
-124 25 -18 71 -43 102 -55 125 -47 157 -85 170 -207 15 -127 88 -422 164
-661 36 -114 82 -281 100 -372 55 -263 101 -501 109 -559 4 -30 14 -70 22 -89
8 -19 12 -45 9 -58 -4 -13 -45 -65 -92 -116 -100 -107 -124 -142 -124 -183 0
-16 23 -104 51 -195 27 -91 77 -262 110 -380 33 -118 104 -354 159 -525 54
-170 115 -364 136 -430 113 -366 314 -843 423 -1003 41 -61 103 -122 124 -122
26 0 548 -185 632 -224 50 -24 177 -93 283 -155 314 -183 480 -251 617 -253
154 -2 652 150 908 278 115 58 134 107 72 188 -19 26 -35 48 -35 51 0 3 21 28
47 55 99 105 139 191 112 239 -22 39 -105 54 -196 34 -85 -18 -128 -13 -301
37 -75 22 -149 40 -164 40 -33 0 -68 -32 -68 -61 0 -22 55 -82 118 -130 l34
-26 -48 -69 c-26 -38 -49 -71 -50 -72 -1 -2 -73 45 -160 105 l-158 110 -47 84
c-136 244 -186 279 -295 209 -81 -51 -135 -56 -288 -26 -104 20 -168 40 -311
98 l-180 74 0 44 c1 25 7 223 14 440 7 217 10 451 7 520 -9 154 -24 277 -38
305 -6 11 -52 76 -103 145 -50 69 -138 193 -195 275 -136 197 -262 363 -348
455 l-69 75 18 25 c11 15 32 94 54 203 19 98 57 246 84 330 81 247 167 539
221 746 28 107 51 195 53 197 1 1 108 55 237 121 153 77 264 127 315 141 44
12 85 28 91 36 6 9 20 80 32 159 12 79 27 160 34 181 l13 37 305 103 c168 57
391 135 495 174 105 38 239 85 299 102 61 18 166 55 235 82 154 61 619 224
889 312 207 67 601 180 607 174 2 -2 11 -67 20 -143 25 -218 53 -408 64 -437
6 -15 22 -35 36 -44 24 -16 37 -16 128 -6 212 25 538 110 719 188 128 55 139
54 255 -5 212 -109 344 -210 643 -492 243 -229 312 -287 390 -328 56 -30 92
-37 125 -25 48 19 90 179 179 693 l11 64 39 -59 c96 -146 145 -194 198 -194
14 0 32 8 42 19 19 21 69 252 87 404 14 122 6 422 -14 514 l-13 61 109 -39
c60 -21 121 -39 137 -39 39 0 73 31 73 66 0 39 -153 436 -215 557 -28 54 -74
132 -103 172 l-53 73 29 12 c48 20 79 56 79 90 0 44 -42 100 -183 248 -67 70
-162 174 -212 232 -49 58 -209 238 -354 400 -599 667 -743 813 -894 903 l-56
34 107 51 c59 28 154 71 211 96 117 51 141 69 141 103 0 40 -15 57 -112 130
-145 108 -202 145 -425 269 -193 108 -355 208 -678 421 -71 47 -213 126 -315
175 -102 50 -186 92 -188 93 -2 1 59 87 134 190 75 103 145 203 156 221 23 40
18 81 -12 92 -10 4 -101 3 -202 -2 -225 -11 -441 0 -901 49 -459 49 -510 54
-685 62 l-153 6 -58 71 c-31 39 -94 119 -138 177 -90 116 -181 206 -236 232
-43 21 -54 21 -92 0z"/>
<path d="M11627 7468 c-8 -29 -21 -84 -27 -123 -44 -245 -95 -353 -232 -496
-63 -65 -127 -117 -198 -164 -58 -38 -136 -90 -175 -115 -38 -26 -104 -62
-145 -80 -109 -49 -235 -134 -312 -210 -53 -53 -69 -77 -82 -119 -56 -188 -66
-360 -37 -601 11 -96 25 -254 31 -350 5 -96 15 -266 21 -378 l12 -203 -23 -24
c-30 -32 -169 -128 -185 -128 -15 0 -226 106 -360 182 -95 53 -104 56 -170 56
-38 1 -174 2 -300 3 l-231 2 -28 57 -27 56 48 69 c152 218 173 251 173 273 0
35 -26 32 -45 -4 -8 -17 -63 -90 -121 -163 -127 -158 -139 -180 -116 -223 8
-16 28 -61 42 -100 l27 -70 119 -1 c93 0 137 -5 204 -24 96 -27 97 -25 -60
-64 -120 -29 -557 -143 -670 -175 -41 -11 -130 -29 -197 -40 -174 -28 -200
-37 -217 -69 -7 -15 -35 -88 -61 -162 -26 -74 -63 -165 -81 -202 -72 -143 -34
-155 134 -44 61 41 140 90 174 109 35 19 119 65 188 103 l125 69 195 0 c142 0
242 -6 370 -23 96 -12 237 -26 312 -32 76 -5 146 -15 157 -22 11 -6 29 -29 41
-50 12 -21 35 -45 51 -53 26 -14 30 -14 49 5 23 23 120 169 150 227 19 38 19
42 5 84 -9 24 -19 74 -22 111 l-6 66 82 -29 c62 -22 87 -26 101 -19 29 15 232
189 248 211 10 14 12 41 9 92 -2 40 -10 171 -16 292 -19 367 -30 495 -51 603
-37 188 -22 480 30 582 36 70 120 134 288 218 86 43 184 89 216 102 70 28 247
133 320 191 60 47 160 160 186 209 55 106 91 288 123 609 4 47 -21 32 -36 -21z"/>
<path d="M8990 7189 c-25 -5 -117 -20 -205 -34 -197 -32 -492 -103 -645 -157
-63 -22 -126 -43 -140 -47 -58 -17 -130 -55 -130 -68 0 -23 108 -8 325 44
l190 46 115 -12 c257 -28 381 -57 670 -155 371 -127 432 -151 670 -267 201
-97 287 -126 338 -112 30 7 33 26 17 104 -8 39 -15 101 -15 139 0 68 -1 70
-32 86 -18 9 -62 37 -98 61 -36 24 -147 79 -246 122 -98 43 -240 106 -314 139
-254 112 -365 137 -500 111z"/>
</g>
</svg>
